<svg width="79" height="79" viewBox="0 0 79 79" fill="none" xmlns="http://www.w3.org/2000/svg"><path d="M39.5 79C61.315 79 79 61.315 79 39.5S61.315 0 39.5 0 0 17.685 0 39.5 17.685 79 39.5 79z" fill="#1CABE2"/><path d="M13.495 52.103v-4.308h-.97v-.529h.97v-1.03c0-.829.335-1.203 1.16-1.203.187.015.371.05.55.104v.463a2.13 2.13 0 00-.355-.038c-.787 0-.807.395-.778 1.087v.617h1.098v.53h-1.098v4.303l-.577.004zM19.87 49.686c0 1.27-.71 2.56-2.245 2.56-1.534 0-2.246-1.286-2.246-2.56 0-1.275.71-2.561 2.24-2.561 1.53 0 2.245 1.286 2.245 2.56h.005zm-2.25-2.032c-1.161 0-1.622 1.137-1.622 2.032 0 .894.46 2.031 1.621 2.031s1.622-1.137 1.622-2.031c0-.895-.46-2.032-1.622-2.032zM21.28 52.103h-.576v-3.745c0-.377-.027-.761-.047-1.088h.594l.03.709h.018a1.243 1.243 0 011.084-.856c.183 0 .384 0 .576.01v.55c-.115-.009-.24-.038-.355-.038-.853 0-1.305.617-1.323 1.54v2.918zM25.755 49.816c.018 1.03.489 1.898 1.67 1.898a1.432 1.432 0 001.39-1.156h.605c-.297 1.156-1.018 1.685-2.179 1.685-1.439 0-2.11-1.242-2.11-2.561s.719-2.56 2.149-2.56c1.612 0 2.196 1.184 2.196 2.694h-3.721zm3.099-.53c-.068-.932-.566-1.636-1.565-1.636-.94 0-1.44.79-1.516 1.637h3.081zM30.254 47.27l1.66 4.034 1.603-4.034h.633l-1.91 4.833h-.653l-1.966-4.833h.633zM34.893 49.816c.018 1.03.489 1.898 1.67 1.898a1.432 1.432 0 001.391-1.156h.604c-.297 1.156-1.018 1.685-2.178 1.685-1.44 0-2.111-1.242-2.111-2.561s.72-2.56 2.15-2.56c1.612 0 2.196 1.184 2.196 2.694h-3.722zm3.1-.53c-.068-.932-.566-1.636-1.566-1.636-.939 0-1.439.79-1.516 1.637h3.081zM40.087 52.103h-.575v-3.745c0-.377-.03-.761-.048-1.088h.595l.028.71h.02a1.242 1.242 0 011.084-.855c.192 0 .384 0 .576.009v.551c-.115-.01-.242-.038-.355-.038-.855 0-1.305.617-1.325 1.54v2.916zM43.003 47.27l1.622 4.043 1.612-4.043h.623l-2.656 6.68h-.634l.729-1.847-1.995-4.833h.699zM52.348 48.752c-.047-.734-.518-1.102-1.314-1.102-.883 0-1.43.919-1.43 2.02 0 1.103.55 2.042 1.43 2.042.748 0 1.267-.463 1.314-1.126h.624c-.154 1.102-.787 1.653-1.88 1.653-1.44 0-2.11-1.242-2.11-2.56 0-1.32.719-2.562 2.147-2.562.988 0 1.796.598 1.843 1.628l-.624.007zM54.35 48.001h.02a1.65 1.65 0 011.508-.876c1.572 0 1.697 1.396 1.697 1.954v3.024H57V48.98c0-.836-.48-1.328-1.267-1.328-.95 0-1.382.8-1.382 1.666v2.783h-.575v-6.949h.575v2.85zM59.174 45.874h-.671v-.722h.671v.722zm-.047 1.396v4.833h-.575V47.27h.575zM60.828 52.103h-.577v-6.951h.577v6.951zM65.358 51.39l-.018-.038a1.962 1.962 0 01-1.648.894c-1.43 0-1.975-1.366-1.975-2.572 0-1.252.55-2.542 1.975-2.542a1.924 1.924 0 011.648.876l.018-.02V45.16h.577v5.862c0 .377.027.76.047 1.09h-.594l-.03-.713v-.008zm-1.572-3.736c-1.099 0-1.45 1.021-1.45 1.945 0 .895.26 2.118 1.364 2.118 1.255 0 1.647-1.049 1.647-2.147 0-.981-.432-1.916-1.554-1.916h-.007zM12.609 41.97v-.291h53.328v.291H12.609zM59.083 25.055c-.995.001-1.967.298-2.794.853a5.044 5.044 0 00-1.85 2.266 5.064 5.064 0 001.092 5.5 5.015 5.015 0 005.482 1.093 5.034 5.034 0 002.257-1.86 5.06 5.06 0 00-.628-6.371 5.028 5.028 0 00-3.555-1.48h-.004zm3.923 2.232c-.259.175-.53.332-.809.47a5.41 5.41 0 00-.6-.944c.206-.124.401-.265.585-.42.311.262.588.563.824.894zm-2.116-1.675c.403.165.782.383 1.128.649a4.546 4.546 0 01-.55.393 5.303 5.303 0 00-.827-.768c.092-.085.177-.176.254-.274h-.005zm.39 1.146c-.27.147-.554.265-.848.355a7.559 7.559 0 00-.419-.823c.163-.072.317-.162.46-.268.294.215.565.46.807.734v.002zm-.595-1.223a1.877 1.877 0 01-.224.228 5.09 5.09 0 00-.841-.467c.363.038.72.118 1.065.239zm-.394.367c-.12.086-.249.159-.384.217a7.36 7.36 0 00-.485-.68c.304.126.596.281.871.463h-.002zm-1.098-.426c.188.227.361.465.52.713a2.006 2.006 0 01-.52.092v-.805zm0 1.014c.215-.01.428-.05.633-.117.155.258.292.526.412.802a4.566 4.566 0 01-1.045.145v-.834.004zm-.209-1.005v.796a2.116 2.116 0 01-.512-.092 7.82 7.82 0 01.512-.704zm-.725.634a2.031 2.031 0 01-.386-.217c.274-.181.564-.335.868-.459a7.06 7.06 0 00-.482.676zm.29-.821c-.297.13-.582.288-.85.47a2.358 2.358 0 01-.221-.228 4.745 4.745 0 011.07-.242zm3.447 8.665c-.67-.368-.683-.88-.647-1.068.037-.187.167-.108.25-.108.439 0 .902-.13 1.464-.715.642-.657.846-2.12-.143-3.075-1.064-1.026-2.197-.846-2.929.078a1.107 1.107 0 01-.83.316c-.468-.017-.173.352-.173.43 0 .077-.072.132-.114.119-.157-.046-.095.183-.095.262a.107.107 0 01-.099.107c-.197 0-.142.184-.137.228a.185.185 0 01-.077.165.425.425 0 00-.137.31c0 .215.196.368.523.609a.78.78 0 01.367.643c-.002.208.03.415.095.613.088.215.077.608-.376.627-.549.022-1.53.464-1.612.494a1.948 1.948 0 01-1.046.07 5.166 5.166 0 01-.492-.401.761.761 0 01.16-.623.856.856 0 00.61.184c.342-.025.68-.075 1.015-.149a.272.272 0 01.22 0c.289.105.682.136.843-.417.161-.553-.22-.398-.267-.367-.047.031-.113.016-.09-.03.072-.141-.034-.126-.095-.132a.717.717 0 00-.42.208.142.142 0 01-.155.042c-.205-.103-.814.046-1.003-.287a11.47 11.47 0 00-.243-1.667.228.228 0 01.024-.22c.153-.234.582.017.812.012a.414.414 0 00.4-.217c.07-.092.126-.04.164-.066.039-.026 0-.1.022-.134.022-.035.039-.018.084-.059.046-.04 0-.132.019-.167.07-.105.256-.022.143-.292a.438.438 0 01.108-.417c.133-.184.653-.907-.262-1.67-.873-.726-1.758-.667-2.329-.048-.571.62-.284 1.527-.225 1.766a.503.503 0 01-.307.55c-.28.155-.542.34-.782.552a4.834 4.834 0 01.853-2.649 4.809 4.809 0 012.17-1.734c.077.097.162.189.254.274-.202.147-.64.54-.64.54s.061.009.116.024l.12.033s.387-.33.568-.462c.142.109.295.2.458.27-.088.15-.308.564-.308.564l.097.061a.846.846 0 01.076.057s.24-.452.33-.604c.201.067.412.107.625.115v.833c-.119 0-.423-.017-.55-.03h-.076l.042.064c.03.045.057.092.08.14l.01.017h.02c.09 0 .366.018.47.02v1.514h.21v-.375c.307-.015.561-.035.87-.063h.013l.271-.238-.148.012c-.326.043-.611.063-.871.078h-.136v-.961a4.83 4.83 0 001.13-.158c.1.25.29.856.29.856l.198-.063s-.183-.602-.29-.852c.312-.098.614-.226.902-.384.232.283.432.591.597.919-.149.07-.42.165-.42.165.13.014.257.04.381.077l.127-.055.056.13.271.122-.03-.076s-.09-.215-.113-.264c.29-.144.57-.306.839-.487a4.85 4.85 0 01-1.12 6.5l.02.014zM53.597 26.399l-.079.07c-.295.26-.968.953-.864 1.711l.01.054.034.15.093-.086c.412-.378.723-1.021.85-1.761l.035-.21-.08.072zM52.227 27.708l-.032.092a3.49 3.49 0 00-.184.748c-.064.501-.049 1.21.385 1.74l.047.062.052.064.064-.321c.071-.57-.024-1.762-.23-2.295l-.074-.183-.033.09.005.003zM51.728 29.76v.094c-.037.509-.011 1.769 1.005 2.436l.12.079v-.144c-.016-.477-.572-1.904-.99-2.415l-.117-.143v.093h-.018zM51.903 32.012l.017.087c.15.724.833 1.894 1.89 2.233l.142.048-.051-.143c-.198-.542-1.214-1.802-1.87-2.217l-.146-.094.018.086zM54.023 27.488l-.082.051c-.787.48-1.155 1.064-1.126 1.784v.164l.114-.096c.424-.353.957-1.255 1.114-1.767l.057-.184-.084.052.007-.004zM53.562 29.059l-.06.055c-.202.183-.852.887-.797 1.747a1.7 1.7 0 00.09.422l.046.138.084-.118c.311-.44.732-1.6.701-2.138v-.163l-.059.057h-.005zM53.551 30.622a2.552 2.552 0 00-.485 1.455c.011.349.124.687.324.973l.068.103.058-.11c.141-.267.255-1.135.238-1.82 0-.196-.024-.391-.071-.581l-.044-.152-.088.132zM53.976 32.152l-.02.068a2.875 2.875 0 00-.138.918 1.818 1.818 0 00.877 1.55l.095.061.02-.128v-.103c-.014-.542-.417-1.909-.732-2.326l-.088-.114-.022.069.008.005zM52.868 34.268l.04.068c.425.713 1.143 1.631 2.486 1.394l.112-.018-.064-.096c-.25-.367-1.88-1.296-2.457-1.392l-.157-.026.04.07zM54.856 36.076l-.212.057.203.082c.853.351 1.924.456 2.546.246.21-.08.4-.21.55-.378 1.098.114 2.116 1.025 2.713 1.77l.032.038.046-.015a.718.718 0 00.215-.15l.04-.047-.037-.05a5.395 5.395 0 00-1.647-1.342c-.877-.43-2.426-.764-4.454-.211h.005zM54.9 33.796l.013.072c.128.808.454 1.868 1.814 1.75h.086l-.022-.084c-.091-.368-1.336-1.435-1.772-1.734l-.13-.068.011.071v-.007zM64.509 26.327l.037.21c.126.734.435 1.383.85 1.761l.092.086.033-.15.011-.054c.103-.758-.57-1.45-.865-1.712l-.08-.07-.078-.071zM65.924 27.618l-.071.184c-.209.533-.304 1.725-.233 2.294l.066.322.05-.064.047-.063c.434-.529.449-1.238.385-1.74a3.636 3.636 0 00-.184-.747l-.034-.092-.033-.09.007-.004zM66.451 29.667l-.119.143c-.415.51-.972 1.938-.99 2.415v.144l.119-.08c1.016-.666 1.042-1.926 1.007-2.435v-.187h-.017zM66.3 31.926l-.147.094c-.654.415-1.671 1.675-1.87 2.217l-.052.143.146-.048c1.055-.34 1.74-1.51 1.888-2.233l.018-.087.016-.086zM64.117 27.405l.055.184c.147.516.661 1.427 1.078 1.79l.114.098.01-.165c.041-.718-.316-1.31-1.1-1.806l-.082-.053-.075-.048zM64.564 29.007v.164c-.022.538.39 1.697.701 2.138l.084.117.046-.137c.049-.137.079-.279.09-.423.056-.86-.595-1.554-.797-1.747l-.058-.055-.06-.057h-.006zM64.547 30.49l-.045.152a2.38 2.38 0 00-.07.58c-.016.686.095 1.554.236 1.82l.059.111.07-.103a1.81 1.81 0 00.322-.973 2.539 2.539 0 00-.486-1.455l-.042-.066-.043-.066zM64.187 32.084l-.088.114c-.315.417-.718 1.784-.732 2.325v.103l.022.129.095-.06a1.808 1.808 0 00.875-1.551 2.777 2.777 0 00-.137-.919l-.022-.068-.02-.067.007-.006zM65.357 34.202l-.156.026c-.577.095-2.208 1.02-2.458 1.392l-.063.096.112.018c1.344.237 2.061-.681 2.484-1.394l.04-.068.04-.07z" fill="#fff"/><path d="M58.874 36.287a5.398 5.398 0 00-1.638 1.343l-.038.05.042.045a.694.694 0 00.214.15l.046.016.03-.037c.597-.746 1.62-1.653 2.714-1.771.15.169.338.298.549.379.62.209 1.691.104 2.546-.247l.202-.082-.21-.057c-2.031-.551-3.58-.219-4.457.21zM63.295 33.724l-.13.068c-.435.3-1.68 1.367-1.772 1.734l-.022.085h.086c1.36.117 1.688-.942 1.816-1.75l.022-.144v.007zM28.53 25.412h1.72v1.573h-1.72v-1.573zm.135 11.022V28.77h1.444v7.657l-1.444.007zM17.762 28.776h1.444v7.658h-1.404v-1.13h-.03c-.577.961-1.551 1.358-2.617 1.358-1.594 0-2.508-1.222-2.508-2.756v-5.13h1.446v4.532c0 1.326.304 2.303 1.686 2.303.593 0 1.399-.305 1.703-1.102.192-.58.29-1.188.29-1.8v-3.933h-.01zM22.09 29.906h.03c.488-.961 1.551-1.358 2.31-1.358.534 0 2.89.136 2.89 2.594v5.292h-1.443v-4.82c0-1.266-.533-1.953-1.75-1.953a1.979 1.979 0 00-1.399.564c-.212.213-.607.551-.607 2.045v4.164h-1.445v-7.658h1.414v1.13zM36.158 31.232c-.077-.955-.53-1.62-1.556-1.62-1.373 0-1.904 1.196-1.904 2.985s.53 2.987 1.904 2.987c.95 0 1.54-.62 1.614-1.714h1.437c-.122 1.714-1.39 2.755-3.068 2.755-2.43 0-3.397-1.727-3.397-3.971 0-2.245 1.116-4.093 3.52-4.093 1.602 0 2.808 1.016 2.881 2.667l-1.431.004zM39.81 32.869c-.106 1.335.437 2.715 1.902 2.715 1.118 0 1.677-.44 1.841-1.549h1.513c-.227 1.73-1.556 2.594-3.369 2.594-2.43 0-3.4-1.727-3.4-3.972 0-2.244 1.12-4.092 3.521-4.092 2.265.047 3.337 1.484 3.337 3.593v.71H39.81zm3.835-1c.031-1.27-.55-2.257-1.933-2.257-1.196 0-1.902 1.012-1.902 2.257h3.835zM46.78 36.407v-6.613h-1.304V28.79h1.305v-1.635c.046-1.668 1.298-2.107 2.37-2.107.347.02.691.07 1.03.15v1.196c-.244-.013-.484-.046-.733-.046-.815 0-1.281.215-1.237 1.047v1.395h1.751v1.003h-1.751v6.613h-1.43z" fill="#fff"/></svg>