<svg width="149" height="36" viewBox="0 0 149 36" fill="none" xmlns="http://www.w3.org/2000/svg"><path d="M9.851 35.4c-2.866 0-5.166-.917-6.9-2.75-1.7-1.867-2.55-4.317-2.55-7.35V.6c0-.167.05-.3.15-.4a.622.622 0 01.45-.2h4.6c.167 0 .3.067.4.2.134.1.2.233.2.4v25.3c0 1.333.334 2.417 1 3.25.667.833 1.55 1.25 2.65 1.25 1.1 0 1.984-.417 2.65-1.25.667-.833 1-1.917 1-3.25V.6c0-.167.05-.3.15-.4a.622.622 0 01.45-.2h4.6c.167 0 .3.067.4.2.134.1.2.233.2.4v24.7c0 3.033-.866 5.483-2.6 7.35-1.733 1.833-4.016 2.75-6.85 2.75zm15.227-.4a.732.732 0 01-.45-.15.731.731 0 01-.15-.45V.6c0-.167.05-.3.15-.4a.622.622 0 01.45-.2h4.6c.167 0 .3.067.4.2.134.1.2.233.2.4v13.8c0 .133.034.217.1.25.067 0 .134-.05.2-.15l7.5-14.05c.167-.3.417-.45.75-.45h4.95c.234 0 .384.067.45.2.067.133.05.3-.05.5l-7.5 14.05c-.033.133-.05.233-.05.3l8.1 19.25c.034.067.05.167.05.3 0 .267-.166.4-.5.4h-4.95c-.366 0-.6-.15-.7-.45l-5.9-14.45c-.033-.1-.083-.133-.15-.1-.066 0-.133.033-.2.1l-2 3.35c-.066.133-.1.233-.1.3V34.4a.621.621 0 01-.2.45.54.54 0 01-.4.15h-4.6zm37.078 0c-.333 0-.55-.167-.65-.5l-4.25-14.35c-.066-.133-.15-.2-.25-.2h-2.65c-.166 0-.25.083-.25.25v14.2a.621.621 0 01-.2.45.54.54 0 01-.4.15h-4.6a.732.732 0 01-.45-.15.731.731 0 01-.15-.45V.6c0-.167.05-.3.15-.4a.622.622 0 01.45-.2h9.4c1.767 0 3.317.433 4.65 1.3 1.367.833 2.417 2.033 3.15 3.6.767 1.533 1.15 3.3 1.15 5.3 0 2.067-.4 3.85-1.2 5.35-.8 1.5-1.916 2.633-3.35 3.4-.133.033-.183.133-.15.3l4.9 15.05c.034.067.05.15.05.25 0 .3-.183.45-.55.45h-4.8zm-7.8-30c-.166 0-.25.083-.25.25v9.95c0 .167.084.25.25.25h3.05c1.2 0 2.167-.467 2.9-1.4.767-.933 1.15-2.2 1.15-3.8 0-1.6-.383-2.867-1.15-3.8-.733-.967-1.7-1.45-2.9-1.45h-3.05zm31.588 30c-.4 0-.617-.183-.65-.55l-.95-5.25c0-.167-.1-.25-.3-.25h-7.3c-.2 0-.3.083-.3.25l-.95 5.25c-.033.367-.25.55-.65.55h-4.55c-.467 0-.65-.217-.55-.65l7.4-33.8c.067-.367.283-.55.65-.55h5.3c.367 0 .583.183.65.55l7.4 33.8v.2c0 .3-.183.45-.55.45h-4.65zm-8.6-10.85c-.033.167.05.25.25.25h5.55c.2 0 .283-.083.25-.25l-2.9-15.8c-.033-.1-.083-.15-.15-.15-.067 0-.117.05-.15.15l-2.85 15.8zM95.147 35a.731.731 0 01-.45-.15.731.731 0 01-.15-.45V.6c0-.167.05-.3.15-.4a.622.622 0 01.45-.2h4.6c.166 0 .3.067.4.2.133.1.2.233.2.4v33.8a.623.623 0 01-.2.45c-.1.1-.234.15-.4.15h-4.6zM119.928.6c0-.167.05-.3.15-.4a.624.624 0 01.45-.2h4.55c.167 0 .3.067.4.2.134.1.2.233.2.4v33.8a.62.62 0 01-.2.45.54.54 0 01-.4.15h-5.25c-.333 0-.55-.167-.65-.5l-7.45-21.2c-.033-.1-.1-.133-.2-.1-.066 0-.1.05-.1.15l.05 21.05a.62.62 0 01-.2.45.54.54 0 01-.4.15h-4.55a.734.734 0 01-.45-.15.731.731 0 01-.15-.45V.6c0-.167.05-.3.15-.4a.624.624 0 01.45-.2h5.15c.334 0 .55.167.65.5l7.5 21.05c.034.1.084.15.15.15.1-.033.15-.1.15-.2V.6zm28.592 3.8a.623.623 0 01-.2.45.54.54 0 01-.4.15h-10.8c-.167 0-.25.083-.25.25v9.45c0 .167.083.25.25.25h6.4c.167 0 .3.067.4.2.133.1.2.233.2.4v3.85a.623.623 0 01-.2.45.54.54 0 01-.4.15h-6.4c-.167 0-.25.083-.25.25v9.5c0 .167.083.25.25.25h10.8c.167 0 .3.067.4.2.133.1.2.233.2.4v3.8a.623.623 0 01-.2.45.54.54 0 01-.4.15h-16.25a.73.73 0 01-.45-.15.731.731 0 01-.15-.45V.6c0-.167.05-.3.15-.4a.62.62 0 01.45-.2h16.25c.167 0 .3.067.4.2.133.1.2.233.2.4v3.8z" fill="#fff"/></svg>