<svg width="128" height="34" viewBox="0 0 128 34" fill="none" xmlns="http://www.w3.org/2000/svg"><path d="M0 16C0 7.163 7.163 0 16 0h96c8.837 0 16 7.163 16 16v2c0 8.837-7.163 16-16 16H16C7.163 34 0 26.837 0 18v-2z" fill="#1CABE2"/><path d="M20.258 12.194h3.434c.775 0 1.365.06 1.771.178.546.16 1.014.447 1.403.857.39.41.686.914.889 1.51.203.593.305 1.325.305 2.197 0 .766-.096 1.426-.286 1.98-.233.678-.565 1.226-.997 1.645-.326.317-.766.564-1.32.742-.415.131-.969.197-1.663.197h-3.536v-9.306zm1.88 1.575v6.163h1.402c.525 0 .904-.03 1.136-.089.305-.076.557-.205.756-.387.203-.182.368-.48.495-.895.127-.419.19-.988.19-1.707 0-.72-.063-1.272-.19-1.657s-.305-.686-.533-.902a1.789 1.789 0 00-.87-.438c-.262-.059-.777-.088-1.543-.088h-.844zm7.14 3.135c0-.948.142-1.743.426-2.386.211-.474.499-.9.863-1.276.368-.377.77-.656 1.206-.838.58-.246 1.248-.368 2.006-.368 1.37 0 2.467.425 3.288 1.276.825.85 1.238 2.033 1.238 3.548 0 1.502-.409 2.679-1.225 3.53-.817.845-1.909 1.269-3.276 1.269-1.384 0-2.484-.421-3.3-1.264-.817-.846-1.226-2.01-1.226-3.49zm1.936-.063c0 1.053.244 1.853.73 2.4.487.54 1.105.812 1.854.812.749 0 1.362-.269 1.84-.806.483-.542.724-1.352.724-2.432 0-1.066-.235-1.862-.704-2.386-.466-.525-1.086-.787-1.86-.787-.775 0-1.399.266-1.873.8-.474.528-.71 1.328-.71 2.399zm8.582 4.659v-9.306h1.828l3.81 6.215v-6.215h1.745V21.5h-1.886l-3.751-6.068V21.5h-1.746zm17.767 0H55.52l-.812-2.114h-3.72L50.22 21.5h-1.993l3.625-9.306h1.986l3.726 9.306zm-3.459-3.682l-1.282-3.453-1.257 3.453h2.539zm5.592 3.682v-7.731h-2.76v-1.575h7.394v1.575h-2.755V21.5h-1.879zm5.853 0v-9.306h6.9v1.575h-5.021v2.063H72.1v1.567h-4.672v2.533h5.198V21.5H65.55zm12.308 0v-9.306h1.828l3.809 6.215v-6.215h1.745V21.5h-1.885l-3.751-6.068V21.5h-1.746zm8.995-4.596c0-.948.141-1.743.425-2.386.211-.474.5-.9.863-1.276.368-.377.77-.656 1.206-.838.58-.246 1.249-.368 2.006-.368 1.371 0 2.467.425 3.288 1.276.825.85 1.238 2.033 1.238 3.548 0 1.502-.408 2.679-1.225 3.53-.817.845-1.909 1.269-3.276 1.269-1.383 0-2.484-.421-3.3-1.264-.817-.846-1.225-2.01-1.225-3.49zm1.936-.063c0 1.053.243 1.853.73 2.4.486.54 1.104.812 1.853.812.75 0 1.363-.269 1.84-.806.483-.542.725-1.352.725-2.432 0-1.066-.235-1.862-.705-2.386-.465-.525-1.085-.787-1.86-.787-.774 0-1.398.266-1.872.8-.474.528-.711 1.328-.711 2.399zM98.67 21.5l-2.222-9.306h1.924l1.402 6.392 1.702-6.392h2.234l1.631 6.5 1.429-6.5h1.891l-2.26 9.306h-1.993l-1.853-6.957-1.848 6.957h-2.037z" fill="#fff"/></svg>