<svg width="68" height="68" viewBox="0 0 68 68" fill="none" xmlns="http://www.w3.org/2000/svg"><path d="M34 68c18.778 0 34-15.222 34-34S52.778 0 34 0 0 15.222 0 34s15.222 34 34 34z" fill="#1CABE2"/><path d="M11.616 44.848V41.14h-.835v-.455h.835v-.887c0-.713.289-1.036 1-1.036.16.014.318.044.472.09v.399c-.1-.02-.203-.03-.306-.033-.677 0-.695.34-.67.936v.531h.946v.455h-.945v3.705l-.497.003zM17.103 42.767c0 1.094-.612 2.204-1.932 2.204-1.32 0-1.933-1.106-1.933-2.204 0-1.097.61-2.204 1.928-2.204 1.317 0 1.932 1.107 1.932 2.204h.005zm-1.937-1.748c-.999 0-1.396.978-1.396 1.748s.397 1.75 1.396 1.75c1 0 1.396-.98 1.396-1.75s-.397-1.748-1.396-1.748zM18.318 44.848h-.497v-3.224c0-.324-.023-.654-.04-.936h.512l.025.61h.015a1.07 1.07 0 01.933-.736c.158 0 .331 0 .497.008v.474c-.1-.008-.207-.033-.306-.033-.734 0-1.124.531-1.14 1.326v2.511zM22.169 42.88c.015.887.42 1.633 1.437 1.633a1.233 1.233 0 001.197-.995h.52c-.255.995-.876 1.45-1.875 1.45-1.238 0-1.817-1.069-1.817-2.204 0-1.135.62-2.204 1.85-2.204 1.388 0 1.891 1.02 1.891 2.32H22.17zm2.667-.456c-.058-.803-.486-1.409-1.347-1.409-.808 0-1.238.68-1.305 1.41h2.652zM26.042 40.688l1.429 3.472 1.379-3.472h.545l-1.643 4.16h-.563l-1.692-4.16h.545zM30.035 42.88c.015.887.42 1.633 1.437 1.633a1.233 1.233 0 001.197-.995h.52c-.255.995-.876 1.45-1.875 1.45-1.238 0-1.817-1.069-1.817-2.204 0-1.135.62-2.204 1.85-2.204 1.389 0 1.891 1.02 1.891 2.32h-3.203zm2.667-.456c-.058-.803-.486-1.409-1.347-1.409-.808 0-1.238.68-1.305 1.41h2.652zM34.505 44.848h-.495v-3.224c0-.324-.025-.654-.04-.936h.511l.024.612h.017a1.069 1.069 0 01.933-.737c.166 0 .331 0 .497.008v.474c-.1-.007-.209-.033-.306-.033-.736 0-1.124.532-1.141 1.327v2.51zM37.015 40.688l1.396 3.48 1.388-3.48h.536l-2.286 5.75h-.545l.627-1.59-1.718-4.16h.602zM45.06 41.964c-.042-.632-.447-.949-1.132-.949-.76 0-1.23.791-1.23 1.74 0 .948.472 1.756 1.23 1.756.644 0 1.09-.398 1.131-.969h.538c-.133.949-.678 1.423-1.619 1.423-1.24 0-1.817-1.069-1.817-2.204 0-1.135.62-2.204 1.849-2.204.85 0 1.546.514 1.587 1.4l-.538.007zM46.783 41.317h.017a1.42 1.42 0 011.297-.754c1.354 0 1.46 1.202 1.46 1.683v2.602h-.494V42.16c0-.72-.413-1.143-1.09-1.143-.818 0-1.19.688-1.19 1.434v2.396h-.495v-5.982h.495v2.452zM50.935 39.486h-.578v-.621h.578v.621zm-.04 1.202v4.16h-.496v-4.16h.495zM52.358 44.848h-.496v-5.983h.496v5.983zM56.258 44.235l-.016-.033a1.689 1.689 0 01-1.418.77c-1.23 0-1.7-1.177-1.7-2.214 0-1.079.472-2.189 1.7-2.189a1.657 1.657 0 011.418.755l.016-.018v-2.435h.496v5.046c0 .324.024.654.041.938h-.512l-.025-.614v-.006zm-1.354-3.216c-.945 0-1.248.879-1.248 1.674 0 .77.224 1.823 1.174 1.823 1.081 0 1.418-.903 1.418-1.848 0-.845-.371-1.65-1.337-1.65h-.007zM10.853 36.127v-.252h45.903v.252H10.853zM50.856 21.567a4.32 4.32 0 00-2.404.733 4.359 4.359 0 00-.653 6.685 4.326 4.326 0 004.718.94 4.333 4.333 0 001.943-1.6 4.356 4.356 0 00-.54-5.484 4.328 4.328 0 00-3.06-1.274h-.004zm3.377 1.92c-.223.151-.455.287-.696.406a4.655 4.655 0 00-.517-.813c.177-.107.346-.228.504-.362.268.226.506.485.71.77zm-1.821-1.441c.346.142.673.33.97.558a3.895 3.895 0 01-.472.338 4.555 4.555 0 00-.713-.66c.08-.073.153-.152.22-.236h-.005zm.335.986a3.93 3.93 0 01-.73.306 6.511 6.511 0 00-.36-.709c.14-.061.273-.139.395-.23.254.184.487.396.695.632v.002zm-.512-1.053c-.058.071-.123.137-.192.197a4.393 4.393 0 00-.725-.402c.313.032.62.101.917.205zm-.338.317a1.805 1.805 0 01-.331.186 6.292 6.292 0 00-.418-.585c.262.109.513.242.75.399h-.002zm-.946-.367c.161.195.31.4.447.613a1.728 1.728 0 01-.447.08v-.693zm0 .873c.185-.01.369-.043.545-.102.133.223.251.454.355.691a3.93 3.93 0 01-.9.125v-.718.004zm-.18-.865v.684a1.818 1.818 0 01-.44-.079c.135-.21.282-.412.44-.605zm-.624.545a1.748 1.748 0 01-.332-.186c.235-.157.486-.289.747-.396-.15.186-.288.38-.415.582zm.25-.707a4.53 4.53 0 00-.732.405 2.04 2.04 0 01-.19-.196c.298-.105.607-.175.921-.209zm2.966 7.459c-.576-.317-.587-.758-.556-.919.032-.161.144-.093.215-.093.378 0 .776-.112 1.26-.615.553-.566.728-1.825-.123-2.647-.915-.884-1.89-.729-2.521.066a.954.954 0 01-.714.272c-.403-.014-.15.304-.15.37 0 .067-.06.114-.097.103-.136-.04-.082.158-.082.226a.092.092 0 01-.085.092c-.17 0-.123.158-.118.196a.158.158 0 01-.067.142.366.366 0 00-.118.267c0 .185.169.317.45.524a.672.672 0 01.316.553c-.001.18.026.358.082.528.076.185.066.524-.323.54-.473.019-1.317.4-1.388.425-.29.102-.6.123-.9.06a4.42 4.42 0 01-.424-.345.656.656 0 01.137-.536.737.737 0 00.527.158c.293-.022.585-.064.873-.128a.235.235 0 01.189 0c.249.09.587.117.726-.359s-.19-.343-.23-.316c-.041.027-.098.014-.077-.025.061-.122-.03-.11-.082-.114a.617.617 0 00-.363.179.123.123 0 01-.132.036c-.177-.089-.701.04-.864-.247a9.876 9.876 0 00-.209-1.435.194.194 0 01.02-.189c.133-.202.502.015.7.01a.356.356 0 00.344-.187c.061-.079.108-.034.141-.057.034-.022 0-.085.02-.115.018-.03.032-.016.072-.05.04-.035 0-.114.016-.145.06-.09.22-.018.122-.25a.377.377 0 01.093-.36c.115-.158.563-.78-.225-1.437-.752-.625-1.513-.574-2.004-.041-.492.533-.245 1.314-.194 1.52a.433.433 0 01-.265.474c-.24.133-.466.292-.673.474a4.16 4.16 0 01.734-2.28 4.138 4.138 0 011.868-1.493c.067.084.14.163.219.236-.173.126-.55.465-.55.465s.052.008.1.02l.103.029s.333-.283.489-.397a1.9 1.9 0 00.394.232c-.076.128-.265.486-.265.486l.084.052a.731.731 0 01.064.049s.207-.389.284-.52c.174.058.355.092.539.1v.716c-.103 0-.364-.014-.473-.026h-.066l.036.056c.026.038.05.078.07.12l.007.014h.017c.078 0 .316.016.405.017v1.303h.18v-.322c.265-.013.484-.03.75-.054h.011l.233-.206-.127.012c-.28.036-.527.053-.75.066h-.117v-.827c.328-.007.655-.052.972-.136.087.215.25.737.25.737l.171-.054s-.158-.519-.25-.734c.269-.084.529-.194.776-.33.2.244.372.509.514.79-.128.06-.36.143-.36.143.11.012.22.034.327.066l.109-.047.048.112.234.104-.027-.064-.096-.228c.25-.124.49-.264.721-.419a4.175 4.175 0 01-.964 5.594l.017.013zM46.134 22.723l-.068.06c-.253.224-.833.82-.744 1.474l.008.045.03.13.08-.074c.355-.326.623-.88.732-1.517l.03-.18-.068.062zM44.955 23.85l-.028.08a3 3 0 00-.157.643c-.056.432-.043 1.042.33 1.497l.041.054.044.055.056-.276c.061-.49-.02-1.517-.199-1.975l-.063-.158-.028.077.004.003zM44.525 25.616v.081c-.031.438-.01 1.523.865 2.097l.104.068v-.124c-.014-.41-.493-1.64-.852-2.079l-.101-.123v.08h-.016zM44.676 27.555l.015.074c.129.623.717 1.63 1.626 1.923l.123.041-.044-.123c-.17-.467-1.045-1.551-1.61-1.909l-.125-.08.015.074zM46.501 23.66l-.07.045c-.678.413-.995.915-.97 1.535v.14l.098-.081c.366-.304.824-1.08.96-1.521l.048-.159-.072.045.006-.003z" fill="#fff"/><path d="M46.104 25.012l-.052.048c-.173.158-.733.764-.685 1.504.01.124.036.246.077.363l.04.119.072-.101c.268-.38.63-1.378.603-1.84v-.142l-.05.05h-.005zM46.095 26.358c-.264.364-.41.802-.418 1.252.01.3.107.592.279.838l.058.089.05-.095c.122-.23.22-.977.206-1.567a2.12 2.12 0 00-.062-.5l-.038-.13-.075.113zM46.46 27.675l-.017.059a2.474 2.474 0 00-.118.79 1.564 1.564 0 00.755 1.335l.081.052.018-.11v-.09c-.013-.466-.36-1.642-.63-2.001l-.076-.098-.02.058.007.005zM45.507 29.497l.035.058c.365.614.983 1.404 2.14 1.2l.096-.015-.056-.083c-.215-.316-1.618-1.116-2.114-1.198l-.136-.022.035.06zM47.218 31.052l-.183.05.175.07c.734.303 1.656.393 2.192.213.181-.07.343-.181.473-.326.945.098 1.821.882 2.335 1.524l.028.032.04-.013a.617.617 0 00.184-.13l.035-.04-.032-.042a4.644 4.644 0 00-1.418-1.156c-.755-.37-2.088-.657-3.834-.182h.005zM47.256 29.09l.011.062c.11.696.39 1.608 1.561 1.507h.075l-.02-.073c-.078-.316-1.15-1.235-1.525-1.492l-.111-.059.009.062v-.007zM55.527 22.661l.031.18c.11.633.375 1.191.732 1.517l.08.074.028-.13c0-.001.008-.042.01-.045.088-.653-.492-1.25-.746-1.474l-.067-.06-.068-.062zM56.745 23.773l-.061.158c-.18.459-.262 1.485-.2 1.975l.056.277.043-.056.04-.054c.374-.455.387-1.065.332-1.497a3.126 3.126 0 00-.158-.643l-.03-.08-.028-.077.006-.003zM57.199 25.536l-.103.123c-.357.44-.836 1.668-.852 2.08v.123l.102-.068c.875-.574.897-1.659.867-2.097v-.161h-.014zM57.068 27.48l-.126.081c-.563.358-1.439 1.442-1.609 1.909l-.046.123.127-.041c.907-.293 1.496-1.3 1.624-1.923l.016-.074.014-.074zM55.19 23.59l.047.157c.126.445.569 1.23.928 1.54l.098.086.008-.142c.036-.619-.271-1.128-.946-1.555l-.07-.045-.065-.042zM55.574 24.968v.14c-.019.464.336 1.462.604 1.841l.072.102.04-.119c.041-.117.067-.24.077-.364.049-.74-.512-1.337-.686-1.503l-.05-.048-.052-.049h-.005zM55.56 26.244l-.04.131c-.04.164-.06.332-.06.5-.014.59.083 1.338.204 1.567l.05.095.06-.089c.172-.246.268-.537.278-.838a2.185 2.185 0 00-.418-1.252l-.036-.057-.038-.057zM55.25 27.617l-.076.098c-.271.359-.618 1.535-.63 2.001v.089l.019.11.081-.052a1.557 1.557 0 00.754-1.334 2.39 2.39 0 00-.119-.79l-.018-.06-.018-.058.007-.004zM56.257 29.44l-.134.022c-.497.082-1.9.877-2.117 1.198l-.053.083.096.015c1.157.204 1.774-.586 2.138-1.2l.035-.058.035-.06z" fill="#fff"/><path d="M50.677 31.234c-.542.288-1.021.681-1.41 1.156l-.034.043.037.04a.597.597 0 00.184.13l.04.012.026-.032c.514-.642 1.395-1.423 2.335-1.524.13.145.292.256.473.326.534.18 1.456.09 2.192-.212l.173-.071-.18-.05c-1.748-.474-3.081-.188-3.836.182zM54.482 29.029l-.112.058c-.375.258-1.446 1.177-1.525 1.493l-.019.073h.074c1.17.1 1.453-.812 1.563-1.507l.02-.124v.007zM24.557 21.874h1.482v1.354h-1.482v-1.354zm.117 9.487v-6.597h1.243v6.59l-1.243.007zM15.289 24.77h1.243v6.591h-1.208v-.972h-.027c-.497.826-1.335 1.168-2.252 1.168-1.372 0-2.159-1.051-2.159-2.372V24.77h1.245v3.9c0 1.142.262 1.984 1.451 1.984.51 0 1.204-.263 1.466-.95.165-.499.25-1.022.249-1.549V24.77h-.008zM19.014 25.741h.027c.419-.826 1.334-1.168 1.988-1.168.459 0 2.487.117 2.487 2.233v4.555h-1.242v-4.149c0-1.09-.459-1.68-1.506-1.68-.45-.004-.882.17-1.204.485-.183.183-.523.474-.523 1.76v3.584h-1.244v-6.592h1.217v.973zM31.123 26.883c-.066-.822-.455-1.395-1.34-1.395-1.18 0-1.638 1.03-1.638 2.57 0 1.54.457 2.57 1.639 2.57.818 0 1.325-.532 1.39-1.474h1.237c-.106 1.475-1.198 2.371-2.641 2.371-2.093 0-2.925-1.486-2.925-3.418 0-1.932.961-3.523 3.03-3.523 1.38 0 2.417.875 2.48 2.296l-1.232.003zM34.267 28.292c-.092 1.15.377 2.337 1.637 2.337.963 0 1.443-.378 1.585-1.333h1.302c-.196 1.49-1.34 2.233-2.9 2.233-2.092 0-2.926-1.487-2.926-3.419s.963-3.523 3.03-3.523c1.95.041 2.873 1.278 2.873 3.093v.612h-4.601zm3.301-.86c.027-1.094-.473-1.944-1.664-1.944-1.029 0-1.637.872-1.637 1.944h3.301zM40.267 31.337v-5.692h-1.123v-.863h1.123v-1.407c.04-1.436 1.117-1.814 2.04-1.814.3.017.595.06.886.13v1.029c-.21-.011-.416-.04-.63-.04-.701 0-1.103.185-1.065.902v1.2h1.508v.863h-1.508v5.692h-1.23z" fill="#fff"/></svg>