<svg width="85" height="85" viewBox="0 0 85 85" fill="none" xmlns="http://www.w3.org/2000/svg"><path d="M42.5 85C65.972 85 85 65.972 85 42.5S65.972 0 42.5 0 0 19.028 0 42.5 19.028 85 42.5 85z" fill="#1CABE2"/><path d="M14.52 56.06v-4.635h-1.044v-.569h1.044v-1.109c0-.891.36-1.294 1.249-1.294.2.016.398.054.59.112v.498a2.292 2.292 0 00-.381-.041c-.847 0-.869.425-.837 1.17v.664h1.181v.57h-1.181v4.63l-.62.004zM21.378 53.46c0 1.367-.764 2.754-2.414 2.754-1.65 0-2.417-1.383-2.417-2.755 0-1.372.764-2.755 2.41-2.755 1.647 0 2.415 1.383 2.415 2.755h.006zm-2.42-2.187c-1.249 0-1.745 1.224-1.745 2.186 0 .963.496 2.186 1.745 2.186 1.248 0 1.745-1.223 1.745-2.186 0-.962-.497-2.186-1.745-2.186zM22.897 56.06h-.62v-4.03c0-.405-.03-.818-.052-1.17h.64l.032.763h.02a1.339 1.339 0 011.166-.921c.197 0 .413 0 .62.01v.593c-.124-.01-.258-.042-.382-.042-.918 0-1.404.664-1.424 1.659v3.138zM27.71 53.6c.02 1.108.527 2.041 1.797 2.041a1.542 1.542 0 001.497-1.243h.65c-.319 1.243-1.095 1.812-2.344 1.812-1.548 0-2.27-1.336-2.27-2.755 0-1.419.773-2.755 2.312-2.755 1.735 0 2.363 1.275 2.363 2.9h-4.004zm3.335-.57c-.072-1.004-.608-1.76-1.684-1.76-1.01 0-1.548.85-1.63 1.76h3.314zM32.552 50.86l1.787 4.34 1.723-4.34h.682l-2.055 5.2h-.703l-2.115-5.2h.681zM37.543 53.6c.02 1.108.526 2.041 1.797 2.041a1.542 1.542 0 001.497-1.243h.65c-.32 1.243-1.096 1.812-2.344 1.812-1.549 0-2.271-1.336-2.271-2.755 0-1.419.774-2.755 2.312-2.755 1.735 0 2.364 1.275 2.364 2.9h-4.005zm3.335-.57c-.073-1.004-.609-1.76-1.684-1.76-1.01 0-1.548.85-1.631 1.76h3.315zM43.131 56.06h-.618v-4.03c0-.405-.032-.818-.051-1.17h.64l.03.765h.02a1.335 1.335 0 011.167-.921c.207 0 .414 0 .62.01v.593c-.124-.01-.26-.042-.382-.042-.92 0-1.404.664-1.426 1.659v3.136zM46.269 50.86l1.745 4.35 1.735-4.35h.67l-2.858 7.188h-.681l.783-1.988-2.146-5.2h.752zM56.324 52.455c-.051-.79-.557-1.186-1.414-1.186-.95 0-1.539.989-1.539 2.174 0 1.186.591 2.196 1.539 2.196.805 0 1.363-.498 1.414-1.211h.672c-.166 1.186-.847 1.779-2.023 1.779-1.55 0-2.271-1.337-2.271-2.756 0-1.419.774-2.755 2.31-2.755 1.064 0 1.932.642 1.984 1.751l-.672.008zM58.479 51.647h.021a1.777 1.777 0 011.621-.943c1.692 0 1.826 1.502 1.826 2.103v3.253h-.618V52.7c0-.9-.516-1.429-1.363-1.429-1.022 0-1.487.86-1.487 1.793v2.994h-.619v-7.477h.619v3.066zM63.669 49.358h-.723v-.777h.723v.777zm-.051 1.502v5.2h-.619v-5.2h.618zM65.447 56.06h-.62v-7.479h.62v7.48zM70.322 55.293l-.02-.041a2.11 2.11 0 01-1.772.962c-1.538 0-2.125-1.47-2.125-2.767 0-1.348.59-2.735 2.125-2.735a2.07 2.07 0 011.772.943l.02-.022v-3.044h.62v6.307c0 .405.03.818.052 1.172h-.64l-.032-.767v-.008zm-1.692-4.02c-1.181 0-1.56 1.1-1.56 2.093 0 .963.28 2.28 1.468 2.28 1.35 0 1.772-1.13 1.772-2.311 0-1.056-.464-2.062-1.672-2.062h-.008zM13.567 45.158v-.314h57.378v.314H13.567zM63.57 26.958a5.4 5.4 0 00-3.005.918 5.427 5.427 0 00-1.992 2.438 5.449 5.449 0 001.176 5.918 5.406 5.406 0 005.898 1.175 5.417 5.417 0 002.428-2 5.445 5.445 0 00-.675-6.856 5.409 5.409 0 00-3.826-1.593h-.003zm4.221 2.402c-.278.188-.569.357-.87.506-.18-.36-.396-.7-.646-1.016.221-.134.432-.286.63-.453.334.283.632.606.886.963zm-2.276-1.803c.433.178.841.412 1.213.698a4.857 4.857 0 01-.591.423 5.702 5.702 0 00-.89-.826c.099-.091.19-.19.273-.295h-.005zm.42 1.234c-.291.157-.597.285-.913.381a8.14 8.14 0 00-.45-.885c.174-.077.34-.174.493-.289.318.231.609.496.87.79v.003zm-.641-1.317c-.073.089-.153.17-.24.245a5.482 5.482 0 00-.906-.502c.39.04.775.127 1.146.257zm-.423.395c-.13.093-.268.17-.414.234a7.895 7.895 0 00-.522-.732c.328.136.642.303.938.498h-.002zm-1.182-.458c.202.244.388.5.56.767-.182.057-.37.09-.56.099v-.866zm0 1.091a2.58 2.58 0 00.681-.127c.166.279.314.567.443.864a4.905 4.905 0 01-1.124.156v-.897.004zm-.225-1.081v.856a2.273 2.273 0 01-.551-.1c.17-.262.354-.514.551-.756zm-.78.682a2.183 2.183 0 01-.415-.234 5.34 5.34 0 01.933-.494 7.59 7.59 0 00-.518.728zm.311-.884c-.32.14-.625.31-.913.506a2.528 2.528 0 01-.239-.245 5.1 5.1 0 011.152-.26zm3.71 9.323c-.722-.395-.735-.947-.696-1.148.04-.202.18-.117.268-.117.472 0 .97-.14 1.576-.769.69-.707.91-2.28-.154-3.308-1.144-1.105-2.364-.911-3.151.083a1.193 1.193 0 01-.893.34c-.504-.018-.187.38-.187.462 0 .083-.077.143-.122.129-.17-.05-.102.197-.102.282a.115.115 0 01-.107.115c-.212 0-.153.198-.148.245a.199.199 0 01-.082.178.457.457 0 00-.148.334c0 .231.21.395.563.654a.84.84 0 01.394.692c-.002.224.033.447.103.66.094.231.082.654-.404.674-.591.024-1.647.5-1.735.532-.361.127-.75.153-1.125.075a5.541 5.541 0 01-.53-.431.819.819 0 01.172-.67.922.922 0 00.657.198c.367-.028.732-.081 1.092-.16a.293.293 0 01.236 0c.311.112.735.146.908-.45.173-.594-.236-.428-.288-.394-.05.033-.122.017-.096-.032.077-.152-.038-.136-.103-.142a.77.77 0 00-.453.223.153.153 0 01-.165.046c-.22-.111-.877.049-1.08-.309a12.33 12.33 0 00-.261-1.794.244.244 0 01.025-.236c.166-.253.627.018.875.012a.447.447 0 00.43-.233c.076-.099.135-.044.176-.071.042-.028 0-.107.024-.145.024-.037.041-.02.09-.063.05-.043 0-.142.02-.18.075-.112.276-.023.154-.314a.471.471 0 01.116-.449c.144-.197.703-.976-.282-1.796-.939-.78-1.89-.718-2.505-.052-.614.667-.305 1.643-.242 1.9a.541.541 0 01-.331.593 4.693 4.693 0 00-.841.593c.02-1.02.34-2.011.917-2.85a5.174 5.174 0 012.335-1.866c.084.105.175.203.274.294-.217.159-.688.582-.688.582s.065.01.124.025l.13.036s.416-.354.61-.496c.153.116.318.214.493.29-.094.16-.33.607-.33.607l.104.065c.028.02.055.04.08.061 0 0 .259-.486.355-.65.218.073.444.115.674.125v.895c-.128 0-.455-.018-.591-.032h-.083l.045.07c.033.048.062.098.087.15l.01.018h.022c.096 0 .394.02.506.021v1.629h.224v-.403c.331-.016.605-.038.938-.067h.014l.291-.257-.16.014c-.35.045-.657.067-.937.082h-.146V29.61c.41-.009.819-.066 1.216-.17.108.269.313.92.313.92l.212-.066s-.197-.649-.313-.917c.337-.106.662-.244.971-.414.25.305.465.637.642.989-.16.075-.45.178-.45.178.138.015.275.043.41.083l.135-.06.061.14.291.131-.033-.08s-.096-.232-.12-.285c.312-.155.613-.33.902-.524a5.219 5.219 0 01-1.205 6.992l.021.016zM57.667 28.404l-.084.075c-.317.28-1.042 1.026-.93 1.842l.01.057.037.162.1-.093c.444-.407.779-1.099.915-1.895l.037-.225-.085.077zM56.194 29.813l-.035.099c-.095.26-.161.53-.197.804-.07.54-.053 1.303.413 1.872l.052.067.055.07.069-.347c.076-.612-.026-1.895-.248-2.468l-.08-.198-.035.097.006.004zM55.657 32.02v.101c-.04.548-.012 1.904 1.08 2.621l.13.085v-.154c-.017-.514-.616-2.05-1.065-2.6l-.126-.153v.1h-.02zM55.846 34.444l.017.093c.162.778.897 2.037 2.033 2.403l.154.051-.055-.154c-.213-.583-1.306-1.939-2.011-2.385l-.158-.101.02.093zM58.126 29.576l-.088.055c-.847.516-1.243 1.144-1.211 1.92v.175l.122-.103c.457-.38 1.03-1.35 1.2-1.901l.06-.198-.09.056.007-.004zM57.63 31.266l-.065.059c-.217.198-.916.954-.857 1.88.013.154.045.307.097.454l.049.148.09-.126c.335-.475.788-1.722.755-2.3v-.177l-.063.062h-.006zM57.618 32.947a2.747 2.747 0 00-.522 1.566c.012.376.134.74.349 1.047l.073.111.063-.118c.151-.287.274-1.222.256-1.96 0-.21-.027-.42-.077-.624l-.047-.164-.095.142zM58.075 34.594l-.022.073c-.102.32-.152.653-.147.988a1.955 1.955 0 00.943 1.668l.103.066.021-.139v-.11c-.015-.584-.449-2.054-.788-2.503l-.094-.122-.024.073.008.006zM56.884 36.87l.043.074c.457.767 1.229 1.755 2.675 1.5l.12-.02-.07-.102c-.269-.396-2.022-1.396-2.642-1.499l-.17-.027.044.075zM59.023 38.816l-.229.06.219.09c.918.377 2.07.49 2.74.265.226-.087.429-.227.59-.407 1.182.122 2.277 1.102 2.92 1.905l.035.04.05-.016a.77.77 0 00.23-.163l.043-.049-.04-.053a5.803 5.803 0 00-1.772-1.445c-.944-.463-2.61-.822-4.792-.227h.006zM59.07 36.363l.014.077c.138.87.488 2.01 1.952 1.884h.092l-.023-.091c-.099-.396-1.438-1.544-1.907-1.866l-.14-.073.012.077v-.008zM69.409 28.327l.039.225c.136.79.469 1.488.914 1.895l.1.093.036-.162c0-.002.01-.053.012-.057.11-.817-.615-1.562-.932-1.842l-.085-.075-.084-.077zM70.931 29.716l-.077.198c-.224.573-.327 1.856-.25 2.468l.071.346.053-.069.051-.067c.467-.57.483-1.332.414-1.872a3.92 3.92 0 00-.197-.804l-.037-.1-.036-.096.008-.004zM71.498 31.92l-.128.154c-.447.55-1.046 2.085-1.065 2.599v.154l.128-.085c1.093-.717 1.12-2.073 1.083-2.62v-.202h-.018zM71.335 34.35l-.158.102c-.703.446-1.798 1.802-2.01 2.385l-.058.154.158-.051c1.134-.366 1.87-1.625 2.03-2.403l.02-.093.018-.093zM68.987 29.487l.06.197c.157.556.71 1.536 1.16 1.925l.121.107.01-.178c.046-.773-.338-1.409-1.182-1.942l-.088-.058-.08-.051zM69.468 31.21v.176c-.024.58.42 1.826.754 2.3l.09.127.05-.148c.052-.146.085-.3.096-.455.061-.925-.64-1.672-.856-1.88l-.063-.058-.065-.062h-.006zM69.45 32.805l-.05.164c-.05.205-.075.414-.074.625-.018.737.102 1.672.254 1.959l.063.118.075-.11c.214-.309.334-.673.346-1.048a2.732 2.732 0 00-.521-1.566l-.046-.07-.047-.072zM69.062 34.52l-.095.123c-.338.449-.772 1.92-.787 2.502v.111l.023.139.103-.066a1.946 1.946 0 00.941-1.668 2.988 2.988 0 00-.148-.988l-.023-.073-.022-.073.008-.006zM70.32 36.8l-.167.027c-.62.103-2.375 1.097-2.645 1.498l-.067.103.12.02c1.446.255 2.218-.733 2.673-1.5l.043-.073.043-.075z" fill="#fff"/><path d="M63.346 39.043a5.805 5.805 0 00-1.763 1.445l-.041.053.045.05a.748.748 0 00.23.162l.05.015.033-.04c.642-.802 1.743-1.778 2.92-1.904.161.18.364.32.59.407.668.225 1.82.112 2.74-.265l.217-.09-.227-.06c-2.184-.593-3.85-.236-4.794.227zM68.103 36.286l-.14.073c-.469.322-1.808 1.47-1.907 1.866l-.023.09h.092c1.464.127 1.816-1.013 1.954-1.883l.024-.154v.008zM30.697 27.343h1.85v1.691h-1.85v-1.691zm.145 11.858v-8.246h1.554v8.238l-1.554.008zM19.111 30.961h1.554v8.24h-1.51v-1.215h-.034c-.62 1.033-1.668 1.46-2.815 1.46-1.715 0-2.698-1.314-2.698-2.964v-5.52h1.556v4.875c0 1.427.327 2.479 1.814 2.479.638 0 1.505-.328 1.832-1.186a6.143 6.143 0 00.31-1.937v-4.232h-.009zM23.767 32.177h.034c.524-1.034 1.668-1.46 2.485-1.46.574 0 3.108.146 3.108 2.79v5.694h-1.552v-5.186c0-1.362-.573-2.101-1.883-2.101a2.13 2.13 0 00-1.504.607c-.229.23-.654.593-.654 2.2v4.48h-1.554v-8.24h1.52v1.216zM38.904 33.604c-.083-1.028-.57-1.743-1.674-1.743-1.477 0-2.049 1.286-2.049 3.211 0 1.925.572 3.214 2.049 3.214 1.022 0 1.656-.666 1.737-1.844h1.546c-.132 1.844-1.497 2.965-3.301 2.965-2.616 0-3.656-1.858-3.656-4.273 0-2.416 1.202-4.404 3.788-4.404 1.724 0 3.021 1.093 3.1 2.87l-1.54.004zM42.833 35.365c-.114 1.437.471 2.921 2.047 2.921 1.203 0 1.804-.472 1.981-1.666h1.627c-.244 1.862-1.674 2.79-3.624 2.79-2.616 0-3.657-1.857-3.657-4.272 0-2.416 1.203-4.404 3.787-4.404 2.437.051 3.59 1.597 3.59 3.866v.765h-5.75zm4.127-1.075c.033-1.368-.591-2.43-2.08-2.43-1.286 0-2.047 1.09-2.047 2.43h4.127zM50.334 39.172v-7.116h-1.405v-1.079h1.405v-1.759c.05-1.794 1.396-2.267 2.55-2.267.373.022.744.076 1.108.162V28.4c-.262-.014-.52-.05-.788-.05-.877 0-1.38.232-1.332 1.127v1.5h1.885v1.08h-1.885v7.115h-1.538z" fill="#fff"/></svg>