<svg width="210" height="27" viewBox="0 0 210 27" fill="none" xmlns="http://www.w3.org/2000/svg"><path d="M6.017 26.5c-.296 0-.456-.136-.481-.407L.616 1.081.577.933C.578.711.714.6.985.6h3.552c.296 0 .456.136.481.407l2.59 15.429c.025.074.062.111.111.111.05 0 .086-.037.111-.111l2.331-15.429c.025-.271.185-.407.481-.407h2.96c.296 0 .456.136.481.407L16.6 16.436c.025.074.062.111.111.111.05 0 .086-.037.111-.111l2.331-15.429c.025-.271.185-.407.481-.407h3.441c.32 0 .456.16.407.481l-4.699 25.012c-.025.271-.185.407-.48.407h-3.146c-.296 0-.456-.136-.48-.407l-2.48-15.725c-.025-.099-.062-.148-.11-.148-.05 0-.087.05-.112.148L9.68 26.093c-.025.271-.185.407-.481.407H6.017zm28.365 0c-.295 0-.456-.136-.48-.407l-.703-3.885c0-.123-.075-.185-.222-.185h-5.402c-.148 0-.223.062-.223.185l-.703 3.885c-.024.271-.184.407-.48.407h-3.367c-.346 0-.482-.16-.407-.481L27.87 1.007c.049-.271.21-.407.48-.407h3.922c.272 0 .432.136.481.407l5.477 25.012v.148c0 .222-.136.333-.407.333h-3.441zm-6.363-8.029c-.025.123.037.185.184.185h4.107c.148 0 .21-.062.185-.185L30.35 6.779c-.025-.074-.062-.111-.112-.111-.049 0-.086.037-.11.111l-2.11 11.692zM50.998 26.5c-.247 0-.407-.123-.481-.37L47.37 15.511c-.049-.099-.11-.148-.184-.148h-1.962c-.123 0-.184.062-.184.185v10.508a.46.46 0 01-.148.333.4.4 0 01-.297.111h-3.403a.541.541 0 01-.334-.111.541.541 0 01-.11-.333V1.044a.4.4 0 01.11-.296.46.46 0 01.334-.148h6.956c1.307 0 2.454.32 3.44.962 1.012.617 1.789 1.505 2.331 2.664.568 1.135.852 2.442.852 3.922 0 1.53-.297 2.849-.889 3.959-.592 1.11-1.418 1.949-2.479 2.516-.098.025-.135.099-.11.222l3.626 11.137c.024.05.036.111.036.185 0 .222-.135.333-.407.333h-3.551zM45.225 4.3c-.123 0-.184.062-.184.185v7.363c0 .123.061.185.184.185h2.258c.888 0 1.603-.345 2.146-1.036.567-.69.85-1.628.85-2.812s-.283-2.121-.85-2.812C49.086 4.658 48.37 4.3 47.483 4.3h-2.258zm20.43 22.2a.541.541 0 01-.334-.111.541.541 0 01-.11-.333V1.044a.4.4 0 01.11-.296.46.46 0 01.333-.148h3.404c.124 0 .222.05.296.148a.352.352 0 01.148.296v25.012a.46.46 0 01-.148.333.4.4 0 01-.296.111h-3.404zM83.992 1.044a.4.4 0 01.11-.296.46.46 0 01.334-.148h3.367c.123 0 .222.05.296.148a.352.352 0 01.148.296v25.012a.46.46 0 01-.148.333.4.4 0 01-.296.111h-3.885c-.247 0-.407-.123-.481-.37l-5.513-15.688c-.025-.074-.074-.099-.148-.074-.05 0-.074.037-.074.111l.037 15.577a.46.46 0 01-.148.333.4.4 0 01-.296.111h-3.367a.541.541 0 01-.333-.111.541.541 0 01-.111-.333V1.044a.4.4 0 01.11-.296A.46.46 0 0173.93.6h3.81c.248 0 .408.123.482.37l5.55 15.577c.025.074.061.111.11.111.075-.025.112-.074.112-.148V1.044zm22.497 25.752c-2.121 0-3.823-.678-5.106-2.035-1.258-1.381-1.887-3.194-1.887-5.439V1.044a.4.4 0 01.111-.296.46.46 0 01.333-.148h3.404c.123 0 .222.05.296.148a.35.35 0 01.148.296v18.722c0 .987.247 1.788.74 2.405.493.617 1.147.925 1.961.925.814 0 1.468-.308 1.961-.925.493-.617.74-1.418.74-2.405V1.044a.4.4 0 01.111-.296.461.461 0 01.333-.148h3.404c.123 0 .222.05.296.148a.35.35 0 01.148.296v18.278c0 2.245-.641 4.058-1.924 5.439-1.283 1.357-2.972 2.035-5.069 2.035zm11.268-.296a.543.543 0 01-.333-.111.541.541 0 01-.111-.333V1.044a.4.4 0 01.111-.296.461.461 0 01.333-.148h3.404c.123 0 .222.05.296.148a.35.35 0 01.148.296v10.212c0 .099.025.16.074.185.049 0 .099-.037.148-.111l5.55-10.397a.597.597 0 01.555-.333h3.663c.173 0 .284.05.333.148.049.099.037.222-.037.37l-5.55 10.397a.993.993 0 00-.037.222l5.994 14.245a.51.51 0 01.037.222c0 .197-.123.296-.37.296h-3.663c-.271 0-.444-.111-.518-.333l-4.366-10.693c-.025-.074-.062-.099-.111-.074-.049 0-.099.025-.148.074l-1.48 2.479a.574.574 0 00-.074.222v7.881a.459.459 0 01-.148.333.4.4 0 01-.296.111h-3.404zm27.438 0c-.247 0-.407-.123-.481-.37l-3.145-10.619c-.05-.099-.111-.148-.185-.148h-1.961c-.124 0-.185.062-.185.185v10.508c0 .123-.05.234-.148.333a.4.4 0 01-.296.111h-3.404a.538.538 0 01-.333-.111.541.541 0 01-.111-.333V1.044a.4.4 0 01.111-.296.458.458 0 01.333-.148h6.956c1.307 0 2.454.32 3.441.962 1.011.617 1.788 1.505 2.331 2.664.567 1.135.851 2.442.851 3.922 0 1.53-.296 2.849-.888 3.959-.592 1.11-1.419 1.949-2.479 2.516-.099.025-.136.099-.111.222l3.626 11.137c.024.05.037.111.037.185 0 .222-.136.333-.407.333h-3.552zm-5.772-22.2c-.124 0-.185.062-.185.185v7.363c0 .123.061.185.185.185h2.257c.888 0 1.603-.345 2.146-1.036.567-.69.851-1.628.851-2.812s-.284-2.121-.851-2.812c-.543-.715-1.258-1.073-2.146-1.073h-2.257zm23.374 22.2c-.296 0-.456-.136-.481-.407l-.703-3.885c0-.123-.074-.185-.222-.185h-5.402c-.148 0-.222.062-.222.185l-.703 3.885c-.024.271-.185.407-.481.407h-3.367c-.345 0-.481-.16-.407-.481l5.476-25.012c.05-.271.21-.407.481-.407h3.922c.272 0 .432.136.481.407l5.476 25.012v.148c0 .222-.135.333-.407.333h-3.441zm-6.364-8.029c-.024.123.037.185.185.185h4.107c.148 0 .21-.062.185-.185l-2.146-11.692c-.024-.074-.061-.111-.111-.111-.049 0-.086.037-.111.111l-2.109 11.692zm13.175 8.029a.538.538 0 01-.333-.111.541.541 0 01-.111-.333V1.044a.4.4 0 01.111-.296.458.458 0 01.333-.148h3.404c.123 0 .222.05.296.148a.353.353 0 01.148.296v25.012c0 .123-.05.234-.148.333a.4.4 0 01-.296.111h-3.404zm18.338-25.456a.4.4 0 01.111-.296.461.461 0 01.333-.148h3.367c.123 0 .222.05.296.148a.35.35 0 01.148.296v25.012a.459.459 0 01-.148.333.4.4 0 01-.296.111h-3.885c-.247 0-.407-.123-.481-.37l-5.513-15.688c-.025-.074-.074-.099-.148-.074-.049 0-.074.037-.074.111l.037 15.577a.459.459 0 01-.148.333.4.4 0 01-.296.111h-3.367a.543.543 0 01-.333-.111.541.541 0 01-.111-.333V1.044a.4.4 0 01.111-.296.461.461 0 01.333-.148h3.811c.247 0 .407.123.481.37l5.55 15.577c.025.074.062.111.111.111.074-.025.111-.074.111-.148V1.044zm21.158 2.812a.459.459 0 01-.148.333.4.4 0 01-.296.111h-7.992c-.123 0-.185.062-.185.185v6.993c0 .123.062.185.185.185h4.736c.123 0 .222.05.296.148a.35.35 0 01.148.296v2.849a.459.459 0 01-.148.333.4.4 0 01-.296.111h-4.736c-.123 0-.185.062-.185.185v7.03c0 .123.062.185.185.185h7.992c.123 0 .222.05.296.148a.35.35 0 01.148.296v2.812a.459.459 0 01-.148.333.4.4 0 01-.296.111h-12.025a.543.543 0 01-.333-.111.541.541 0 01-.111-.333V1.044a.4.4 0 01.111-.296.461.461 0 01.333-.148h12.025c.123 0 .222.05.296.148a.35.35 0 01.148.296v2.812z" fill="#fff"/></svg>