<svg width="110" height="21" viewBox="0 0 110 21" fill="none" xmlns="http://www.w3.org/2000/svg"><path fill="#EE3224" d="M0 .5h110v20H0z"/><path d="M8.824 16.628c-.917 0-1.653-.293-2.208-.88-.544-.597-.816-1.381-.816-2.352V5.492c0-.053.016-.096.048-.128a.199.199 0 01.144-.064h1.472c.053 0 .096.021.128.064a.152.152 0 01.064.128v8.096c0 .427.107.773.32 1.04.213.267.496.4.848.4s.635-.133.848-.4c.213-.267.32-.613.32-1.04V5.492c0-.053.016-.096.048-.128a.2.2 0 01.144-.064h1.472c.053 0 .096.021.128.064a.152.152 0 01.064.128v7.904c0 .97-.277 1.755-.832 2.352-.555.587-1.285.88-2.192.88zm9.833-.128c-.107 0-.176-.053-.208-.16l-1.36-4.592c-.022-.043-.048-.064-.08-.064h-.848c-.054 0-.08.027-.08.08v4.544a.199.199 0 01-.064.144.173.173 0 01-.128.048h-1.472a.234.234 0 01-.144-.048.234.234 0 01-.048-.144V5.492c0-.053.016-.096.048-.128a.2.2 0 01.144-.064h3.008c.565 0 1.061.139 1.488.416a2.6 2.6 0 011.008 1.152c.245.49.368 1.056.368 1.696 0 .661-.128 1.232-.384 1.712s-.614.843-1.072 1.088c-.043.01-.059.043-.048.096l1.568 4.816c.01.021.016.048.016.08 0 .096-.059.144-.176.144h-1.536zM16.16 6.9c-.054 0-.08.027-.08.08v3.184c0 .053.026.08.08.08h.976c.384 0 .693-.15.928-.448.245-.299.368-.704.368-1.216s-.123-.917-.368-1.216a1.11 1.11 0 00-.928-.464h-.976zm8.975 9.728c-.907 0-1.638-.261-2.192-.784-.544-.533-.816-1.237-.816-2.112V8.068c0-.875.272-1.573.816-2.096.554-.533 1.285-.8 2.192-.8.906 0 1.637.267 2.192.8.565.523.848 1.227.848 2.112v.624a.199.199 0 01-.064.144.173.173 0 01-.128.048h-1.472a.234.234 0 01-.144-.048.234.234 0 01-.048-.144v-.656c0-.384-.112-.693-.336-.928-.214-.235-.496-.352-.848-.352s-.635.117-.848.352c-.214.235-.32.544-.32.928v5.696c0 .384.106.693.32.928.213.235.496.352.848.352s.634-.117.848-.352c.224-.235.336-.544.336-.928v-1.536c0-.053-.027-.08-.08-.08h-.976a.234.234 0 01-.144-.048.234.234 0 01-.048-.144v-1.168c0-.053.016-.096.048-.128a.199.199 0 01.144-.064h2.72c.053 0 .096.021.128.064a.152.152 0 01.064.128v2.96c0 .875-.283 1.579-.848 2.112-.555.523-1.286.784-2.192.784zm10.878-9.92a.2.2 0 01-.064.144.173.173 0 01-.128.048h-3.456c-.053 0-.08.027-.08.08v3.024c0 .053.027.08.08.08h2.048c.054 0 .096.021.128.064a.152.152 0 01.064.128v1.232a.2.2 0 01-.064.144.173.173 0 01-.128.048h-2.048c-.053 0-.08.027-.08.08v3.04c0 .053.027.08.08.08h3.456c.054 0 .096.021.128.064a.152.152 0 01.064.128v1.216a.2.2 0 01-.064.144.173.173 0 01-.128.048h-5.2a.234.234 0 01-.144-.048.234.234 0 01-.048-.144V5.492c0-.053.016-.096.048-.128a.2.2 0 01.144-.064h5.2c.054 0 .096.021.128.064a.152.152 0 01.064.128v1.216zm6.633-1.216c0-.053.016-.096.048-.128a.199.199 0 01.144-.064h1.456c.054 0 .096.021.128.064a.152.152 0 01.064.128v10.816a.2.2 0 01-.064.144.173.173 0 01-.128.048h-1.68c-.106 0-.176-.053-.208-.16l-2.384-6.784c-.01-.032-.032-.043-.064-.032-.021 0-.032.016-.032.048l.016 6.736a.2.2 0 01-.064.144.173.173 0 01-.128.048h-1.456a.234.234 0 01-.144-.048.234.234 0 01-.048-.144V5.492c0-.053.016-.096.048-.128a.199.199 0 01.144-.064h1.648c.107 0 .176.053.208.16l2.4 6.736c.011.032.027.048.048.048.032-.01.048-.032.048-.064V5.492zm10.03-.192c.053 0 .096.021.128.064a.152.152 0 01.064.128v1.216a.199.199 0 01-.064.144.173.173 0 01-.128.048h-2.032c-.054 0-.08.027-.08.08v9.328a.199.199 0 01-.064.144.173.173 0 01-.128.048H48.9a.234.234 0 01-.144-.048.234.234 0 01-.048-.144V6.98c0-.053-.027-.08-.08-.08h-1.92a.234.234 0 01-.144-.048.234.234 0 01-.048-.144V5.492c0-.053.016-.096.048-.128a.2.2 0 01.144-.064h5.968zm10.677 11.2c-.128 0-.197-.059-.208-.176l-.304-1.68c0-.053-.032-.08-.096-.08H60.41c-.064 0-.096.027-.096.08l-.304 1.68c-.01.117-.08.176-.208.176h-1.456c-.15 0-.208-.07-.176-.208l2.368-10.816c.022-.117.09-.176.208-.176h1.696c.118 0 .187.059.208.176l2.368 10.816v.064c0 .096-.058.144-.176.144h-1.488zm-2.752-3.472c-.01.053.016.08.08.08h1.776c.064 0 .09-.027.08-.08l-.928-5.056c-.01-.032-.026-.048-.048-.048-.021 0-.037.016-.048.048l-.912 5.056zm9.41-7.744c.564 0 1.06.139 1.487.416.438.277.773.667 1.008 1.168.245.501.368 1.072.368 1.712 0 .96-.256 1.733-.768 2.32-.501.587-1.168.88-2 .88h-1.36c-.053 0-.08.027-.08.08v4.448a.199.199 0 01-.064.144.173.173 0 01-.128.048h-1.472a.234.234 0 01-.144-.048.234.234 0 01-.048-.144V5.476c0-.053.016-.096.048-.128a.2.2 0 01.144-.064h3.008zm-.305 5.04c.395 0 .71-.15.944-.448.246-.31.368-.725.368-1.248 0-.533-.123-.955-.368-1.264-.234-.32-.55-.48-.944-.48h-.96c-.053 0-.08.027-.08.08v3.28c0 .053.027.08.08.08h.96zm8.337-5.04c.565 0 1.061.139 1.488.416.437.277.773.667 1.008 1.168.245.501.368 1.072.368 1.712 0 .96-.256 1.733-.768 2.32-.502.587-1.168.88-2 .88h-1.36c-.054 0-.08.027-.08.08v4.448a.199.199 0 01-.064.144.173.173 0 01-.128.048h-1.472a.234.234 0 01-.144-.048.234.234 0 01-.048-.144V5.476c0-.053.016-.096.048-.128a.2.2 0 01.144-.064h3.008zm-.304 5.04c.394 0 .709-.15.944-.448.245-.31.368-.725.368-1.248 0-.533-.123-.955-.368-1.264-.235-.32-.55-.48-.944-.48h-.96c-.054 0-.08.027-.08.08v3.28c0 .053.026.08.08.08h.96zm10.736-3.616a.199.199 0 01-.064.144.173.173 0 01-.128.048h-3.456c-.053 0-.08.027-.08.08v3.024c0 .053.027.08.08.08h2.048c.053 0 .096.021.128.064a.152.152 0 01.064.128v1.232a.199.199 0 01-.064.144.173.173 0 01-.128.048h-2.048c-.053 0-.08.027-.08.08v3.04c0 .053.027.08.08.08h3.456c.053 0 .096.021.128.064a.152.152 0 01.064.128v1.216a.199.199 0 01-.064.144.173.173 0 01-.128.048h-5.2a.234.234 0 01-.144-.048.234.234 0 01-.048-.144V5.492c0-.053.016-.096.048-.128a.2.2 0 01.144-.064h5.2c.053 0 .096.021.128.064a.152.152 0 01.064.128v1.216zm6.93 9.792c-.128 0-.197-.059-.208-.176l-.304-1.68c0-.053-.032-.08-.096-.08h-2.336c-.064 0-.096.027-.096.08l-.304 1.68c-.01.117-.08.176-.208.176h-1.456c-.15 0-.208-.07-.176-.208L92.59 5.476c.022-.117.09-.176.208-.176h1.696c.118 0 .187.059.208.176l2.368 10.816v.064c0 .096-.058.144-.176.144h-1.488zm-2.752-3.472c-.01.053.016.08.08.08h1.776c.064 0 .09-.027.08-.08l-.928-5.056c-.01-.032-.027-.048-.048-.048s-.037.016-.048.048l-.912 5.056zm6.417 3.472a.234.234 0 01-.144-.048.234.234 0 01-.048-.144V5.492c0-.053.016-.096.048-.128a.2.2 0 01.144-.064h1.472c.053 0 .096.021.128.064a.151.151 0 01.064.128v9.328c0 .053.027.08.08.08h3.456c.053 0 .096.021.128.064a.151.151 0 01.064.128v1.216a.198.198 0 01-.064.144.174.174 0 01-.128.048h-5.2z" fill="#fff"/></svg>