<svg width="160" height="43" viewBox="0 0 160 43" fill="none" xmlns="http://www.w3.org/2000/svg"><path d="M0 21.5C0 9.626 9.626 0 21.5 0h117C150.374 0 160 9.626 160 21.5S150.374 43 138.5 43h-117C9.626 43 0 33.374 0 21.5z" fill="#1CABE2"/><path d="M26.164 16.047h4.227c.953 0 1.68.073 2.18.219a3.83 3.83 0 011.726 1.054c.479.506.844 1.125 1.094 1.86.25.729.375 1.63.375 2.703 0 .943-.118 1.755-.352 2.437-.286.834-.695 1.508-1.227 2.024-.4.39-.942.695-1.624.914-.51.161-1.193.242-2.047.242h-4.352V16.047zm2.313 1.937v7.586h1.726c.646 0 1.112-.036 1.399-.11.375-.093.684-.252.93-.476.25-.224.452-.59.609-1.101.156-.516.234-1.216.234-2.102 0-.885-.078-1.565-.234-2.039-.157-.474-.375-.844-.657-1.11-.28-.265-.638-.445-1.07-.538-.323-.073-.956-.11-1.898-.11h-1.04zm8.789 3.86c0-1.167.174-2.146.523-2.938a5.428 5.428 0 011.063-1.57 4.5 4.5 0 011.484-1.031c.714-.302 1.536-.453 2.469-.453 1.687 0 3.036.523 4.047 1.57 1.015 1.047 1.523 2.502 1.523 4.367 0 1.849-.503 3.297-1.508 4.344-1.005 1.041-2.349 1.562-4.031 1.562-1.703 0-3.057-.518-4.063-1.554-1.005-1.042-1.507-2.474-1.507-4.297zm2.382-.078c0 1.297.3 2.28.899 2.953.599.666 1.36 1 2.281 1 .922 0 1.677-.331 2.266-.992.593-.667.89-1.665.89-2.993 0-1.312-.289-2.291-.867-2.937-.573-.646-1.336-.969-2.289-.969-.953 0-1.721.328-2.305.985-.583.65-.875 1.635-.875 2.953zM50.211 27.5V16.047h2.25l4.687 7.648v-7.648h2.149V27.5h-2.32l-4.618-7.469V27.5h-2.148zm21.867 0h-2.516l-1-2.602h-4.578L63.04 27.5h-2.453l4.46-11.453h2.446L72.078 27.5zm-4.258-4.531l-1.578-4.25-1.547 4.25h3.125zm6.883 4.531v-9.516h-3.398v-1.937h9.101v1.937h-3.39V27.5h-2.313zm7.203 0V16.047h8.492v1.937h-6.18v2.54h5.75v1.93h-5.75v3.116h6.4v1.93h-8.712zm15.149 0V16.047h2.25l4.687 7.648v-7.648h2.149V27.5h-2.321l-4.617-7.469V27.5h-2.148zm11.07-5.656c0-1.167.174-2.146.523-2.938a5.442 5.442 0 011.063-1.57 4.501 4.501 0 011.484-1.031c.714-.302 1.537-.453 2.469-.453 1.688 0 3.037.523 4.047 1.57 1.016 1.047 1.523 2.502 1.523 4.367 0 1.849-.502 3.297-1.507 4.344-1.006 1.041-2.349 1.562-4.032 1.562-1.703 0-3.057-.518-4.062-1.554-1.005-1.042-1.508-2.474-1.508-4.297zm2.383-.078c0 1.297.299 2.28.898 2.953.599.666 1.36 1 2.282 1 .921 0 1.677-.331 2.265-.992.594-.667.891-1.665.891-2.993 0-1.312-.289-2.291-.867-2.937-.573-.646-1.336-.969-2.289-.969-.954 0-1.722.328-2.305.985-.584.65-.875 1.635-.875 2.953zm12.164 5.734l-2.734-11.453h2.367l1.726 7.867 2.094-7.867h2.75l2.008 8 1.758-8h2.328L132.188 27.5h-2.454l-2.281-8.563-2.273 8.563h-2.508z" fill="#fff"/></svg>