<svg width="146" height="38" viewBox="0 0 146 38" fill="none" xmlns="http://www.w3.org/2000/svg"><path d="M0 19C0 8.507 8.507 0 19 0h108c10.493 0 19 8.507 19 19s-8.507 19-19 19H19C8.507 38 0 29.493 0 19z" fill="#1CABE2"/><path d="M22.529 13.763h3.962c.894 0 1.575.068 2.044.205a3.59 3.59 0 011.618.989c.45.473.791 1.054 1.026 1.743.234.683.351 1.528.351 2.534 0 .884-.11 1.645-.33 2.285-.268.781-.651 1.414-1.15 1.897-.375.366-.883.652-1.523.857-.478.151-1.118.227-1.919.227h-4.08V13.763zm2.168 1.816v7.112h1.618c.606 0 1.043-.034 1.311-.103.352-.088.643-.236.872-.446.234-.21.425-.555.571-1.033.147-.484.22-1.14.22-1.97 0-.83-.073-1.468-.22-1.912-.146-.444-.351-.791-.615-1.04a2.063 2.063 0 00-1.003-.505c-.303-.069-.896-.103-1.78-.103h-.974zm8.24 3.618c0-1.093.163-2.011.49-2.754a5.092 5.092 0 01.996-1.472 4.219 4.219 0 011.392-.967c.669-.283 1.44-.424 2.314-.424 1.582 0 2.847.49 3.794 1.472.953.981 1.429 2.346 1.429 4.094 0 1.733-.472 3.09-1.414 4.072-.942.977-2.202 1.465-3.78 1.465-1.596 0-2.866-.486-3.808-1.457-.942-.977-1.413-2.32-1.413-4.029zm2.233-.073c0 1.216.281 2.139.843 2.769.561.625 1.274.937 2.138.937.865 0 1.573-.31 2.124-.93.557-.625.835-1.56.835-2.805 0-1.23-.27-2.149-.813-2.754-.537-.606-1.252-.908-2.146-.908-.893 0-1.613.307-2.16.922-.547.61-.82 1.534-.82 2.769zm9.903 5.376V13.763h2.11l4.394 7.17v-7.17h2.014V24.5h-2.175l-4.33-7.002V24.5h-2.013zm20.5 0h-2.358l-.938-2.439h-4.292L57.1 24.5h-2.3l4.182-10.737h2.293l4.3 10.737zm-3.991-4.248l-1.48-3.984-1.45 3.984h2.93zm6.452 4.248v-8.92h-3.186v-1.817h8.533v1.816h-3.179V24.5h-2.168zm6.753 0V13.763h7.962v1.816h-5.794v2.38h5.39v1.81h-5.39v2.922h5.999V24.5h-8.167zm14.202 0V13.763h2.11l4.394 7.17v-7.17h2.014V24.5h-2.175l-4.33-7.002V24.5H88.99zm10.378-5.303c0-1.093.164-2.011.49-2.754a5.088 5.088 0 01.997-1.472 4.221 4.221 0 011.392-.967c.669-.283 1.44-.424 2.314-.424 1.582 0 2.847.49 3.794 1.472.952.981 1.428 2.346 1.428 4.094 0 1.733-.471 3.09-1.413 4.072-.943.977-2.202 1.465-3.78 1.465-1.596 0-2.866-.486-3.808-1.457-.943-.977-1.414-2.32-1.414-4.029zm2.234-.073c0 1.216.281 2.139.842 2.769.562.625 1.275.937 2.139.937.864 0 1.572-.31 2.124-.93.557-.625.835-1.56.835-2.805 0-1.23-.271-2.149-.813-2.754-.537-.606-1.252-.908-2.146-.908-.894 0-1.614.307-2.161.922-.546.61-.82 1.534-.82 2.769zm11.404 5.376l-2.564-10.737h2.22l1.618 7.375 1.963-7.375h2.578l1.883 7.5 1.648-7.5h2.182L121.926 24.5h-2.3l-2.139-8.027-2.131 8.027h-2.351z" fill="#fff"/></svg>