<svg width="170" height="43" viewBox="0 0 170 43" fill="none" xmlns="http://www.w3.org/2000/svg"><path d="M2.411.56c.08-.04.167-.06.26-.06h1.08c.134 0 .2.067.2.2v13.6c0 .133-.066.2-.2.2h-1.02c-.133 0-.2-.067-.2-.2V2.18c0-.027-.013-.047-.04-.06-.013-.013-.033-.013-.06 0l-1.88.62-.06.02c-.093 0-.153-.06-.18-.18l-.1-.74V1.8c0-.067.047-.133.14-.2L2.411.56zm7.601 1.98c-.333 0-.606-.107-.82-.32-.2-.213-.3-.48-.3-.8 0-.333.1-.6.3-.8.214-.213.487-.32.82-.32.32 0 .58.107.78.32.214.2.32.467.32.8 0 .32-.106.587-.32.8-.2.213-.46.32-.78.32zm-.5 11.96c-.133 0-.2-.067-.2-.2V4.58c0-.133.067-.2.2-.2h1.02c.134 0 .2.067.2.2v9.72c0 .133-.066.2-.2.2h-1.02zm6.8-10.26c.814 0 1.44.28 1.88.84.454.56.68 1.34.68 2.34v6.88c0 .133-.066.2-.2.2h-1.02c-.133 0-.2-.067-.2-.2V7.54c0-.653-.146-1.16-.44-1.52-.28-.36-.673-.54-1.18-.54-.533 0-.953.193-1.26.58-.293.387-.44.913-.44 1.58v6.66c0 .133-.066.2-.2.2h-1.02c-.133 0-.2-.067-.2-.2V4.58c0-.133.067-.2.2-.2h1.02c.134 0 .2.067.2.2v.64c0 .027.014.047.04.06.027.013.047 0 .06-.04.24-.333.54-.58.9-.74.374-.173.767-.26 1.18-.26zm8.981 8.92a.085.085 0 000 .08c.013.013.033.02.06.02h4.7c.133 0 .2.067.2.2v.84c0 .133-.067.2-.2.2h-6.28c-.133 0-.2-.067-.2-.2v-.9c0-.107.027-.193.08-.26a58.19 58.19 0 00.7-1.12c1.173-1.853 2.1-3.36 2.78-4.52.853-1.467 1.28-2.68 1.28-3.64 0-.693-.16-1.247-.48-1.66-.32-.413-.74-.62-1.26-.62-.507 0-.92.207-1.24.62-.307.4-.453.933-.44 1.6v.76c0 .133-.067.2-.2.2h-1.04c-.133 0-.2-.067-.2-.2v-.8c.027-1.027.327-1.853.9-2.48.587-.627 1.347-.94 2.28-.94.933 0 1.687.327 2.26.98.573.64.86 1.487.86 2.54 0 1.253-.473 2.667-1.42 4.24-.48.813-1.153 1.907-2.02 3.28l-1.12 1.78zm12.45 1.5c-.946 0-1.706-.28-2.28-.84-.56-.56-.84-1.3-.84-2.22V7.28c0-.907.288-1.64.86-2.2.574-.573 1.328-.86 2.26-.86.627 0 1.18.127 1.66.38s.848.593 1.1 1.02c.267.413.4.873.4 1.38v.2c0 .133-.066.2-.2.2l-1.02.04c-.133 0-.2-.067-.2-.2V7.1c0-.44-.166-.82-.5-1.14-.32-.333-.732-.5-1.24-.5-.506 0-.92.18-1.24.54-.306.347-.46.807-.46 1.38v4.12c0 .573.154 1.04.46 1.4.32.347.734.52 1.24.52.508 0 .92-.16 1.24-.48.334-.333.5-.72.5-1.16v-.14c0-.133.068-.2.2-.2l1.02.02c.134 0 .2.067.2.2v.22c0 .8-.292 1.467-.88 2-.573.52-1.333.78-2.28.78zm8.148-10.42c.813 0 1.44.28 1.88.84.453.56.68 1.34.68 2.34v6.88c0 .133-.067.2-.2.2h-1.02c-.134 0-.2-.067-.2-.2V7.54c0-.653-.147-1.16-.44-1.52-.28-.36-.674-.54-1.18-.54-.534 0-.954.193-1.26.58-.294.387-.44.913-.44 1.58v6.66c0 .133-.067.2-.2.2h-1.02c-.134 0-.2-.067-.2-.2V.7c0-.133.066-.2.2-.2h1.02c.133 0 .2.067.2.2v4.52c0 .027.013.047.04.06.026.013.046 0 .06-.04.24-.333.54-.58.9-.74a2.77 2.77 0 011.18-.26zm5.136-1.7c-.333 0-.606-.107-.82-.32-.2-.213-.3-.48-.3-.8 0-.333.1-.6.3-.8.214-.213.487-.32.82-.32.32 0 .58.107.78.32.214.2.32.467.32.8 0 .32-.106.587-.32.8-.2.213-.46.32-.78.32zm-.5 11.96c-.133 0-.2-.067-.2-.2V4.58c0-.133.067-.2.2-.2h1.02c.134 0 .2.067.2.2v9.72c0 .133-.066.2-.2.2h-1.02zm3.28 0c-.133 0-.2-.067-.2-.2V.7c0-.133.067-.2.2-.2h1.02c.134 0 .2.067.2.2v13.6c0 .133-.066.2-.2.2h-1.02zM61.341.7c0-.133.066-.2.2-.2h1.02c.133 0 .2.067.2.2v13.6c0 .133-.067.2-.2.2h-1.02c-.134 0-.2-.067-.2-.2v-.44c0-.027-.014-.047-.04-.06-.014-.013-.034-.007-.06.02-.507.56-1.147.84-1.92.84-.854 0-1.534-.28-2.04-.84-.507-.573-.76-1.313-.76-2.22V7.28c0-.933.253-1.673.76-2.22.506-.56 1.186-.84 2.04-.84.786 0 1.426.287 1.92.86.026.027.046.033.06.02.026-.013.04-.033.04-.06V.7zm-1.68 12.72c.493 0 .893-.173 1.2-.52.32-.36.48-.82.48-1.38V7.38c0-.573-.16-1.033-.48-1.38-.307-.36-.707-.54-1.2-.54-.507 0-.927.18-1.26.54-.32.347-.48.807-.48 1.38v4.14c0 .56.16 1.02.48 1.38.333.347.753.52 1.26.52zm8.357-9.14c.333 0 .62.073.86.22.093.053.126.14.1.26l-.24 1.04c-.014.12-.094.16-.24.12-.16-.08-.36-.12-.6-.12-.107 0-.187.007-.24.02-.48.027-.874.28-1.18.76-.307.467-.46 1.04-.46 1.72v6c0 .133-.067.2-.2.2h-1.02c-.134 0-.2-.067-.2-.2V4.58c0-.133.066-.2.2-.2h1.02c.133 0 .2.067.2.2v1.2c0 .04.006.06.02.06.026 0 .053-.013.08-.04.386-1.013 1.02-1.52 1.9-1.52zm7.781 5.5c0 .133-.066.2-.2.2h-4.56c-.053 0-.08.027-.08.08v1.46c0 .56.154 1.02.46 1.38.32.347.734.52 1.24.52.427 0 .787-.127 1.08-.38.307-.267.507-.607.6-1.02.04-.12.114-.18.22-.18l1 .04c.054 0 .1.02.14.06.04.04.054.093.04.16-.106.787-.433 1.413-.98 1.88-.533.453-1.233.68-2.1.68-.946 0-1.706-.28-2.28-.84-.56-.56-.84-1.3-.84-2.22V7.28c0-.907.28-1.64.84-2.2.574-.573 1.334-.86 2.28-.86.96 0 1.72.287 2.28.86.574.56.86 1.293.86 2.2v2.5zm-3.14-4.32c-.506 0-.92.18-1.24.54-.306.347-.46.807-.46 1.38v1.34c0 .053.027.08.08.08h3.28c.054 0 .08-.027.08-.08V7.38c0-.573-.16-1.033-.48-1.38-.32-.36-.74-.54-1.26-.54zm8.245-1.22c.813 0 1.44.28 1.88.84.453.56.68 1.34.68 2.34v6.88c0 .133-.067.2-.2.2h-1.02c-.133 0-.2-.067-.2-.2V7.54c0-.653-.147-1.16-.44-1.52-.28-.36-.673-.54-1.18-.54-.533 0-.953.193-1.26.58-.293.387-.44.913-.44 1.58v6.66c0 .133-.067.2-.2.2h-1.02c-.133 0-.2-.067-.2-.2V4.58c0-.133.067-.2.2-.2h1.02c.133 0 .2.067.2.2v.64c0 .027.013.047.04.06.027.013.047 0 .06-.04.24-.333.54-.58.9-.74a2.77 2.77 0 011.18-.26zm10.64-.02c.934 0 1.68.307 2.24.92.56.6.84 1.407.84 2.42v6.74c0 .133-.066.2-.2.2h-1.02c-.133 0-.2-.067-.2-.2v-.6c0-.027-.013-.04-.04-.04-.013-.013-.033-.007-.06.02-.493.653-1.233.98-2.22.98-.733 0-1.373-.207-1.92-.62-.533-.427-.8-1.173-.8-2.24 0-1.133.327-1.96.98-2.48.654-.533 1.514-.8 2.58-.8h1.4c.054 0 .08-.027.08-.08v-.78c0-.667-.153-1.2-.46-1.6-.306-.4-.72-.6-1.24-.6-.4 0-.746.133-1.04.4-.28.267-.446.607-.5 1.02 0 .133-.066.2-.2.2l-1.12-.02a.216.216 0 01-.16-.06.168.168 0 01-.02-.14c.067-.787.387-1.42.96-1.9.574-.493 1.28-.74 2.12-.74zm-.36 9.2c.547 0 1.02-.173 1.42-.52.4-.36.6-.853.6-1.48V9.74c0-.053-.026-.08-.08-.08h-1.42c-.64 0-1.146.173-1.52.52-.373.333-.56.833-.56 1.5 0 .587.14 1.027.42 1.32.294.28.674.42 1.14.42zm8.482-9.14c.334 0 .62.073.86.22.094.053.127.14.1.26l-.24 1.04c-.013.12-.093.16-.24.12-.16-.08-.36-.12-.6-.12-.107 0-.187.007-.24.02-.48.027-.873.28-1.18.76-.306.467-.46 1.04-.46 1.72v6c0 .133-.066.2-.2.2h-1.02c-.133 0-.2-.067-.2-.2V4.58c0-.133.067-.2.2-.2h1.02c.134 0 .2.067.2.2v1.2c0 .04.007.06.02.06.027 0 .053-.013.08-.04.387-1.013 1.02-1.52 1.9-1.52zm7.782 5.5c0 .133-.067.2-.2.2h-4.56c-.053 0-.08.027-.08.08v1.46c0 .56.153 1.02.46 1.38.32.347.733.52 1.24.52.427 0 .787-.127 1.08-.38.307-.267.507-.607.6-1.02.04-.12.113-.18.22-.18l1 .04c.053 0 .1.02.14.06.04.04.053.093.04.16-.107.787-.433 1.413-.98 1.88-.533.453-1.233.68-2.1.68-.947 0-1.707-.28-2.28-.84-.56-.56-.84-1.3-.84-2.22V7.28c0-.907.28-1.64.84-2.2.573-.573 1.333-.86 2.28-.86.96 0 1.72.287 2.28.86.573.56.86 1.293.86 2.2v2.5zm-3.14-4.32c-.507 0-.92.18-1.24.54-.307.347-.46.807-.46 1.38v1.34c0 .053.027.08.08.08h3.28c.053 0 .08-.027.08-.08V7.38c0-.573-.16-1.033-.48-1.38-.32-.36-.74-.54-1.26-.54zm11.468-1.18c.334 0 .62.073.86.22.094.053.127.14.1.26l-.24 1.04c-.013.12-.093.16-.24.12-.16-.08-.36-.12-.6-.12-.106 0-.186.007-.24.02-.48.027-.873.28-1.18.76-.306.467-.46 1.04-.46 1.72v6c0 .133-.066.2-.2.2h-1.02c-.133 0-.2-.067-.2-.2V4.58c0-.133.067-.2.2-.2h1.02c.134 0 .2.067.2.2v1.2c0 .04.007.06.02.06.027 0 .054-.013.08-.04.387-1.013 1.02-1.52 1.9-1.52zm7.782 5.5c0 .133-.067.2-.2.2h-4.56c-.053 0-.08.027-.08.08v1.46c0 .56.153 1.02.46 1.38.32.347.733.52 1.24.52.427 0 .787-.127 1.08-.38.307-.267.507-.607.6-1.02.04-.12.113-.18.22-.18l1 .04c.053 0 .1.02.14.06.04.04.053.093.04.16-.107.787-.433 1.413-.98 1.88-.533.453-1.233.68-2.1.68-.947 0-1.707-.28-2.28-.84-.56-.56-.84-1.3-.84-2.22V7.28c0-.907.28-1.64.84-2.2.573-.573 1.333-.86 2.28-.86.96 0 1.72.287 2.28.86.573.56.86 1.293.86 2.2v2.5zm-3.14-4.32c-.507 0-.92.18-1.24.54-.307.347-.46.807-.46 1.38v1.34c0 .053.027.08.08.08h3.28c.053 0 .08-.027.08-.08V7.38c0-.573-.16-1.033-.48-1.38-.32-.36-.74-.54-1.26-.54zm7.786-3.88c-.506 0-.866.173-1.08.52-.213.333-.32.86-.32 1.58v.62c0 .053.027.08.08.08h1.54c.134 0 .2.067.2.2v.66c0 .133-.066.2-.2.2h-1.54c-.053 0-.08.027-.08.08v8.78c0 .133-.066.2-.2.2h-1c-.133 0-.2-.067-.2-.2V5.52c0-.053-.026-.08-.08-.08h-.8c-.133 0-.2-.067-.2-.2v-.66c0-.133.067-.2.2-.2h.8c.054 0 .08-.027.08-.08v-.64c0-1.16.214-2 .64-2.52.427-.52 1.14-.78 2.14-.78h.28c.134 0 .2.067.2.2l-.02.82c0 .133-.066.2-.2.2h-.24zm6.347 3c0-.133.067-.2.2-.2h1.02c.134 0 .2.067.2.2v9.72c0 .133-.066.2-.2.2h-1.02c-.133 0-.2-.067-.2-.2v-.68c0-.04-.013-.06-.04-.06-.013 0-.033.013-.06.04-.413.693-1.08 1.04-2 1.04-.8 0-1.44-.24-1.92-.72-.466-.493-.7-1.233-.7-2.22V4.58c0-.133.067-.2.2-.2h1.02c.134 0 .2.067.2.2v6.8c0 .667.134 1.173.4 1.52.28.333.68.5 1.2.5.534 0 .947-.193 1.24-.58.307-.387.46-.913.46-1.58V4.58zm7.857 0c0-.133.067-.2.2-.2h1.02c.133 0 .2.067.2.2v9.72c0 1.427-.333 2.507-1 3.24-.653.747-1.753 1.087-3.3 1.02-.133-.013-.2-.087-.2-.22v-.86c0-.133.067-.2.2-.2 1.067.027 1.813-.22 2.24-.74.427-.507.64-1.293.64-2.36v-.6c0-.027-.013-.047-.04-.06-.013-.013-.033-.007-.06.02-.227.333-.52.587-.88.76-.347.173-.72.26-1.12.26-.84 0-1.507-.28-2-.84-.48-.56-.72-1.3-.72-2.22V7.28c0-.933.24-1.673.72-2.22.493-.56 1.16-.84 2-.84.4 0 .773.087 1.12.26.36.16.653.407.88.74.027.04.047.06.06.06.027-.013.04-.04.04-.08v-.62zm-1.68 8.74c.493 0 .893-.173 1.2-.52.32-.36.48-.82.48-1.38V7.38c0-.573-.16-1.033-.48-1.38-.307-.36-.707-.54-1.2-.54-.507 0-.92.18-1.24.54-.32.347-.48.807-.48 1.38v4.04c0 .56.16 1.02.48 1.38.32.347.733.52 1.24.52zm10.782-3.54c0 .133-.067.2-.2.2h-4.56c-.054 0-.08.027-.08.08v1.46c0 .56.153 1.02.46 1.38.32.347.733.52 1.24.52.426 0 .786-.127 1.08-.38.306-.267.506-.607.6-1.02.04-.12.113-.18.22-.18l1 .04c.053 0 .1.02.14.06.04.04.053.093.04.16-.107.787-.434 1.413-.98 1.88-.534.453-1.234.68-2.1.68-.947 0-1.707-.28-2.28-.84-.56-.56-.84-1.3-.84-2.22V7.28c0-.907.28-1.64.84-2.2.573-.573 1.333-.86 2.28-.86.96 0 1.72.287 2.28.86.573.56.86 1.293.86 2.2v2.5zm-3.14-4.32c-.507 0-.92.18-1.24.54-.307.347-.46.807-.46 1.38v1.34c0 .053.026.08.08.08h3.28c.053 0 .08-.027.08-.08V7.38c0-.573-.16-1.033-.48-1.38-.32-.36-.74-.54-1.26-.54zm10.684 4.32c0 .133-.067.2-.2.2h-4.56c-.053 0-.08.027-.08.08v1.46c0 .56.153 1.02.46 1.38.32.347.733.52 1.24.52.427 0 .787-.127 1.08-.38.307-.267.507-.607.6-1.02.04-.12.113-.18.22-.18l1 .04c.053 0 .1.02.14.06.04.04.053.093.04.16-.107.787-.433 1.413-.98 1.88-.533.453-1.233.68-2.1.68-.947 0-1.707-.28-2.28-.84-.56-.56-.84-1.3-.84-2.22V7.28c0-.907.28-1.64.84-2.2.573-.573 1.333-.86 2.28-.86.96 0 1.72.287 2.28.86.573.56.86 1.293.86 2.2v2.5zm-3.14-4.32c-.507 0-.92.18-1.24.54-.307.347-.46.807-.46 1.38v1.34c0 .053.027.08.08.08h3.28c.053 0 .08-.027.08-.08V7.38c0-.573-.16-1.033-.48-1.38-.32-.36-.74-.54-1.26-.54zm7.246 9.14c-.92 0-1.66-.233-2.22-.7-.547-.48-.82-1.113-.82-1.9v-.14c0-.133.066-.2.2-.2h.96c.133 0 .2.067.2.2v.12c0 .427.153.787.46 1.08.32.293.733.44 1.24.44.48 0 .866-.147 1.16-.44.293-.293.44-.667.44-1.12 0-.347-.094-.633-.28-.86a2.036 2.036 0 00-.66-.56c-.24-.133-.607-.307-1.1-.52-.52-.213-.954-.42-1.3-.62a3.058 3.058 0 01-.88-.88c-.24-.387-.36-.873-.36-1.46 0-.853.26-1.527.78-2.02.533-.493 1.246-.74 2.14-.74.906 0 1.626.253 2.16.76.533.507.8 1.18.8 2.02v.06c0 .133-.067.2-.2.2h-.92c-.134 0-.2-.067-.2-.2V7c0-.453-.154-.827-.46-1.12-.294-.293-.68-.44-1.16-.44-.48 0-.867.153-1.16.46-.28.293-.42.66-.42 1.1 0 .32.086.593.26.82.173.213.386.393.64.54.253.133.606.3 1.06.5.546.24.993.467 1.34.68.36.213.673.513.94.9.266.387.4.867.4 1.44 0 .827-.274 1.487-.82 1.98-.547.493-1.287.74-2.22.74zm4.92-.14c-.333 0-.607-.107-.82-.32-.2-.213-.3-.48-.3-.8 0-.333.1-.6.3-.8.213-.213.487-.32.82-.32.32 0 .587.107.8.32.213.2.32.467.32.8 0 .32-.107.587-.32.8-.213.213-.48.32-.8.32zM21.424 25.54c0 .133-.067.2-.2.2h-4.64c-.054 0-.08.027-.08.08v4.96c0 .053.026.08.08.08h2.92c.133 0 .2.067.2.2v.86c0 .133-.067.2-.2.2h-2.92c-.054 0-.08.027-.08.08v4.98c0 .053.026.08.08.08h4.64c.133 0 .2.067.2.2v.84c0 .133-.067.2-.2.2h-5.94c-.134 0-.2-.067-.2-.2V24.7c0-.133.066-.2.2-.2h5.94c.133 0 .2.067.2.2v.84zm3.394 12.96c-.12 0-.193-.06-.22-.18l-2.48-9.72-.02-.08c0-.093.06-.14.18-.14h1.16c.12 0 .193.06.22.18l1.72 7.58c.013.04.027.06.04.06.013 0 .027-.02.04-.06l1.7-7.58c.027-.12.1-.18.22-.18l1.16.02c.067 0 .113.02.14.06.04.04.047.093.02.16l-2.46 9.7c-.013.12-.087.18-.22.18h-1.2zm10.901-4.72c0 .133-.066.2-.2.2h-4.56c-.053 0-.08.027-.08.08v1.46c0 .56.154 1.02.46 1.38.32.347.734.52 1.24.52.427 0 .787-.127 1.08-.38.307-.267.507-.607.6-1.02.04-.12.114-.18.22-.18l1 .04c.054 0 .1.02.14.06.04.04.054.093.04.16-.106.787-.433 1.413-.98 1.88-.533.453-1.233.68-2.1.68-.946 0-1.706-.28-2.28-.84-.56-.56-.84-1.3-.84-2.22v-4.32c0-.907.28-1.64.84-2.2.574-.573 1.334-.86 2.28-.86.96 0 1.72.287 2.28.86.574.56.86 1.293.86 2.2v2.5zm-3.14-4.32c-.506 0-.92.18-1.24.54-.306.347-.46.807-.46 1.38v1.34c0 .053.027.08.08.08h3.28c.054 0 .08-.027.08-.08v-1.34c0-.573-.16-1.033-.48-1.38-.32-.36-.74-.54-1.26-.54zm8.065-1.18c.333 0 .62.073.86.22.093.053.127.14.1.26l-.24 1.04c-.013.12-.093.16-.24.12-.16-.08-.36-.12-.6-.12-.107 0-.187.007-.24.02-.48.027-.873.28-1.18.76-.307.467-.46 1.04-.46 1.72v6c0 .133-.067.2-.2.2h-1.02c-.133 0-.2-.067-.2-.2v-9.72c0-.133.067-.2.2-.2h1.02c.133 0 .2.067.2.2v1.2c0 .04.007.06.02.06.027 0 .053-.013.08-.04.387-1.013 1.02-1.52 1.9-1.52zm1.734 14.22c-.027 0-.054-.02-.08-.06a.246.246 0 01-.04-.14v-.8c0-.133.066-.2.2-.2.413-.013.733-.093.96-.24.24-.147.433-.407.58-.78.146-.373.293-.947.44-1.72.013-.027.013-.047 0-.06v-.06l-2.54-9.84-.02-.06c0-.107.066-.16.2-.16h1.08c.133 0 .206.06.22.18l1.76 7.86c.013.04.026.06.04.06.013 0 .026-.02.04-.06l1.74-7.86c.026-.12.1-.18.22-.18l1.12.02c.066 0 .113.02.14.06.04.04.046.093.02.16l-2.78 10.76c-.24.893-.48 1.553-.72 1.98-.227.427-.527.72-.9.88-.374.173-.9.26-1.58.26h-.1zm15.107-17.8c0-.133.066-.2.2-.2h1.02c.133 0 .2.067.2.2v13.6c0 .133-.067.2-.2.2h-1.02c-.134 0-.2-.067-.2-.2v-.44c0-.027-.014-.047-.04-.06-.014-.013-.034-.007-.06.02-.507.56-1.147.84-1.92.84-.854 0-1.534-.28-2.04-.84-.507-.573-.76-1.313-.76-2.22v-4.32c0-.933.253-1.673.76-2.22.507-.56 1.187-.84 2.04-.84.786 0 1.426.287 1.92.86.026.027.047.033.06.02.026-.013.04-.033.04-.06V24.7zm-1.68 12.72c.493 0 .893-.173 1.2-.52.32-.36.48-.82.48-1.38v-4.14c0-.573-.16-1.033-.48-1.38-.307-.36-.707-.54-1.2-.54-.507 0-.927.18-1.26.54-.32.347-.48.807-.48 1.38v4.14c0 .56.16 1.02.48 1.38.333.347.753.52 1.26.52zm7.857 1.24c-.96 0-1.727-.28-2.3-.84-.56-.56-.84-1.3-.84-2.22v-4.3c0-.907.287-1.647.86-2.22.573-.573 1.333-.86 2.28-.86.96 0 1.726.287 2.3.86.573.573.86 1.313.86 2.22v4.3c0 .92-.287 1.66-.86 2.22-.574.56-1.34.84-2.3.84zm0-1.26c.506 0 .92-.173 1.24-.52.333-.347.5-.807.5-1.38v-4.12c0-.573-.167-1.033-.5-1.38-.32-.36-.734-.54-1.24-.54-.507 0-.92.18-1.24.54-.32.347-.48.807-.48 1.38v4.12c0 .573.16 1.033.48 1.38.32.347.733.52 1.24.52zm8.38-9.16c.814 0 1.44.28 1.88.84.454.56.68 1.34.68 2.34v6.88c0 .133-.066.2-.2.2h-1.02c-.133 0-.2-.067-.2-.2v-6.76c0-.653-.146-1.16-.44-1.52-.28-.36-.673-.54-1.18-.54-.533 0-.953.193-1.26.58-.293.387-.44.913-.44 1.58v6.66c0 .133-.066.2-.2.2h-1.02c-.133 0-.2-.067-.2-.2v-9.72c0-.133.067-.2.2-.2h1.02c.134 0 .2.067.2.2v.64c0 .027.014.047.04.06.027.013.047 0 .06-.04.24-.333.54-.58.9-.74a2.77 2.77 0 011.18-.26zm7.237-.02c.934 0 1.68.307 2.24.92.56.6.84 1.407.84 2.42v6.74c0 .133-.066.2-.2.2h-1.02c-.133 0-.2-.067-.2-.2v-.6c0-.027-.013-.04-.04-.04-.013-.013-.033-.007-.06.02-.493.653-1.233.98-2.22.98-.733 0-1.373-.207-1.92-.62-.533-.427-.8-1.173-.8-2.24 0-1.133.327-1.96.98-2.48.653-.533 1.513-.8 2.58-.8h1.4c.053 0 .08-.027.08-.08v-.78c0-.667-.153-1.2-.46-1.6-.306-.4-.72-.6-1.24-.6-.4 0-.746.133-1.04.4-.28.267-.447.607-.5 1.02 0 .133-.067.2-.2.2l-1.12-.02a.216.216 0 01-.16-.06.168.168 0 01-.02-.14c.067-.787.387-1.42.96-1.9.573-.493 1.28-.74 2.12-.74zm-.36 9.2c.547 0 1.02-.173 1.42-.52.4-.36.6-.853.6-1.48v-1.68c0-.053-.026-.08-.08-.08h-1.42c-.64 0-1.146.173-1.52.52-.373.333-.56.833-.56 1.5 0 .587.14 1.027.42 1.32.294.28.674.42 1.14.42zm8.622-8.18c0 .133-.067.2-.2.2h-1.52c-.053 0-.08.027-.08.08v6.12c0 .613.107 1.04.32 1.28.213.227.54.333.98.32h.2c.133 0 .2.067.2.2v.86c0 .133-.067.2-.2.2h-.5c-.787 0-1.387-.167-1.8-.5-.4-.347-.6-.993-.6-1.94v-6.54c0-.053-.027-.08-.08-.08h-.78c-.133 0-.2-.067-.2-.2v-.66c0-.133.067-.2.2-.2h.78c.053 0 .08-.027.08-.08v-2.24c0-.133.067-.2.2-.2h1c.133 0 .2.067.2.2v2.24c0 .053.027.08.08.08h1.52c.133 0 .2.067.2.2v.66zm2.032-2.7c-.333 0-.607-.107-.82-.32-.2-.213-.3-.48-.3-.8 0-.333.1-.6.3-.8.213-.213.487-.32.82-.32.32 0 .58.107.78.32.213.2.32.467.32.8 0 .32-.107.587-.32.8-.2.213-.46.32-.78.32zm-.5 11.96c-.133 0-.2-.067-.2-.2v-9.72c0-.133.067-.2.2-.2h1.02c.133 0 .2.067.2.2v9.72c0 .133-.067.2-.2.2h-1.02zm6.12.16c-.96 0-1.727-.28-2.3-.84-.56-.56-.84-1.3-.84-2.22v-4.3c0-.907.287-1.647.86-2.22.574-.573 1.334-.86 2.28-.86.96 0 1.727.287 2.3.86.574.573.86 1.313.86 2.22v4.3c0 .92-.286 1.66-.86 2.22-.573.56-1.34.84-2.3.84zm0-1.26c.507 0 .92-.173 1.24-.52.333-.347.5-.807.5-1.38v-4.12c0-.573-.167-1.033-.5-1.38-.32-.36-.733-.54-1.24-.54s-.92.18-1.24.54c-.32.347-.48.807-.48 1.38v4.12c0 .573.16 1.033.48 1.38.32.347.733.52 1.24.52zm8.381-9.16c.813 0 1.44.28 1.88.84.453.56.68 1.34.68 2.34v6.88c0 .133-.067.2-.2.2h-1.02c-.133 0-.2-.067-.2-.2v-6.76c0-.653-.147-1.16-.44-1.52-.28-.36-.673-.54-1.18-.54-.533 0-.953.193-1.26.58-.293.387-.44.913-.44 1.58v6.66c0 .133-.067.2-.2.2h-1.02c-.133 0-.2-.067-.2-.2v-9.72c0-.133.067-.2.2-.2h1.02c.133 0 .2.067.2.2v.64c0 .027.013.047.04.06.027.013.047 0 .06-.04.24-.333.54-.58.9-.74a2.77 2.77 0 011.18-.26zm10.58 10.42c-.946 0-1.706-.28-2.28-.84-.56-.56-.84-1.3-.84-2.22v-4.32c0-.907.287-1.64.86-2.2.574-.573 1.327-.86 2.26-.86.627 0 1.18.127 1.66.38s.847.593 1.1 1.02c.267.413.4.873.4 1.38v.2c0 .133-.066.2-.2.2l-1.02.04c-.133 0-.2-.067-.2-.2v-.14c0-.44-.166-.82-.5-1.14-.32-.333-.733-.5-1.24-.5-.506 0-.92.18-1.24.54-.306.347-.46.807-.46 1.38v4.12c0 .573.154 1.04.46 1.4.32.347.734.52 1.24.52.507 0 .92-.16 1.24-.48.334-.333.5-.72.5-1.16v-.14c0-.133.067-.2.2-.2l1.02.02c.134 0 .2.067.2.2v.22c0 .8-.293 1.467-.88 2-.573.52-1.333.78-2.28.78zm7.467 0c-.96 0-1.726-.28-2.3-.84-.56-.56-.84-1.3-.84-2.22v-4.3c0-.907.287-1.647.86-2.22.574-.573 1.334-.86 2.28-.86.96 0 1.727.287 2.3.86.574.573.86 1.313.86 2.22v4.3c0 .92-.286 1.66-.86 2.22-.573.56-1.34.84-2.3.84zm0-1.26c.507 0 .92-.173 1.24-.52.334-.347.5-.807.5-1.38v-4.12c0-.573-.166-1.033-.5-1.38-.32-.36-.733-.54-1.24-.54-.506 0-.92.18-1.24.54-.32.347-.48.807-.48 1.38v4.12c0 .573.16 1.033.48 1.38.32.347.734.52 1.24.52zm9.401-8.82c0-.133.067-.2.2-.2h1.02c.133 0 .2.067.2.2v9.72c0 .133-.067.2-.2.2h-1.02c-.133 0-.2-.067-.2-.2v-.68c0-.04-.013-.06-.04-.06-.013 0-.033.013-.06.04-.413.693-1.08 1.04-2 1.04-.8 0-1.44-.24-1.92-.72-.467-.493-.7-1.233-.7-2.22v-7.12c0-.133.067-.2.2-.2h1.02c.133 0 .2.067.2.2v6.8c0 .667.133 1.173.4 1.52.28.333.68.5 1.2.5.533 0 .947-.193 1.24-.58.307-.387.46-.913.46-1.58v-6.66zm6.857-.34c.813 0 1.44.28 1.88.84.453.56.68 1.34.68 2.34v6.88c0 .133-.067.2-.2.2h-1.02c-.134 0-.2-.067-.2-.2v-6.76c0-.653-.147-1.16-.44-1.52-.28-.36-.674-.54-1.18-.54-.534 0-.954.193-1.26.58-.294.387-.44.913-.44 1.58v6.66c0 .133-.067.2-.2.2h-1.02c-.134 0-.2-.067-.2-.2v-9.72c0-.133.066-.2.2-.2h1.02c.133 0 .2.067.2.2v.64c0 .027.013.047.04.06.026.013.046 0 .06-.04.24-.333.54-.58.9-.74.373-.173.766-.26 1.18-.26zm7.836 1c0 .133-.067.2-.2.2h-1.52c-.053 0-.08.027-.08.08v6.12c0 .613.107 1.04.32 1.28.213.227.54.333.98.32h.2c.133 0 .2.067.2.2v.86c0 .133-.067.2-.2.2h-.5c-.787 0-1.387-.167-1.8-.5-.4-.347-.6-.993-.6-1.94v-6.54c0-.053-.027-.08-.08-.08h-.78c-.133 0-.2-.067-.2-.2v-.66c0-.133.067-.2.2-.2h.78c.053 0 .08-.027.08-.08v-2.24c0-.133.067-.2.2-.2h1c.133 0 .2.067.2.2v2.24c0 .053.027.08.08.08h1.52c.133 0 .2.067.2.2v.66zm3.812 9.36c-.92 0-1.66-.233-2.22-.7-.546-.48-.82-1.113-.82-1.9v-.14c0-.133.067-.2.2-.2h.96c.134 0 .2.067.2.2v.12c0 .427.154.787.46 1.08.32.293.734.44 1.24.44.48 0 .867-.147 1.16-.44.294-.293.44-.667.44-1.12 0-.347-.093-.633-.28-.86a2.015 2.015 0 00-.66-.56c-.24-.133-.606-.307-1.1-.52-.52-.213-.953-.42-1.3-.62a3.083 3.083 0 01-.88-.88c-.24-.387-.36-.873-.36-1.46 0-.853.26-1.527.78-2.02.534-.493 1.247-.74 2.14-.74.907 0 1.627.253 2.16.76.534.507.8 1.18.8 2.02v.06c0 .133-.066.2-.2.2h-.92c-.133 0-.2-.067-.2-.2V31c0-.453-.153-.827-.46-1.12-.293-.293-.68-.44-1.16-.44-.48 0-.866.153-1.16.46-.28.293-.42.66-.42 1.1 0 .32.087.593.26.82.174.213.387.393.64.54.254.133.607.3 1.06.5.547.24.994.467 1.34.68a3 3 0 01.94.9c.267.387.4.867.4 1.44 0 .827-.273 1.487-.82 1.98-.546.493-1.286.74-2.22.74zm4.921-.14c-.334 0-.607-.107-.82-.32-.2-.213-.3-.48-.3-.8 0-.333.1-.6.3-.8.213-.213.486-.32.82-.32.32 0 .586.107.8.32.213.2.32.467.32.8 0 .32-.107.587-.32.8-.214.213-.48.32-.8.32z" fill="#fff"/></svg>