<svg width="111" height="27" viewBox="0 0 111 27" fill="none" xmlns="http://www.w3.org/2000/svg"><path d="M7.53 26.796c-2.121 0-3.823-.678-5.106-2.035C1.166 23.38.537 21.567.537 19.322V1.044A.4.4 0 01.648.748.46.46 0 01.981.6h3.404c.123 0 .222.05.296.148a.352.352 0 01.148.296v18.722c0 .987.247 1.788.74 2.405.493.617 1.147.925 1.961.925.814 0 1.468-.308 1.961-.925.493-.617.74-1.418.74-2.405V1.044a.4.4 0 01.111-.296.46.46 0 01.333-.148h3.404c.123 0 .222.05.296.148a.352.352 0 01.148.296v18.278c0 2.245-.641 4.058-1.924 5.439-1.283 1.357-2.972 2.035-5.069 2.035zm11.268-.296a.54.54 0 01-.333-.111.541.541 0 01-.111-.333V1.044a.4.4 0 01.111-.296.46.46 0 01.333-.148h3.404c.123 0 .222.05.296.148a.352.352 0 01.148.296v10.212c0 .099.025.16.074.185.05 0 .099-.037.148-.111L28.418.933A.598.598 0 0128.973.6h3.663c.173 0 .284.05.333.148.05.099.037.222-.037.37l-5.55 10.397a1.01 1.01 0 00-.037.222l5.994 14.245c.025.05.037.123.037.222 0 .197-.123.296-.37.296h-3.663c-.271 0-.444-.111-.518-.333l-4.366-10.693c-.025-.074-.062-.099-.111-.074-.05 0-.099.025-.148.074l-1.48 2.479a.567.567 0 00-.074.222v7.881a.46.46 0 01-.148.333.4.4 0 01-.296.111h-3.404zm27.438 0c-.247 0-.407-.123-.481-.37L42.61 15.511c-.05-.099-.111-.148-.185-.148h-1.961c-.124 0-.185.062-.185.185v10.508a.46.46 0 01-.148.333.4.4 0 01-.296.111H36.43a.54.54 0 01-.333-.111.541.541 0 01-.111-.333V1.044a.4.4 0 01.11-.296.46.46 0 01.334-.148h6.956c1.307 0 2.454.32 3.44.962 1.012.617 1.79 1.505 2.332 2.664.567 1.135.85 2.442.85 3.922 0 1.53-.295 2.849-.887 3.959-.592 1.11-1.419 1.949-2.48 2.516-.098.025-.135.099-.11.222l3.626 11.137c.024.05.037.111.037.185 0 .222-.136.333-.407.333h-3.552zM40.464 4.3c-.124 0-.185.062-.185.185v7.363c0 .123.061.185.185.185h2.257c.888 0 1.603-.345 2.146-1.036.567-.69.85-1.628.85-2.812s-.283-2.121-.85-2.812C44.324 4.658 43.609 4.3 42.72 4.3h-2.257zm23.375 22.2c-.297 0-.457-.136-.481-.407l-.703-3.885c0-.123-.075-.185-.223-.185h-5.401c-.148 0-.222.062-.222.185l-.703 3.885c-.025.271-.186.407-.482.407h-3.367c-.345 0-.48-.16-.407-.481l5.477-25.012c.049-.271.21-.407.48-.407h3.922c.272 0 .432.136.482.407l5.475 25.012v.148c0 .222-.135.333-.407.333h-3.44zm-6.364-8.029c-.025.123.036.185.184.185h4.108c.147 0 .21-.062.184-.185L59.806 6.779c-.025-.074-.062-.111-.111-.111-.05 0-.087.037-.111.111l-2.11 11.692zM70.647 26.5a.541.541 0 01-.332-.111.541.541 0 01-.112-.333V1.044a.4.4 0 01.112-.296.46.46 0 01.332-.148h3.404c.124 0 .222.05.296.148a.352.352 0 01.148.296v25.012a.46.46 0 01-.147.333.4.4 0 01-.297.111h-3.404zM88.987 1.044a.4.4 0 01.111-.296.46.46 0 01.333-.148h3.367c.123 0 .222.05.296.148a.352.352 0 01.148.296v25.012a.46.46 0 01-.148.333.4.4 0 01-.296.111h-3.885c-.247 0-.407-.123-.481-.37l-5.513-15.688c-.025-.074-.074-.099-.148-.074-.05 0-.074.037-.074.111l.037 15.577a.46.46 0 01-.148.333.4.4 0 01-.296.111h-3.367a.54.54 0 01-.333-.111.541.541 0 01-.111-.333V1.044a.4.4 0 01.111-.296.46.46 0 01.333-.148h3.811c.247 0 .407.123.481.37l5.55 15.577c.025.074.062.111.111.111.074-.025.111-.074.111-.148V1.044zm21.158 2.812a.459.459 0 01-.148.333.4.4 0 01-.296.111h-7.992c-.123 0-.185.062-.185.185v6.993c0 .123.062.185.185.185h4.736c.123 0 .222.05.296.148a.35.35 0 01.148.296v2.849a.459.459 0 01-.148.333.4.4 0 01-.296.111h-4.736c-.123 0-.185.062-.185.185v7.03c0 .123.062.185.185.185h7.992c.123 0 .222.05.296.148a.35.35 0 01.148.296v2.812a.459.459 0 01-.148.333.4.4 0 01-.296.111H97.676a.541.541 0 01-.333-.111.541.541 0 01-.111-.333V1.044a.4.4 0 01.11-.296.46.46 0 01.334-.148H109.7c.123 0 .222.05.296.148a.35.35 0 01.148.296v2.812z" fill="#fff"/></svg>