<svg width="173" height="36" viewBox="0 0 173 36" fill="none" xmlns="http://www.w3.org/2000/svg"><path d="M5.409.719C5.443.639 5.511.6 5.613.6h.884c.113 0 .17.057.17.17v11.56c0 .113-.057.17-.17.17H5.63c-.113 0-.17-.057-.17-.17V3.218c0-.034-.011-.051-.034-.051-.011 0-.028.011-.051.034L3.607 6.873c-.034.08-.09.119-.17.119-.09 0-.153-.04-.187-.119L1.482 3.218c-.023-.023-.045-.034-.068-.034-.011 0-.017.017-.017.051v9.095c0 .113-.057.17-.17.17H.36c-.113 0-.17-.057-.17-.17V.77C.19.657.247.6.36.6h.884c.102 0 .17.04.204.119l1.938 3.927c.011.023.028.034.051.034.023 0 .04-.011.051-.034L5.409.719zm8.117 7.769c0 .113-.056.17-.17.17H9.48c-.045 0-.068.023-.068.068v1.241c0 .476.13.867.391 1.173.272.295.624.442 1.054.442.363 0 .669-.108.918-.323.26-.227.43-.516.51-.867.034-.102.097-.153.187-.153l.85.034c.046 0 .085.017.12.051.033.034.045.08.033.136-.09.669-.368 1.201-.833 1.598-.453.385-1.048.578-1.785.578-.804 0-1.45-.238-1.938-.714-.476-.476-.714-1.105-.714-1.887V6.363c0-.77.238-1.394.714-1.87.488-.487 1.134-.731 1.938-.731.816 0 1.462.244 1.938.731.488.476.731 1.1.731 1.87v2.125zm-2.669-3.672c-.43 0-.782.153-1.054.459-.26.295-.39.686-.39 1.173v1.139c0 .045.022.068.067.068h2.788c.046 0 .068-.023.068-.068V6.448c0-.487-.136-.878-.408-1.173-.272-.306-.629-.459-1.07-.459zM18.715.77c0-.113.057-.17.17-.17h.867c.113 0 .17.057.17.17v11.56c0 .113-.057.17-.17.17h-.867c-.113 0-.17-.057-.17-.17v-.374c0-.023-.011-.04-.034-.051-.011-.011-.028-.006-.05.017-.432.476-.976.714-1.633.714-.725 0-1.303-.238-1.734-.714-.43-.487-.646-1.116-.646-1.887V6.363c0-.793.215-1.422.646-1.887.43-.476 1.009-.714 1.734-.714.669 0 1.213.244 1.632.731.023.023.04.028.051.017.023-.011.034-.028.034-.051V.77zm-1.428 10.812c.42 0 .76-.147 1.02-.442.272-.306.408-.697.408-1.173V6.448c0-.487-.136-.878-.408-1.173-.26-.306-.6-.459-1.02-.459-.43 0-.788.153-1.07.459-.273.295-.409.686-.409 1.173v3.519c0 .476.136.867.408 1.173.283.295.64.442 1.071.442zm4.928-9.248a.944.944 0 01-.697-.272.956.956 0 01-.255-.68c0-.283.085-.51.255-.68a.944.944 0 01.697-.272c.272 0 .493.09.663.272.18.17.272.397.272.68 0 .272-.091.499-.272.68a.867.867 0 01-.663.272zM21.79 12.5c-.114 0-.17-.057-.17-.17V4.068c0-.113.056-.17.17-.17h.867c.113 0 .17.057.17.17v8.262c0 .113-.057.17-.17.17h-.867zm5.185.136c-.805 0-1.451-.238-1.938-.714-.476-.476-.714-1.105-.714-1.887V6.363c0-.77.243-1.394.73-1.87.488-.487 1.128-.731 1.922-.731.532 0 1.003.108 1.41.323.409.215.72.504.936.867.226.351.34.742.34 1.173v.17c0 .113-.057.17-.17.17l-.867.034c-.114 0-.17-.057-.17-.17V6.21c0-.374-.142-.697-.425-.969-.272-.283-.624-.425-1.054-.425-.431 0-.782.153-1.054.459-.261.295-.391.686-.391 1.173V9.95c0 .487.13.884.39 1.19.273.295.624.442 1.055.442.43 0 .782-.136 1.054-.408.283-.283.425-.612.425-.986v-.119c0-.113.056-.17.17-.17l.867.017c.113 0 .17.057.17.17v.187c0 .68-.25 1.247-.748 1.7-.488.442-1.134.663-1.938.663zm6.38-8.874c.794 0 1.428.26 1.905.782.476.51.714 1.196.714 2.057v5.729c0 .113-.057.17-.17.17h-.867c-.114 0-.17-.057-.17-.17v-.51c0-.023-.012-.034-.035-.034-.01-.011-.028-.006-.05.017-.42.555-1.049.833-1.888.833-.623 0-1.167-.176-1.631-.527-.454-.363-.68-.997-.68-1.904 0-.963.277-1.666.832-2.108.556-.453 1.287-.68 2.193-.68h1.19c.046 0 .069-.023.069-.068v-.663c0-.567-.13-1.02-.392-1.36-.26-.34-.611-.51-1.053-.51-.34 0-.635.113-.885.34-.237.227-.38.516-.424.867 0 .113-.057.17-.17.17l-.953-.017a.184.184 0 01-.136-.051.143.143 0 01-.017-.119c.057-.669.33-1.207.817-1.615.487-.42 1.088-.629 1.802-.629zm-.305 7.82c.464 0 .867-.147 1.207-.442.34-.306.51-.725.51-1.258V8.454c0-.045-.023-.068-.069-.068h-1.206c-.544 0-.975.147-1.292.442-.318.283-.477.708-.477 1.275 0 .499.12.873.358 1.122.249.238.572.357.968.357zm4.37.918c-.113 0-.17-.057-.17-.17V.77c0-.113.057-.17.17-.17h.867c.113 0 .17.057.17.17v11.56c0 .113-.057.17-.17.17h-.867zm7.63.085c-.781 0-1.41-.198-1.886-.595-.465-.408-.697-.946-.697-1.615v-.119c0-.113.056-.17.17-.17h.816c.113 0 .17.057.17.17v.102c0 .363.13.669.39.918.273.25.624.374 1.055.374.408 0 .736-.125.986-.374.249-.25.374-.567.374-.952 0-.295-.08-.538-.238-.731a1.726 1.726 0 00-.561-.476c-.204-.113-.516-.26-.935-.442a9.337 9.337 0 01-1.105-.527 2.61 2.61 0 01-.748-.748c-.204-.329-.306-.742-.306-1.241 0-.725.22-1.298.663-1.717.453-.42 1.06-.629 1.819-.629.77 0 1.382.215 1.836.646.453.43.68 1.003.68 1.717v.051c0 .113-.057.17-.17.17h-.782c-.114 0-.17-.057-.17-.17v-.102c0-.385-.13-.703-.391-.952-.25-.25-.578-.374-.986-.374-.408 0-.737.13-.986.391a1.3 1.3 0 00-.357.935c0 .272.073.504.22.697.148.181.33.334.545.459.215.113.515.255.9.425.465.204.845.397 1.14.578.306.181.572.436.799.765.226.329.34.737.34 1.224 0 .703-.233 1.264-.697 1.683-.465.42-1.094.629-1.887.629zm7.532-8.517c0-.113.057-.17.17-.17h.867c.113 0 .17.057.17.17v8.262c0 .113-.057.17-.17.17h-.867c-.113 0-.17-.057-.17-.17v-.578c0-.034-.011-.051-.034-.051-.011 0-.028.011-.051.034-.351.59-.918.884-1.7.884-.68 0-1.224-.204-1.632-.612-.397-.42-.595-1.048-.595-1.887V4.068c0-.113.057-.17.17-.17h.867c.113 0 .17.057.17.17v5.78c0 .567.113.997.34 1.292.238.283.578.425 1.02.425.453 0 .805-.164 1.054-.493.26-.329.391-.776.391-1.343V4.068zm5.794-.306c.714 0 1.286.244 1.717.731.43.476.646 1.1.646 1.87v3.672c0 .793-.215 1.428-.646 1.904-.43.465-1.003.697-1.717.697-.317 0-.618-.057-.9-.17a2.1 2.1 0 01-.749-.561c-.023-.023-.045-.028-.068-.017-.011.011-.017.028-.017.051v3.689c0 .113-.057.17-.17.17h-.867c-.113 0-.17-.057-.17-.17V4.068c0-.113.057-.17.17-.17h.867c.113 0 .17.057.17.17v.391c0 .023.011.04.034.051.023 0 .045-.011.068-.034.204-.238.448-.414.731-.527.295-.125.595-.187.901-.187zm1.173 2.686c0-.487-.142-.878-.425-1.173-.272-.306-.623-.459-1.054-.459-.42 0-.765.153-1.037.459-.26.295-.39.686-.39 1.173V9.95c0 .487.13.884.39 1.19a1.35 1.35 0 001.037.442c.43 0 .782-.147 1.054-.442.283-.306.425-.703.425-1.19V6.448zm5.589-2.686c.714 0 1.286.244 1.717.731.43.476.646 1.1.646 1.87v3.672c0 .793-.216 1.428-.646 1.904-.431.465-1.003.697-1.717.697-.318 0-.618-.057-.901-.17a2.1 2.1 0 01-.748-.561c-.023-.023-.046-.028-.068-.017-.012.011-.017.028-.017.051v3.689c0 .113-.057.17-.17.17h-.867c-.114 0-.17-.057-.17-.17V4.068c0-.113.056-.17.17-.17h.867c.113 0 .17.057.17.17v.391c0 .023.01.04.034.051.022 0 .045-.011.068-.034.204-.238.447-.414.73-.527.295-.125.596-.187.902-.187zm1.173 2.686c0-.487-.142-.878-.425-1.173-.272-.306-.624-.459-1.054-.459-.42 0-.765.153-1.037.459-.261.295-.391.686-.391 1.173V9.95c0 .487.13.884.39 1.19a1.35 1.35 0 001.038.442c.43 0 .782-.147 1.054-.442.283-.306.425-.703.425-1.19V6.448zm2.63 6.052c-.113 0-.17-.057-.17-.17V.77c0-.113.057-.17.17-.17h.867c.113 0 .17.057.17.17v11.56c0 .113-.057.17-.17.17h-.867zm3.224-10.166a.944.944 0 01-.697-.272.956.956 0 01-.255-.68c0-.283.085-.51.255-.68a.944.944 0 01.697-.272c.272 0 .493.09.663.272.182.17.272.397.272.68 0 .272-.09.499-.272.68a.867.867 0 01-.663.272zM71.74 12.5c-.113 0-.17-.057-.17-.17V4.068c0-.113.057-.17.17-.17h.867c.114 0 .17.057.17.17v8.262c0 .113-.056.17-.17.17h-.867zm7.855-4.012c0 .113-.057.17-.17.17h-3.876c-.046 0-.069.023-.069.068v1.241c0 .476.13.867.391 1.173.273.295.624.442 1.055.442.362 0 .668-.108.918-.323.26-.227.43-.516.51-.867.034-.102.096-.153.186-.153l.85.034c.046 0 .085.017.12.051.033.034.045.08.033.136-.09.669-.368 1.201-.833 1.598-.453.385-1.048.578-1.784.578-.805 0-1.451-.238-1.939-.714-.475-.476-.713-1.105-.713-1.887V6.363c0-.77.237-1.394.713-1.87.488-.487 1.134-.731 1.939-.731.816 0 1.462.244 1.938.731.487.476.73 1.1.73 1.87v2.125zm-2.67-3.672c-.43 0-.781.153-1.053.459-.261.295-.391.686-.391 1.173v1.139c0 .045.022.068.068.068h2.787c.046 0 .069-.023.069-.068V6.448c0-.487-.136-.878-.409-1.173-.271-.306-.628-.459-1.07-.459zm6.16 7.769c-.783 0-1.412-.198-1.888-.595-.465-.408-.697-.946-.697-1.615v-.119c0-.113.057-.17.17-.17h.816c.114 0 .17.057.17.17v.102c0 .363.13.669.391.918.272.25.624.374 1.054.374.408 0 .737-.125.986-.374.25-.25.374-.567.374-.952 0-.295-.08-.538-.238-.731a1.723 1.723 0 00-.56-.476c-.205-.113-.516-.26-.936-.442a9.337 9.337 0 01-1.105-.527 2.611 2.611 0 01-.748-.748c-.204-.329-.306-.742-.306-1.241 0-.725.221-1.298.663-1.717.454-.42 1.06-.629 1.82-.629.77 0 1.382.215 1.835.646.454.43.68 1.003.68 1.717v.051c0 .113-.056.17-.17.17h-.782c-.113 0-.17-.057-.17-.17v-.102c0-.385-.13-.703-.39-.952-.25-.25-.579-.374-.987-.374-.408 0-.736.13-.986.391a1.3 1.3 0 00-.357.935c0 .272.074.504.221.697.148.181.329.334.544.459.215.113.516.255.901.425.465.204.844.397 1.14.578.305.181.572.436.798.765.227.329.34.737.34 1.224 0 .703-.232 1.264-.697 1.683-.465.42-1.094.629-1.887.629zm9.013-8.823c.793 0 1.428.26 1.904.782.476.51.714 1.196.714 2.057v5.729c0 .113-.057.17-.17.17h-.867c-.114 0-.17-.057-.17-.17v-.51c0-.023-.011-.034-.034-.034-.011-.011-.028-.006-.051.017-.42.555-1.049.833-1.887.833-.624 0-1.168-.176-1.632-.527-.454-.363-.68-.997-.68-1.904 0-.963.278-1.666.833-2.108.555-.453 1.286-.68 2.193-.68h1.19c.045 0 .068-.023.068-.068v-.663c0-.567-.13-1.02-.391-1.36-.26-.34-.612-.51-1.054-.51-.34 0-.635.113-.884.34-.238.227-.38.516-.425.867 0 .113-.057.17-.17.17l-.952-.017a.184.184 0 01-.136-.051.143.143 0 01-.017-.119c.056-.669.328-1.207.816-1.615.487-.42 1.088-.629 1.802-.629zm-.306 7.82c.465 0 .867-.147 1.207-.442.34-.306.51-.725.51-1.258V8.454c0-.045-.023-.068-.068-.068h-1.207c-.544 0-.975.147-1.292.442-.317.283-.476.708-.476 1.275 0 .499.119.873.357 1.122.25.238.572.357.969.357zm7.21-7.769c.283 0 .526.062.73.187.08.045.108.119.085.221l-.204.884c-.011.102-.079.136-.204.102a1.135 1.135 0 00-.51-.102.906.906 0 00-.204.017c-.408.023-.742.238-1.003.646-.26.397-.39.884-.39 1.462v5.1c0 .113-.057.17-.17.17h-.868c-.113 0-.17-.057-.17-.17V4.068c0-.113.057-.17.17-.17h.867c.114 0 .17.057.17.17v1.02c0 .034.006.051.017.051.023 0 .046-.011.068-.034.329-.861.867-1.292 1.615-1.292zm6.614 4.675c0 .113-.057.17-.17.17h-3.876c-.046 0-.068.023-.068.068v1.241c0 .476.13.867.391 1.173.272.295.623.442 1.054.442.362 0 .668-.108.918-.323.26-.227.43-.516.51-.867.034-.102.096-.153.187-.153l.85.034c.045 0 .085.017.119.051.034.034.045.08.034.136-.091.669-.369 1.201-.833 1.598-.454.385-1.049.578-1.785.578-.805 0-1.451-.238-1.938-.714-.476-.476-.714-1.105-.714-1.887V6.363c0-.77.238-1.394.714-1.87.487-.487 1.133-.731 1.938-.731.816 0 1.462.244 1.938.731.487.476.731 1.1.731 1.87v2.125zm-2.669-3.672c-.431 0-.782.153-1.054.459-.261.295-.391.686-.391 1.173v1.139c0 .045.022.068.068.068h2.788c.045 0 .068-.023.068-.068V6.448c0-.487-.136-.878-.408-1.173-.272-.306-.629-.459-1.071-.459zm9.748-1.003c.283 0 .527.062.731.187.079.045.108.119.085.221l-.204.884c-.011.102-.079.136-.204.102a1.135 1.135 0 00-.51-.102.902.902 0 00-.204.017c-.408.023-.742.238-1.003.646-.261.397-.391.884-.391 1.462v5.1c0 .113-.057.17-.17.17h-.867c-.113 0-.17-.057-.17-.17V4.068c0-.113.057-.17.17-.17h.867c.113 0 .17.057.17.17v1.02c0 .034.006.051.017.051.023 0 .045-.011.068-.034.329-.861.867-1.292 1.615-1.292zm5.474.255c0-.113.056-.17.17-.17h.867c.113 0 .17.057.17.17v8.262c0 .113-.057.17-.17.17h-.867c-.114 0-.17-.057-.17-.17v-.578c0-.034-.012-.051-.034-.051-.012 0-.029.011-.051.034-.352.59-.918.884-1.7.884-.68 0-1.224-.204-1.632-.612-.397-.42-.595-1.048-.595-1.887V4.068c0-.113.056-.17.17-.17h.867c.113 0 .17.057.17.17v5.78c0 .567.113.997.34 1.292.238.283.578.425 1.02.425.453 0 .804-.164 1.054-.493.26-.329.391-.776.391-1.343V4.068zm5.828-.289c.691 0 1.224.238 1.598.714.385.476.578 1.139.578 1.989v5.848c0 .113-.057.17-.17.17h-.867c-.113 0-.17-.057-.17-.17V6.584c0-.555-.125-.986-.374-1.292-.238-.306-.572-.459-1.003-.459-.453 0-.81.164-1.071.493-.249.329-.374.776-.374 1.343v5.661c0 .113-.057.17-.17.17h-.867c-.113 0-.17-.057-.17-.17V4.068c0-.113.057-.17.17-.17h.867c.113 0 .17.057.17.17v.544c0 .023.011.04.034.051.023.011.04 0 .051-.034.204-.283.459-.493.765-.629a2.354 2.354 0 011.003-.221zm6.695 0c.691 0 1.224.238 1.598.714.385.476.578 1.139.578 1.989v5.848c0 .113-.057.17-.17.17h-.867c-.113 0-.17-.057-.17-.17V6.584c0-.555-.125-.986-.374-1.292-.238-.306-.572-.459-1.003-.459-.453 0-.81.164-1.071.493-.249.329-.374.776-.374 1.343v5.661c0 .113-.057.17-.17.17h-.867c-.113 0-.17-.057-.17-.17V4.068c0-.113.057-.17.17-.17h.867c.113 0 .17.057.17.17v.544c0 .023.011.04.034.051.023.011.04 0 .051-.034.204-.283.459-.493.765-.629a2.354 2.354 0 011.003-.221zm4.366-1.445a.944.944 0 01-.697-.272.956.956 0 01-.255-.68c0-.283.085-.51.255-.68a.944.944 0 01.697-.272c.272 0 .493.09.663.272.181.17.272.397.272.68a.924.924 0 01-.272.68.867.867 0 01-.663.272zm-.425 10.166c-.113 0-.17-.057-.17-.17V4.068c0-.113.057-.17.17-.17h.867c.113 0 .17.057.17.17v8.262c0 .113-.057.17-.17.17h-.867zm5.78-8.721c.692 0 1.224.238 1.598.714.386.476.578 1.139.578 1.989v5.848c0 .113-.056.17-.17.17h-.867c-.113 0-.17-.057-.17-.17V6.584c0-.555-.124-.986-.374-1.292-.238-.306-.572-.459-1.003-.459-.453 0-.81.164-1.071.493-.249.329-.374.776-.374 1.343v5.661c0 .113-.056.17-.17.17h-.867c-.113 0-.17-.057-.17-.17V4.068c0-.113.057-.17.17-.17h.867c.114 0 .17.057.17.17v.544c0 .023.012.04.034.051.023.011.04 0 .051-.034.204-.283.459-.493.765-.629a2.357 2.357 0 011.003-.221zm7.545.289c0-.113.057-.17.17-.17h.867c.114 0 .17.057.17.17v8.262c0 1.213-.283 2.13-.85 2.754-.555.635-1.49.924-2.805.867-.113-.011-.17-.074-.17-.187v-.731c0-.113.057-.17.17-.17.907.023 1.542-.187 1.904-.629.363-.43.544-1.1.544-2.006v-.51c0-.023-.011-.04-.034-.051-.011-.011-.028-.006-.051.017a1.868 1.868 0 01-.748.646 2.098 2.098 0 01-.952.221c-.714 0-1.28-.238-1.7-.714-.408-.476-.612-1.105-.612-1.887V6.363c0-.793.204-1.422.612-1.887.42-.476.986-.714 1.7-.714.34 0 .658.074.952.221.306.136.556.346.748.629.023.034.04.051.051.051.023-.011.034-.034.034-.068v-.527zm-1.428 7.429c.42 0 .76-.147 1.02-.442.272-.306.408-.697.408-1.173V6.448c0-.487-.136-.878-.408-1.173-.26-.306-.6-.459-1.02-.459-.43 0-.782.153-1.054.459-.272.295-.408.686-.408 1.173v3.434c0 .476.136.867.408 1.173.272.295.624.442 1.054.442zm9.406 1.139c-.816 0-1.468-.238-1.955-.714-.476-.476-.714-1.105-.714-1.887V6.38c0-.77.244-1.4.731-1.887.487-.487 1.133-.731 1.938-.731.816 0 1.468.244 1.955.731.487.487.731 1.116.731 1.887v3.655c0 .782-.244 1.411-.731 1.887s-1.139.714-1.955.714zm0-1.071c.431 0 .782-.147 1.054-.442.283-.295.425-.686.425-1.173V6.448c0-.487-.142-.878-.425-1.173-.272-.306-.623-.459-1.054-.459-.431 0-.782.153-1.054.459-.272.295-.408.686-.408 1.173V9.95c0 .487.136.878.408 1.173.272.295.623.442 1.054.442zm7.991-7.497c0-.113.056-.17.17-.17h.867c.113 0 .17.057.17.17v8.262c0 .113-.057.17-.17.17h-.867c-.114 0-.17-.057-.17-.17v-.578c0-.034-.012-.051-.034-.051-.012 0-.029.011-.051.034-.352.59-.918.884-1.7.884-.68 0-1.224-.204-1.632-.612-.397-.42-.595-1.048-.595-1.887V4.068c0-.113.056-.17.17-.17h.867c.113 0 .17.057.17.17v5.78c0 .567.113.997.34 1.292.238.283.578.425 1.02.425.453 0 .804-.164 1.054-.493.26-.329.391-.776.391-1.343V4.068zm5.794.561c0 .113-.057.17-.17.17h-1.292c-.046 0-.068.023-.068.068v5.202c0 .521.09.884.272 1.088.181.193.459.283.833.272h.17c.113 0 .17.057.17.17v.731c0 .113-.057.17-.17.17h-.425c-.669 0-1.179-.142-1.53-.425-.34-.295-.51-.844-.51-1.649V4.867c0-.045-.023-.068-.068-.068h-.663c-.114 0-.17-.057-.17-.17v-.561c0-.113.056-.17.17-.17h.663c.045 0 .068-.023.068-.068V1.926c0-.113.056-.17.17-.17h.85c.113 0 .17.057.17.17V3.83c0 .045.022.068.068.068h1.292c.113 0 .17.057.17.17v.561zm1.574 7.837a.944.944 0 01-.697-.272.956.956 0 01-.255-.68c0-.283.085-.51.255-.68a.944.944 0 01.697-.272c.272 0 .499.09.68.272.181.17.272.397.272.68a.924.924 0 01-.272.68.922.922 0 01-.68.272zM5.613 21.484c0 .113-.057.17-.17.17H1.499c-.045 0-.068.023-.068.068v4.216c0 .045.023.068.068.068h2.482c.113 0 .17.057.17.17v.731c0 .113-.057.17-.17.17H1.499c-.045 0-.068.023-.068.068v4.233c0 .045.023.068.068.068h3.944c.113 0 .17.057.17.17v.714c0 .113-.057.17-.17.17H.394c-.113 0-.17-.057-.17-.17V20.77c0-.113.057-.17.17-.17h5.049c.113 0 .17.057.17.17v.714zM8.498 32.5c-.102 0-.164-.051-.187-.153l-2.108-8.262-.017-.068c0-.08.051-.119.153-.119h.986c.102 0 .164.051.187.153l1.462 6.443c.011.034.023.051.034.051.011 0 .023-.017.034-.051l1.445-6.443c.023-.102.085-.153.187-.153l.986.017c.057 0 .096.017.12.051.033.034.039.08.016.136l-2.09 8.245c-.012.102-.075.153-.188.153h-1.02zm9.266-4.012c0 .113-.056.17-.17.17h-3.876c-.045 0-.068.023-.068.068v1.241c0 .476.13.867.391 1.173.272.295.624.442 1.054.442.363 0 .669-.108.918-.323.26-.227.43-.516.51-.867.034-.102.097-.153.187-.153l.85.034c.046 0 .085.017.12.051.033.034.045.08.033.136-.09.669-.368 1.201-.833 1.598-.453.385-1.048.578-1.785.578-.804 0-1.45-.238-1.938-.714-.476-.476-.714-1.105-.714-1.887v-3.672c0-.77.238-1.394.714-1.87.488-.487 1.134-.731 1.938-.731.816 0 1.462.244 1.938.731.488.476.731 1.1.731 1.87v2.125zm-2.669-3.672c-.43 0-.782.153-1.054.459-.26.295-.39.686-.39 1.173v1.139c0 .045.022.068.067.068h2.788c.046 0 .068-.023.068-.068v-1.139c0-.487-.136-.878-.408-1.173-.272-.306-.629-.459-1.07-.459zm6.855-1.003c.284 0 .527.062.731.187.08.045.108.119.085.221l-.204.884c-.011.102-.08.136-.204.102a1.135 1.135 0 00-.51-.102.909.909 0 00-.204.017c-.408.023-.742.238-1.003.646-.26.397-.39.884-.39 1.462v5.1c0 .113-.058.17-.17.17h-.868c-.113 0-.17-.057-.17-.17v-8.262c0-.113.057-.17.17-.17h.867c.114 0 .17.057.17.17v1.02c0 .034.006.051.017.051.023 0 .046-.011.068-.034.329-.861.867-1.292 1.615-1.292zM23.424 35.9c-.023 0-.046-.017-.068-.051a.21.21 0 01-.034-.119v-.68c0-.113.056-.17.17-.17.351-.011.623-.08.816-.204.204-.125.368-.346.493-.663.125-.317.25-.805.374-1.462.011-.023.011-.04 0-.051v-.051l-2.16-8.364-.016-.051c0-.09.056-.136.17-.136h.918c.113 0 .175.051.187.153l1.496 6.681c.011.034.023.051.034.051.011 0 .023-.017.034-.051l1.479-6.681c.023-.102.085-.153.187-.153l.952.017c.056 0 .096.017.119.051.034.034.04.08.017.136l-2.363 9.146c-.204.76-.408 1.32-.612 1.683-.193.363-.448.612-.765.748-.317.147-.765.221-1.343.221h-.085zm12.84-15.13c0-.113.058-.17.17-.17h.868c.113 0 .17.057.17.17v11.56c0 .113-.057.17-.17.17h-.867c-.113 0-.17-.057-.17-.17v-.374c0-.023-.011-.04-.034-.051-.011-.011-.028-.006-.051.017-.43.476-.975.714-1.632.714-.725 0-1.303-.238-1.734-.714-.43-.487-.646-1.116-.646-1.887v-3.672c0-.793.215-1.422.646-1.887.43-.476 1.009-.714 1.734-.714.669 0 1.213.244 1.632.731.023.023.04.028.05.017.024-.011.035-.028.035-.051V20.77zm-1.427 10.812c.42 0 .76-.147 1.02-.442.272-.306.408-.697.408-1.173v-3.519c0-.487-.136-.878-.408-1.173-.26-.306-.6-.459-1.02-.459-.43 0-.788.153-1.071.459-.272.295-.408.686-.408 1.173v3.519c0 .476.136.867.408 1.173.283.295.64.442 1.07.442zm6.678 1.054c-.816 0-1.467-.238-1.955-.714-.476-.476-.714-1.105-.714-1.887V26.38c0-.77.244-1.4.731-1.887.488-.487 1.134-.731 1.938-.731.816 0 1.468.244 1.955.731.488.487.731 1.116.731 1.887v3.655c0 .782-.243 1.411-.73 1.887-.488.476-1.14.714-1.956.714zm0-1.071c.431 0 .782-.147 1.054-.442.284-.295.425-.686.425-1.173v-3.502c0-.487-.141-.878-.425-1.173-.272-.306-.623-.459-1.054-.459-.43 0-.782.153-1.054.459-.272.295-.408.686-.408 1.173v3.502c0 .487.136.878.408 1.173.272.295.624.442 1.054.442zm7.124-7.786c.691 0 1.224.238 1.598.714.385.476.578 1.139.578 1.989v5.848c0 .113-.057.17-.17.17h-.867c-.113 0-.17-.057-.17-.17v-5.746c0-.555-.125-.986-.374-1.292-.238-.306-.572-.459-1.003-.459-.453 0-.81.164-1.07.493-.25.329-.375.776-.375 1.343v5.661c0 .113-.057.17-.17.17h-.867c-.113 0-.17-.057-.17-.17v-8.262c0-.113.057-.17.17-.17h.867c.113 0 .17.057.17.17v.544c0 .023.011.04.034.051.023.011.04 0 .051-.034.204-.283.46-.493.765-.629a2.354 2.354 0 011.003-.221zm6.151-.017c.794 0 1.428.26 1.904.782.476.51.714 1.196.714 2.057v5.729c0 .113-.056.17-.17.17h-.867c-.113 0-.17-.057-.17-.17v-.51c0-.023-.011-.034-.034-.034-.011-.011-.028-.006-.05.017-.42.555-1.05.833-1.888.833-.623 0-1.167-.176-1.632-.527-.453-.363-.68-.997-.68-1.904 0-.963.278-1.666.833-2.108.556-.453 1.286-.68 2.193-.68h1.19c.045 0 .068-.023.068-.068v-.663c0-.567-.13-1.02-.39-1.36-.261-.34-.613-.51-1.055-.51-.34 0-.635.113-.884.34-.238.227-.38.516-.425.867 0 .113-.056.17-.17.17l-.952-.017a.184.184 0 01-.136-.051.143.143 0 01-.017-.119c.057-.669.329-1.207.816-1.615.487-.42 1.088-.629 1.802-.629zm-.306 7.82c.465 0 .867-.147 1.207-.442.34-.306.51-.725.51-1.258v-1.428c0-.045-.023-.068-.068-.068h-1.207c-.544 0-.974.147-1.292.442-.317.283-.476.708-.476 1.275 0 .499.12.873.357 1.122.25.238.572.357.97.357zm7.329-6.953c0 .113-.057.17-.17.17H60.35c-.046 0-.068.023-.068.068v5.202c0 .521.09.884.272 1.088.18.193.459.283.833.272h.17c.113 0 .17.057.17.17v.731c0 .113-.057.17-.17.17h-.425c-.67 0-1.18-.142-1.53-.425-.34-.295-.51-.844-.51-1.649v-5.559c0-.045-.023-.068-.068-.068h-.663c-.114 0-.17-.057-.17-.17v-.561c0-.113.056-.17.17-.17h.663c.045 0 .068-.023.068-.068v-1.904c0-.113.056-.17.17-.17h.85c.113 0 .17.057.17.17v1.904c0 .045.022.068.068.068h1.292c.113 0 .17.057.17.17v.561zm1.727-2.295a.944.944 0 01-.697-.272.956.956 0 01-.255-.68c0-.283.085-.51.255-.68a.944.944 0 01.697-.272c.272 0 .493.09.663.272.181.17.272.397.272.68 0 .272-.09.499-.272.68a.867.867 0 01-.663.272zM63.115 32.5c-.114 0-.17-.057-.17-.17v-8.262c0-.113.056-.17.17-.17h.867c.113 0 .17.057.17.17v8.262c0 .113-.057.17-.17.17h-.867zm5.202.136c-.816 0-1.468-.238-1.955-.714-.476-.476-.714-1.105-.714-1.887V26.38c0-.77.244-1.4.731-1.887.487-.487 1.133-.731 1.938-.731.816 0 1.468.244 1.955.731.487.487.731 1.116.731 1.887v3.655c0 .782-.244 1.411-.731 1.887s-1.139.714-1.955.714zm0-1.071c.43 0 .782-.147 1.054-.442.283-.295.425-.686.425-1.173v-3.502c0-.487-.142-.878-.425-1.173-.272-.306-.623-.459-1.054-.459-.43 0-.782.153-1.054.459-.272.295-.408.686-.408 1.173v3.502c0 .487.136.878.408 1.173.272.295.623.442 1.054.442zm7.124-7.786c.691 0 1.224.238 1.598.714.385.476.578 1.139.578 1.989v5.848c0 .113-.057.17-.17.17h-.867c-.114 0-.17-.057-.17-.17v-5.746c0-.555-.125-.986-.374-1.292-.238-.306-.573-.459-1.003-.459-.454 0-.81.164-1.071.493-.25.329-.374.776-.374 1.343v5.661c0 .113-.057.17-.17.17h-.867c-.114 0-.17-.057-.17-.17v-8.262c0-.113.056-.17.17-.17h.867c.113 0 .17.057.17.17v.544c0 .023.011.04.034.051.022.011.04 0 .05-.034.205-.283.46-.493.766-.629a2.355 2.355 0 011.003-.221zm8.993 8.857c-.805 0-1.45-.238-1.938-.714-.476-.476-.714-1.105-.714-1.887v-3.672c0-.77.244-1.394.731-1.87.487-.487 1.128-.731 1.921-.731.533 0 1.003.108 1.411.323.408.215.72.504.935.867.227.351.34.742.34 1.173v.17c0 .113-.057.17-.17.17l-.867.034c-.113 0-.17-.057-.17-.17v-.119c0-.374-.142-.697-.425-.969-.272-.283-.623-.425-1.054-.425-.43 0-.782.153-1.054.459-.26.295-.391.686-.391 1.173v3.502c0 .487.13.884.391 1.19.272.295.623.442 1.054.442.43 0 .782-.136 1.054-.408.283-.283.425-.612.425-.986v-.119c0-.113.057-.17.17-.17l.867.017c.113 0 .17.057.17.17v.187c0 .68-.25 1.247-.748 1.7-.487.442-1.133.663-1.938.663zm6.347 0c-.816 0-1.468-.238-1.955-.714-.476-.476-.714-1.105-.714-1.887V26.38c0-.77.244-1.4.73-1.887.488-.487 1.134-.731 1.939-.731.816 0 1.468.244 1.955.731.487.487.73 1.116.73 1.887v3.655c0 .782-.243 1.411-.73 1.887s-1.14.714-1.955.714zm0-1.071c.43 0 .782-.147 1.054-.442.283-.295.425-.686.425-1.173v-3.502c0-.487-.142-.878-.425-1.173-.272-.306-.623-.459-1.054-.459-.43 0-.782.153-1.054.459-.272.295-.408.686-.408 1.173v3.502c0 .487.136.878.408 1.173.272.295.623.442 1.054.442zm7.99-7.497c0-.113.057-.17.17-.17h.867c.114 0 .17.057.17.17v8.262c0 .113-.056.17-.17.17h-.867c-.113 0-.17-.057-.17-.17v-.578c0-.034-.01-.051-.034-.051-.01 0-.028.011-.05.034-.352.59-.918.884-1.7.884-.68 0-1.224-.204-1.632-.612-.397-.42-.596-1.048-.596-1.887v-6.052c0-.113.057-.17.17-.17h.867c.114 0 .17.057.17.17v5.78c0 .567.114.997.34 1.292.239.283.579.425 1.02.425.454 0 .805-.164 1.055-.493.26-.329.39-.776.39-1.343v-5.661zm5.829-.289c.691 0 1.224.238 1.598.714.385.476.578 1.139.578 1.989v5.848c0 .113-.057.17-.17.17h-.867c-.114 0-.17-.057-.17-.17v-5.746c0-.555-.125-.986-.374-1.292-.238-.306-.573-.459-1.003-.459-.454 0-.811.164-1.071.493-.25.329-.374.776-.374 1.343v5.661c0 .113-.057.17-.17.17h-.867c-.114 0-.17-.057-.17-.17v-8.262c0-.113.056-.17.17-.17h.867c.113 0 .17.057.17.17v.544c0 .023.011.04.034.051.022.011.039 0 .051-.034.204-.283.459-.493.765-.629a2.351 2.351 0 011.003-.221zm6.661.85c0 .113-.057.17-.17.17h-1.292c-.046 0-.068.023-.068.068v5.202c0 .521.09.884.272 1.088.181.193.459.283.833.272h.17c.113 0 .17.057.17.17v.731c0 .113-.057.17-.17.17h-.425c-.669 0-1.179-.142-1.53-.425-.34-.295-.51-.844-.51-1.649v-5.559c0-.045-.023-.068-.068-.068h-.663c-.114 0-.17-.057-.17-.17v-.561c0-.113.056-.17.17-.17h.663c.045 0 .068-.023.068-.068v-1.904c0-.113.056-.17.17-.17h.85c.113 0 .17.057.17.17v1.904c0 .045.022.068.068.068h1.292c.113 0 .17.057.17.17v.561zm3.24 7.956c-.782 0-1.411-.198-1.887-.595-.465-.408-.697-.946-.697-1.615v-.119c0-.113.057-.17.17-.17h.816c.113 0 .17.057.17.17v.102c0 .363.13.669.391.918.272.25.623.374 1.054.374.408 0 .737-.125.986-.374.249-.25.374-.567.374-.952 0-.295-.079-.538-.238-.731a1.731 1.731 0 00-.561-.476c-.204-.113-.516-.26-.935-.442a9.355 9.355 0 01-1.105-.527 2.61 2.61 0 01-.748-.748c-.204-.329-.306-.742-.306-1.241 0-.725.221-1.298.663-1.717.453-.42 1.06-.629 1.819-.629.771 0 1.383.215 1.836.646.453.43.68 1.003.68 1.717v.051c0 .113-.057.17-.17.17h-.782c-.113 0-.17-.057-.17-.17v-.102c0-.385-.13-.703-.391-.952-.249-.25-.578-.374-.986-.374-.408 0-.737.13-.986.391a1.3 1.3 0 00-.357.935c0 .272.074.504.221.697.147.181.329.334.544.459.215.113.516.255.901.425.465.204.844.397 1.139.578.306.181.572.436.799.765.227.329.34.737.34 1.224 0 .703-.232 1.264-.697 1.683-.465.42-1.094.629-1.887.629zm4.182-.119a.945.945 0 01-.697-.272.956.956 0 01-.255-.68c0-.283.085-.51.255-.68a.945.945 0 01.697-.272c.272 0 .499.09.68.272.182.17.272.397.272.68a.92.92 0 01-.272.68.922.922 0 01-.68.272z" fill="#fff"/></svg>