<svg width="104" height="20" viewBox="0 0 104 20" fill="none" xmlns="http://www.w3.org/2000/svg"><path fill="#EE3224" d="M0 .5h104v19H0z"/><path d="M8.585 15.62c-.86 0-1.55-.275-2.07-.825-.51-.56-.765-1.295-.765-2.205V5.18c0-.05.015-.09.045-.12.04-.04.085-.06.135-.06h1.38c.05 0 .09.02.12.06.04.03.06.07.06.12v7.59c0 .4.1.725.3.975.2.25.465.375.795.375s.595-.125.795-.375c.2-.25.3-.575.3-.975V5.18c0-.05.015-.09.045-.12.04-.04.085-.06.135-.06h1.38c.05 0 .09.02.12.06.04.03.06.07.06.12v7.41c0 .91-.26 1.645-.78 2.205-.52.55-1.205.825-2.055.825zm9.218-.12c-.1 0-.165-.05-.195-.15l-1.275-4.305c-.02-.04-.045-.06-.075-.06h-.795c-.05 0-.075.025-.075.075v4.26c0 .05-.02.095-.06.135a.162.162 0 01-.12.045h-1.38a.22.22 0 01-.135-.045.22.22 0 01-.045-.135V5.18c0-.05.015-.09.045-.12.04-.04.085-.06.135-.06h2.82c.53 0 .995.13 1.395.39.41.25.725.61.945 1.08.23.46.345.99.345 1.59 0 .62-.12 1.155-.36 1.605-.24.45-.575.79-1.005 1.02-.04.01-.055.04-.045.09l1.47 4.515c.01.02.015.045.015.075 0 .09-.055.135-.165.135h-1.44zm-2.34-9c-.05 0-.075.025-.075.075V9.56c0 .05.025.075.075.075h.915c.36 0 .65-.14.87-.42.23-.28.345-.66.345-1.14 0-.48-.115-.86-.345-1.14a1.04 1.04 0 00-.87-.435h-.915zm8.414 9.12c-.85 0-1.535-.245-2.055-.735-.51-.5-.765-1.16-.765-1.98v-5.31c0-.82.255-1.475.765-1.965.52-.5 1.205-.75 2.055-.75.85 0 1.535.25 2.055.75.53.49.795 1.15.795 1.98v.585c0 .05-.02.095-.06.135a.162.162 0 01-.12.045h-1.38a.22.22 0 01-.135-.045.22.22 0 01-.045-.135V7.58c0-.36-.105-.65-.315-.87-.2-.22-.465-.33-.795-.33s-.595.11-.795.33c-.2.22-.3.51-.3.87v5.34c0 .36.1.65.3.87.2.22.465.33.795.33s.595-.11.795-.33c.21-.22.315-.51.315-.87v-1.44c0-.05-.025-.075-.075-.075h-.915a.22.22 0 01-.135-.045.22.22 0 01-.045-.135V10.13c0-.05.015-.09.045-.12.04-.04.085-.06.135-.06h2.55c.05 0 .09.02.12.06.04.03.06.07.06.12v2.775c0 .82-.265 1.48-.795 1.98-.52.49-1.205.735-2.055.735zm10.199-9.3c0 .05-.02.095-.06.135a.162.162 0 01-.12.045h-3.24c-.05 0-.075.025-.075.075V9.41c0 .05.025.075.075.075h1.92c.05 0 .09.02.12.06.04.03.06.07.06.12v1.155c0 .05-.02.095-.06.135a.162.162 0 01-.12.045h-1.92c-.05 0-.075.025-.075.075v2.85c0 .05.025.075.075.075h3.24c.05 0 .09.02.12.06.04.03.06.07.06.12v1.14c0 .05-.02.095-.06.135a.162.162 0 01-.12.045H29.02a.22.22 0 01-.135-.045.22.22 0 01-.045-.135V5.18c0-.05.015-.09.045-.12.04-.04.085-.06.135-.06h4.875c.05 0 .09.02.12.06.04.03.06.07.06.12v1.14zm6.218-1.14c0-.05.015-.09.045-.12.04-.04.085-.06.135-.06h1.365c.05 0 .09.02.12.06.04.03.06.07.06.12v10.14c0 .05-.02.095-.06.135a.162.162 0 01-.12.045h-1.575c-.1 0-.165-.05-.195-.15l-2.235-6.36c-.01-.03-.03-.04-.06-.03-.02 0-.03.015-.03.045l.015 6.315c0 .05-.02.095-.06.135a.162.162 0 01-.12.045h-1.365a.22.22 0 01-.135-.045.22.22 0 01-.045-.135V5.18c0-.05.015-.09.045-.12.04-.04.085-.06.135-.06h1.545c.1 0 .165.05.195.15l2.25 6.315c.01.03.025.045.045.045.03-.01.045-.03.045-.06V5.18zM49.697 5c.05 0 .09.02.12.06.04.03.06.07.06.12v1.14c0 .05-.02.095-.06.135a.162.162 0 01-.12.045h-1.905c-.05 0-.075.025-.075.075v8.745c0 .05-.02.095-.06.135a.162.162 0 01-.12.045h-1.38a.22.22 0 01-.135-.045.22.22 0 01-.045-.135V6.575c0-.05-.025-.075-.075-.075h-1.8a.22.22 0 01-.135-.045.22.22 0 01-.045-.135V5.18c0-.05.015-.09.045-.12.04-.04.085-.06.135-.06h5.595zm10.01 10.5c-.12 0-.185-.055-.195-.165l-.285-1.575c0-.05-.03-.075-.09-.075h-2.19c-.06 0-.09.025-.09.075l-.285 1.575c-.01.11-.075.165-.195.165h-1.365c-.14 0-.195-.065-.165-.195l2.22-10.14c.02-.11.085-.165.195-.165h1.59c.11 0 .175.055.195.165l2.22 10.14v.06c0 .09-.055.135-.165.135h-1.395zm-2.58-3.255c-.01.05.015.075.075.075h1.665c.06 0 .085-.025.075-.075l-.87-4.74c-.01-.03-.025-.045-.045-.045-.02 0-.035.015-.045.045l-.855 4.74zm8.82-7.26c.53 0 .996.13 1.396.39.41.26.725.625.945 1.095.23.47.345 1.005.345 1.605 0 .9-.24 1.625-.72 2.175-.47.55-1.095.825-1.875.825h-1.275c-.05 0-.075.025-.075.075v4.17c0 .05-.02.095-.06.135a.162.162 0 01-.12.045h-1.38a.22.22 0 01-.135-.045.22.22 0 01-.045-.135V5.165c0-.05.015-.09.045-.12.04-.04.085-.06.135-.06h2.82zm-.284 4.725c.37 0 .665-.14.885-.42.23-.29.345-.68.345-1.17 0-.5-.115-.895-.345-1.185-.22-.3-.515-.45-.885-.45h-.9c-.05 0-.075.025-.075.075v3.075c0 .05.025.075.075.075h.9zm7.815-4.725c.53 0 .995.13 1.395.39.41.26.725.625.945 1.095.23.47.345 1.005.345 1.605 0 .9-.24 1.625-.72 2.175-.47.55-1.095.825-1.875.825h-1.275c-.05 0-.075.025-.075.075v4.17c0 .05-.02.095-.06.135a.162.162 0 01-.12.045h-1.38a.22.22 0 01-.135-.045.22.22 0 01-.045-.135V5.165c0-.05.015-.09.045-.12.04-.04.085-.06.135-.06h2.82zm-.285 4.725c.37 0 .665-.14.885-.42.23-.29.345-.68.345-1.17 0-.5-.115-.895-.345-1.185-.22-.3-.515-.45-.885-.45h-.9c-.05 0-.075.025-.075.075v3.075c0 .05.025.075.075.075h.9zM83.26 6.32c0 .05-.02.095-.06.135a.162.162 0 01-.12.045h-3.24c-.05 0-.075.025-.075.075V9.41c0 .05.025.075.075.075h1.92c.05 0 .09.02.12.06.04.03.06.07.06.12v1.155c0 .05-.02.095-.06.135a.162.162 0 01-.12.045h-1.92c-.05 0-.075.025-.075.075v2.85c0 .05.025.075.075.075h3.24c.05 0 .09.02.12.06.04.03.06.07.06.12v1.14c0 .05-.02.095-.06.135a.162.162 0 01-.12.045h-4.875a.22.22 0 01-.135-.045.22.22 0 01-.045-.135V5.18c0-.05.015-.09.045-.12.04-.04.085-.06.135-.06h4.875c.05 0 .09.02.12.06.04.03.06.07.06.12v1.14zm6.497 9.18c-.12 0-.185-.055-.195-.165l-.285-1.575c0-.05-.03-.075-.09-.075h-2.19c-.06 0-.09.025-.09.075l-.285 1.575c-.01.11-.075.165-.195.165H85.06c-.14 0-.195-.065-.165-.195l2.22-10.14c.02-.11.085-.165.195-.165h1.59c.11 0 .175.055.195.165l2.22 10.14v.06c0 .09-.055.135-.165.135h-1.395zm-2.58-3.255c-.01.05.015.075.075.075h1.665c.06 0 .085-.025.075-.075l-.87-4.74c-.01-.03-.025-.045-.045-.045-.02 0-.035.015-.045.045l-.855 4.74zm6.016 3.255a.22.22 0 01-.135-.045.22.22 0 01-.045-.135V5.18c0-.05.015-.09.045-.12.04-.04.085-.06.135-.06h1.38c.05 0 .09.02.12.06.04.03.06.07.06.12v8.745c0 .05.025.075.075.075h3.24c.05 0 .09.02.12.06.04.03.06.07.06.12v1.14c0 .05-.02.095-.06.135a.162.162 0 01-.12.045h-4.875z" fill="#fff"/></svg>