<svg width="204" height="26" viewBox="0 0 204 26" fill="none" xmlns="http://www.w3.org/2000/svg"><path d="M6.12 25.5c-.288 0-.444-.132-.468-.396L.864.768.828.624C.828.408.96.3 1.224.3H4.68c.288 0 .444.132.468.396l2.52 15.012c.024.072.06.108.108.108s.084-.036.108-.108L10.152.696c.024-.264.18-.396.468-.396h2.88c.288 0 .444.132.468.396l2.448 15.012c.024.072.06.108.108.108s.084-.036.108-.108L18.9.696c.024-.264.18-.396.468-.396h3.348c.312 0 .444.156.396.468L18.54 25.104c-.024.264-.18.396-.468.396h-3.06c-.288 0-.444-.132-.468-.396l-2.412-15.3c-.024-.096-.06-.144-.108-.144s-.084.048-.108.144l-2.232 15.3c-.024.264-.18.396-.468.396H6.12zm27.599 0c-.288 0-.444-.132-.468-.396l-.684-3.78c0-.12-.072-.18-.216-.18h-5.256c-.144 0-.216.06-.216.18l-.684 3.78c-.024.264-.18.396-.468.396H22.45c-.336 0-.468-.156-.396-.468L27.383.696C27.43.432 27.587.3 27.85.3h3.816c.264 0 .42.132.468.396l5.328 24.336v.144c0 .216-.132.324-.396.324h-3.348zm-6.192-7.812c-.024.12.036.18.18.18h3.996c.144 0 .204-.06.18-.18L29.795 6.312c-.024-.072-.06-.108-.108-.108s-.084.036-.108.108l-2.052 11.376zM49.885 25.5c-.24 0-.396-.12-.468-.36l-3.06-10.332c-.048-.096-.108-.144-.18-.144h-1.908c-.12 0-.18.06-.18.18v10.224c0 .12-.048.228-.144.324a.39.39 0 01-.288.108h-3.312a.526.526 0 01-.324-.108.527.527 0 01-.108-.324V.732a.39.39 0 01.108-.288.448.448 0 01.324-.144h6.768c1.272 0 2.388.312 3.348.936.984.6 1.74 1.464 2.268 2.592.552 1.104.828 2.376.828 3.816 0 1.488-.288 2.772-.864 3.852-.576 1.08-1.38 1.896-2.412 2.448-.096.024-.132.096-.108.216L53.7 24.996a.4.4 0 01.036.18c0 .216-.132.324-.396.324h-3.456zM44.269 3.9c-.12 0-.18.06-.18.18v7.164c0 .12.06.18.18.18h2.196c.864 0 1.56-.336 2.088-1.008.552-.672.828-1.584.828-2.736 0-1.152-.276-2.064-.828-2.736-.528-.696-1.224-1.044-2.088-1.044h-2.196zm19.877 21.6a.527.527 0 01-.325-.108.527.527 0 01-.107-.324V.732a.39.39 0 01.108-.288.448.448 0 01.323-.144h3.313c.12 0 .216.048.288.144a.342.342 0 01.144.288v24.336c0 .12-.049.228-.144.324a.39.39 0 01-.288.108h-3.313zM81.987.732a.39.39 0 01.108-.288A.448.448 0 0182.42.3h3.276c.12 0 .216.048.288.144a.342.342 0 01.144.288v24.336c0 .12-.048.228-.144.324a.39.39 0 01-.288.108h-3.78c-.24 0-.396-.12-.468-.36L76.084 9.876c-.024-.072-.072-.096-.144-.072-.048 0-.072.036-.072.108l.036 15.156c0 .12-.048.228-.144.324a.39.39 0 01-.288.108h-3.276a.527.527 0 01-.324-.108.527.527 0 01-.108-.324V.732a.39.39 0 01.108-.288.448.448 0 01.324-.144h3.708c.24 0 .396.12.468.36l5.4 15.156c.024.072.06.108.108.108.072-.024.108-.072.108-.144V.732zm21.889 25.056c-2.064 0-3.72-.66-4.968-1.98-1.224-1.344-1.836-3.108-1.836-5.292V.732a.39.39 0 01.108-.288.448.448 0 01.324-.144h3.312c.12 0 .216.048.288.144a.342.342 0 01.144.288v18.216c0 .96.24 1.74.72 2.34.48.6 1.116.9 1.908.9.792 0 1.428-.3 1.908-.9.48-.6.72-1.38.72-2.34V.732a.39.39 0 01.108-.288.448.448 0 01.324-.144h3.312c.12 0 .216.048.288.144a.342.342 0 01.144.288v17.784c0 2.184-.624 3.948-1.872 5.292-1.248 1.32-2.892 1.98-4.932 1.98zm10.964-.288a.527.527 0 01-.324-.108.527.527 0 01-.108-.324V.732a.39.39 0 01.108-.288.448.448 0 01.324-.144h3.312c.12 0 .216.048.288.144a.342.342 0 01.144.288v9.936c0 .096.024.156.072.18.048 0 .096-.036.144-.108l5.4-10.116c.12-.216.3-.324.54-.324h3.564c.168 0 .276.048.324.144.048.096.036.216-.036.36l-5.4 10.116a.985.985 0 00-.036.216l5.832 13.86c.024.048.036.12.036.216 0 .192-.12.288-.36.288h-3.564c-.264 0-.432-.108-.504-.324l-4.248-10.404c-.024-.072-.06-.096-.108-.072-.048 0-.096.024-.144.072l-1.44 2.412a.553.553 0 00-.072.216v7.668c0 .12-.048.228-.144.324a.39.39 0 01-.288.108h-3.312zm26.696 0c-.24 0-.396-.12-.468-.36l-3.06-10.332c-.048-.096-.108-.144-.18-.144h-1.908c-.12 0-.18.06-.18.18v10.224c0 .12-.048.228-.144.324a.39.39 0 01-.288.108h-3.312a.527.527 0 01-.324-.108.527.527 0 01-.108-.324V.732a.39.39 0 01.108-.288.448.448 0 01.324-.144h6.768c1.272 0 2.388.312 3.348.936.984.6 1.74 1.464 2.268 2.592.552 1.104.828 2.376.828 3.816 0 1.488-.288 2.772-.864 3.852-.576 1.08-1.38 1.896-2.412 2.448-.096.024-.132.096-.108.216l3.528 10.836a.4.4 0 01.036.18c0 .216-.132.324-.396.324h-3.456zm-5.616-21.6c-.12 0-.18.06-.18.18v7.164c0 .12.06.18.18.18h2.196c.864 0 1.56-.336 2.088-1.008.552-.672.828-1.584.828-2.736 0-1.152-.276-2.064-.828-2.736-.528-.696-1.224-1.044-2.088-1.044h-2.196zm22.743 21.6c-.288 0-.444-.132-.468-.396l-.684-3.78c0-.12-.072-.18-.216-.18h-5.256c-.144 0-.216.06-.216.18l-.684 3.78c-.024.264-.18.396-.468.396h-3.276c-.336 0-.468-.156-.396-.468L152.328.696c.048-.264.204-.396.468-.396h3.816c.264 0 .42.132.468.396l5.328 24.336v.144c0 .216-.132.324-.396.324h-3.348zm-6.192-7.812c-.024.12.036.18.18.18h3.996c.144 0 .204-.06.18-.18L154.74 6.312c-.024-.072-.06-.108-.108-.108s-.084.036-.108.108l-2.052 11.376zM165.29 25.5a.527.527 0 01-.324-.108.527.527 0 01-.108-.324V.732a.39.39 0 01.108-.288.448.448 0 01.324-.144h3.312c.12 0 .216.048.288.144a.342.342 0 01.144.288v24.336c0 .12-.048.228-.144.324a.39.39 0 01-.288.108h-3.312zM183.133.732a.39.39 0 01.108-.288.448.448 0 01.324-.144h3.276c.12 0 .216.048.288.144a.342.342 0 01.144.288v24.336c0 .12-.048.228-.144.324a.39.39 0 01-.288.108h-3.78c-.24 0-.396-.12-.468-.36l-5.364-15.264c-.024-.072-.072-.096-.144-.072-.048 0-.072.036-.072.108l.036 15.156c0 .12-.048.228-.144.324a.39.39 0 01-.288.108h-3.276a.527.527 0 01-.324-.108.527.527 0 01-.108-.324V.732a.39.39 0 01.108-.288.448.448 0 01.324-.144h3.708c.24 0 .396.12.468.36l5.4 15.156c.024.072.06.108.108.108.072-.024.108-.072.108-.144V.732zm20.586 2.736c0 .12-.048.228-.144.324a.39.39 0 01-.288.108h-7.776c-.12 0-.18.06-.18.18v6.804c0 .12.06.18.18.18h4.608c.12 0 .216.048.288.144a.342.342 0 01.144.288v2.772c0 .12-.048.228-.144.324a.39.39 0 01-.288.108h-4.608c-.12 0-.18.06-.18.18v6.84c0 .12.06.18.18.18h7.776c.12 0 .216.048.288.144a.342.342 0 01.144.288v2.736c0 .12-.048.228-.144.324a.39.39 0 01-.288.108h-11.7a.527.527 0 01-.324-.108.527.527 0 01-.108-.324V.732a.39.39 0 01.108-.288.448.448 0 01.324-.144h11.7c.12 0 .216.048.288.144a.342.342 0 01.144.288v2.736z" fill="#fff"/></svg>