<svg width="204" height="52" viewBox="0 0 204 52" fill="none" xmlns="http://www.w3.org/2000/svg"><path d="M2.894 1.272a.688.688 0 01.312-.072h1.296c.16 0 .24.08.24.24v16.32c0 .16-.08.24-.24.24H3.278c-.16 0-.24-.08-.24-.24V3.216c0-.032-.016-.056-.048-.072-.016-.016-.04-.016-.072 0l-2.256.744-.072.024c-.112 0-.184-.072-.216-.216l-.12-.888V2.76c0-.08.056-.16.168-.24l2.472-1.248zm9.12 2.376c-.4 0-.727-.128-.983-.384-.24-.256-.36-.576-.36-.96 0-.4.12-.72.36-.96.256-.256.584-.384.984-.384.384 0 .696.128.936.384.256.24.384.56.384.96 0 .384-.128.704-.384.96-.24.256-.552.384-.936.384zM11.415 18c-.16 0-.24-.08-.24-.24V6.096c0-.16.08-.24.24-.24h1.225c.16 0 .24.08.24.24V17.76c0 .16-.08.24-.24.24h-1.224zm8.161-12.312c.976 0 1.728.336 2.256 1.008.544.672.816 1.608.816 2.808v8.256c0 .16-.08.24-.24.24h-1.224c-.16 0-.24-.08-.24-.24V9.648c0-.784-.176-1.392-.528-1.824-.336-.432-.808-.648-1.416-.648-.64 0-1.144.232-1.512.696-.352.464-.528 1.096-.528 1.896v7.992c0 .16-.08.24-.24.24h-1.224c-.16 0-.24-.08-.24-.24V6.096c0-.16.08-.24.24-.24h1.224c.16 0 .24.08.24.24v.768c0 .032.016.056.048.072.032.016.056 0 .072-.048.288-.4.648-.696 1.08-.888.448-.208.92-.312 1.416-.312zm10.777 10.704a.102.102 0 000 .096c.016.016.04.024.072.024h5.64c.16 0 .24.08.24.24v1.008c0 .16-.08.24-.24.24h-7.536c-.16 0-.24-.08-.24-.24v-1.08c0-.128.032-.232.096-.312.496-.784.776-1.232.84-1.344A194.818 194.818 0 0032.56 9.6c1.024-1.76 1.536-3.216 1.536-4.368 0-.832-.192-1.496-.576-1.992a1.821 1.821 0 00-1.512-.744c-.608 0-1.104.248-1.488.744-.368.48-.544 1.12-.528 1.92v.912c0 .16-.08.24-.24.24h-1.248c-.16 0-.24-.08-.24-.24v-.96c.032-1.232.392-2.224 1.08-2.976.704-.752 1.616-1.128 2.736-1.128s2.024.392 2.712 1.176c.688.768 1.032 1.784 1.032 3.048 0 1.504-.568 3.2-1.704 5.088a163.9 163.9 0 01-2.424 3.936l-1.344 2.136zm14.94 1.8c-1.135 0-2.047-.336-2.735-1.008-.672-.672-1.008-1.56-1.008-2.664V9.336c0-1.088.344-1.968 1.032-2.64.688-.688 1.592-1.032 2.712-1.032.752 0 1.416.152 1.992.456.576.304 1.016.712 1.32 1.224.32.496.48 1.048.48 1.656v.24c0 .16-.08.24-.24.24l-1.224.048c-.16 0-.24-.08-.24-.24V9.12c0-.528-.2-.984-.6-1.368-.384-.4-.88-.6-1.488-.6s-1.104.216-1.488.648c-.368.416-.552.968-.552 1.656V14.4c0 .688.184 1.248.552 1.68.384.416.88.624 1.488.624s1.104-.192 1.488-.576c.4-.4.6-.864.6-1.392v-.168c0-.16.08-.24.24-.24l1.224.024c.16 0 .24.08.24.24v.264c0 .96-.352 1.76-1.056 2.4-.688.624-1.6.936-2.736.936zM55.07 5.688c.976 0 1.728.336 2.256 1.008.544.672.816 1.608.816 2.808v8.256c0 .16-.08.24-.24.24h-1.224c-.16 0-.24-.08-.24-.24V9.648c0-.784-.176-1.392-.528-1.824-.336-.432-.808-.648-1.416-.648-.64 0-1.144.232-1.512.696-.352.464-.528 1.096-.528 1.896v7.992c0 .16-.08.24-.24.24h-1.224c-.16 0-.24-.08-.24-.24V1.44c0-.16.08-.24.24-.24h1.224c.16 0 .24.08.24.24v5.424c0 .032.016.056.048.072.032.016.056 0 .072-.048.288-.4.648-.696 1.08-.888.448-.208.92-.312 1.416-.312zm6.164-2.04c-.4 0-.728-.128-.984-.384-.24-.256-.36-.576-.36-.96 0-.4.12-.72.36-.96.256-.256.584-.384.984-.384.384 0 .696.128.936.384.256.24.384.56.384.96 0 .384-.128.704-.384.96-.24.256-.552.384-.936.384zM60.633 18c-.16 0-.24-.08-.24-.24V6.096c0-.16.08-.24.24-.24h1.224c.16 0 .24.08.24.24V17.76c0 .16-.08.24-.24.24h-1.224zm3.936 0c-.16 0-.24-.08-.24-.24V1.44c0-.16.08-.24.24-.24h1.224c.16 0 .24.08.24.24v16.32c0 .16-.08.24-.24.24h-1.224zm9.04-16.56c0-.16.08-.24.24-.24h1.224c.16 0 .24.08.24.24v16.32c0 .16-.08.24-.24.24h-1.224c-.16 0-.24-.08-.24-.24v-.528c0-.032-.016-.056-.048-.072-.016-.016-.04-.008-.072.024-.608.672-1.376 1.008-2.304 1.008-1.024 0-1.84-.336-2.448-1.008-.608-.688-.912-1.576-.912-2.664V9.336c0-1.12.304-2.008.912-2.664.608-.672 1.424-1.008 2.448-1.008.944 0 1.712.344 2.304 1.032.032.032.056.04.072.024.032-.016.048-.04.048-.072V1.44zm-2.016 15.264c.592 0 1.072-.208 1.44-.624.384-.432.576-.984.576-1.656V9.456c0-.688-.192-1.24-.576-1.656-.368-.432-.848-.648-1.44-.648-.608 0-1.112.216-1.512.648-.384.416-.576.968-.576 1.656v4.968c0 .672.192 1.224.576 1.656.4.416.904.624 1.512.624zM81.62 5.736c.4 0 .744.088 1.032.264.112.064.152.168.12.312l-.288 1.248c-.016.144-.112.192-.288.144-.192-.096-.432-.144-.72-.144a1.28 1.28 0 00-.288.024c-.576.032-1.048.336-1.416.912-.368.56-.552 1.248-.552 2.064v7.2c0 .16-.08.24-.24.24h-1.224c-.16 0-.24-.08-.24-.24V6.096c0-.16.08-.24.24-.24h1.224c.16 0 .24.08.24.24v1.44c0 .048.008.072.024.072.032 0 .064-.016.096-.048.464-1.216 1.224-1.824 2.28-1.824zm9.338 6.6c0 .16-.08.24-.24.24h-5.472c-.064 0-.096.032-.096.096v1.752c0 .672.184 1.224.552 1.656.384.416.88.624 1.488.624.512 0 .944-.152 1.296-.456.368-.32.608-.728.72-1.224.048-.144.136-.216.264-.216l1.2.048a.23.23 0 01.168.072c.048.048.064.112.048.192-.128.944-.52 1.696-1.176 2.256-.64.544-1.48.816-2.52.816-1.136 0-2.048-.336-2.736-1.008-.672-.672-1.008-1.56-1.008-2.664V9.336c0-1.088.336-1.968 1.008-2.64.688-.688 1.6-1.032 2.736-1.032 1.152 0 2.064.344 2.736 1.032.688.672 1.032 1.552 1.032 2.64v3zm-3.768-5.184c-.608 0-1.104.216-1.488.648-.368.416-.552.968-.552 1.656v1.608c0 .064.032.096.096.096h3.936c.064 0 .096-.032.096-.096V9.456c0-.688-.192-1.24-.576-1.656-.384-.432-.888-.648-1.512-.648zm9.894-1.464c.976 0 1.728.336 2.256 1.008.544.672.816 1.608.816 2.808v8.256c0 .16-.08.24-.24.24h-1.224c-.16 0-.24-.08-.24-.24V9.648c0-.784-.176-1.392-.528-1.824-.336-.432-.808-.648-1.416-.648-.64 0-1.144.232-1.512.696-.352.464-.528 1.096-.528 1.896v7.992c0 .16-.08.24-.24.24h-1.224c-.16 0-.24-.08-.24-.24V6.096c0-.16.08-.24.24-.24h1.224c.16 0 .24.08.24.24v.768c0 .032.016.056.048.072.032.016.056 0 .072-.048.288-.4.648-.696 1.08-.888.448-.208.92-.312 1.416-.312zm12.768-.024c1.12 0 2.016.368 2.688 1.104.672.72 1.008 1.688 1.008 2.904v8.088c0 .16-.08.24-.24.24h-1.224c-.16 0-.24-.08-.24-.24v-.72c0-.032-.016-.048-.048-.048-.016-.016-.04-.008-.072.024-.592.784-1.48 1.176-2.664 1.176-.88 0-1.648-.248-2.304-.744-.64-.512-.96-1.408-.96-2.688 0-1.36.392-2.352 1.176-2.976.784-.64 1.816-.96 3.096-.96h1.68c.064 0 .096-.032.096-.096v-.936c0-.8-.184-1.44-.552-1.92-.368-.48-.864-.72-1.488-.72-.48 0-.896.16-1.248.48-.336.32-.536.728-.6 1.224 0 .16-.08.24-.24.24l-1.344-.024a.26.26 0 01-.192-.072.202.202 0 01-.024-.168c.08-.944.464-1.704 1.152-2.28.688-.592 1.536-.888 2.544-.888zm-.432 11.04c.656 0 1.224-.208 1.704-.624.48-.432.72-1.024.72-1.776v-2.016c0-.064-.032-.096-.096-.096h-1.704c-.768 0-1.376.208-1.824.624-.448.4-.672 1-.672 1.8 0 .704.168 1.232.504 1.584.352.336.808.504 1.368.504zm10.178-10.968c.4 0 .744.088 1.032.264.112.064.152.168.12.312l-.288 1.248c-.016.144-.112.192-.288.144-.192-.096-.432-.144-.72-.144a1.28 1.28 0 00-.288.024c-.576.032-1.048.336-1.416.912-.368.56-.552 1.248-.552 2.064v7.2c0 .16-.08.24-.24.24h-1.224c-.16 0-.24-.08-.24-.24V6.096c0-.16.08-.24.24-.24h1.224c.16 0 .24.08.24.24v1.44c0 .048.008.072.024.072.032 0 .064-.016.096-.048.464-1.216 1.224-1.824 2.28-1.824zm9.338 6.6c0 .16-.08.24-.24.24h-5.472c-.064 0-.096.032-.096.096v1.752c0 .672.184 1.224.552 1.656.384.416.88.624 1.488.624.512 0 .944-.152 1.296-.456.368-.32.608-.728.72-1.224.048-.144.136-.216.264-.216l1.2.048a.23.23 0 01.168.072c.048.048.064.112.048.192-.128.944-.52 1.696-1.176 2.256-.64.544-1.48.816-2.52.816-1.136 0-2.048-.336-2.736-1.008-.672-.672-1.008-1.56-1.008-2.664V9.336c0-1.088.336-1.968 1.008-2.64.688-.688 1.6-1.032 2.736-1.032 1.152 0 2.064.344 2.736 1.032.688.672 1.032 1.552 1.032 2.64v3zm-3.768-5.184c-.608 0-1.104.216-1.488.648-.368.416-.552.968-.552 1.656v1.608c0 .064.032.096.096.096h3.936c.064 0 .096-.032.096-.096V9.456c0-.688-.192-1.24-.576-1.656-.384-.432-.888-.648-1.512-.648zm13.763-1.416c.4 0 .744.088 1.032.264.112.064.152.168.12.312l-.288 1.248c-.016.144-.112.192-.288.144-.192-.096-.432-.144-.72-.144a1.28 1.28 0 00-.288.024c-.576.032-1.048.336-1.416.912-.368.56-.552 1.248-.552 2.064v7.2c0 .16-.08.24-.24.24h-1.224c-.16 0-.24-.08-.24-.24V6.096c0-.16.08-.24.24-.24h1.224c.16 0 .24.08.24.24v1.44c0 .048.008.072.024.072.032 0 .064-.016.096-.048.464-1.216 1.224-1.824 2.28-1.824zm9.338 6.6c0 .16-.08.24-.24.24h-5.472c-.064 0-.096.032-.096.096v1.752c0 .672.184 1.224.552 1.656.384.416.88.624 1.488.624.512 0 .944-.152 1.296-.456.368-.32.608-.728.72-1.224.048-.144.136-.216.264-.216l1.2.048a.23.23 0 01.168.072c.048.048.064.112.048.192-.128.944-.52 1.696-1.176 2.256-.64.544-1.48.816-2.52.816-1.136 0-2.048-.336-2.736-1.008-.672-.672-1.008-1.56-1.008-2.664V9.336c0-1.088.336-1.968 1.008-2.64.688-.688 1.6-1.032 2.736-1.032 1.152 0 2.064.344 2.736 1.032.688.672 1.032 1.552 1.032 2.64v3zm-3.768-5.184c-.608 0-1.104.216-1.488.648-.368.416-.552.968-.552 1.656v1.608c0 .064.032.096.096.096h3.936c.064 0 .096-.032.096-.096V9.456c0-.688-.192-1.24-.576-1.656-.384-.432-.888-.648-1.512-.648zm9.343-4.656c-.608 0-1.04.208-1.296.624-.256.4-.384 1.032-.384 1.896v.744c0 .064.032.096.096.096h1.848c.16 0 .24.08.24.24v.792c0 .16-.08.24-.24.24h-1.848c-.064 0-.096.032-.096.096V17.76c0 .16-.08.24-.24.24h-1.2c-.16 0-.24-.08-.24-.24V7.224c0-.064-.032-.096-.096-.096h-.96c-.16 0-.24-.08-.24-.24v-.792c0-.16.08-.24.24-.24h.96c.064 0 .096-.032.096-.096v-.768c0-1.392.256-2.4.768-3.024.512-.624 1.368-.936 2.568-.936h.336c.16 0 .24.08.24.24l-.024.984c0 .16-.08.24-.24.24h-.288zm7.617 3.6c0-.16.08-.24.24-.24h1.224c.16 0 .24.08.24.24V17.76c0 .16-.08.24-.24.24h-1.224c-.16 0-.24-.08-.24-.24v-.816c0-.048-.016-.072-.048-.072-.016 0-.04.016-.072.048-.496.832-1.296 1.248-2.4 1.248-.96 0-1.728-.288-2.304-.864-.56-.592-.84-1.48-.84-2.664V6.096c0-.16.08-.24.24-.24h1.224c.16 0 .24.08.24.24v8.16c0 .8.16 1.408.48 1.824.336.4.816.6 1.44.6.64 0 1.136-.232 1.488-.696.368-.464.552-1.096.552-1.896V6.096zm9.427 0c0-.16.08-.24.24-.24h1.224c.16 0 .24.08.24.24V17.76c0 1.712-.4 3.008-1.2 3.888-.784.896-2.104 1.304-3.96 1.224-.16-.016-.24-.104-.24-.264v-1.032c0-.16.08-.24.24-.24 1.28.032 2.176-.264 2.688-.888.512-.608.768-1.552.768-2.832v-.72c0-.032-.016-.056-.048-.072-.016-.016-.04-.008-.072.024-.272.4-.624.704-1.056.912a2.964 2.964 0 01-1.344.312c-1.008 0-1.808-.336-2.4-1.008-.576-.672-.864-1.56-.864-2.664V9.336c0-1.12.288-2.008.864-2.664.592-.672 1.392-1.008 2.4-1.008.48 0 .928.104 1.344.312a2.47 2.47 0 011.056.888c.032.048.056.072.072.072.032-.016.048-.048.048-.096v-.744zm-2.016 10.488c.592 0 1.072-.208 1.44-.624.384-.432.576-.984.576-1.656V9.456c0-.688-.192-1.24-.576-1.656-.368-.432-.848-.648-1.44-.648-.608 0-1.104.216-1.488.648-.384.416-.576.968-.576 1.656v4.848c0 .672.192 1.224.576 1.656.384.416.88.624 1.488.624zm12.939-4.248c0 .16-.08.24-.24.24H176.1c-.064 0-.096.032-.096.096v1.752c0 .672.184 1.224.552 1.656.384.416.88.624 1.488.624.512 0 .944-.152 1.296-.456.368-.32.608-.728.72-1.224.048-.144.136-.216.264-.216l1.2.048a.23.23 0 01.168.072c.048.048.064.112.048.192-.128.944-.52 1.696-1.176 2.256-.64.544-1.48.816-2.52.816-1.136 0-2.048-.336-2.736-1.008-.672-.672-1.008-1.56-1.008-2.664V9.336c0-1.088.336-1.968 1.008-2.64.688-.688 1.6-1.032 2.736-1.032 1.152 0 2.064.344 2.736 1.032.688.672 1.032 1.552 1.032 2.64v3zm-3.768-5.184c-.608 0-1.104.216-1.488.648-.368.416-.552.968-.552 1.656v1.608c0 .064.032.096.096.096h3.936c.064 0 .096-.032.096-.096V9.456c0-.688-.192-1.24-.576-1.656-.384-.432-.888-.648-1.512-.648zm12.821 5.184c0 .16-.08.24-.24.24h-5.472c-.064 0-.096.032-.096.096v1.752c0 .672.184 1.224.552 1.656.384.416.88.624 1.488.624.512 0 .944-.152 1.296-.456.368-.32.608-.728.72-1.224.048-.144.136-.216.264-.216l1.2.048a.23.23 0 01.168.072c.048.048.064.112.048.192-.128.944-.52 1.696-1.176 2.256-.64.544-1.48.816-2.52.816-1.136 0-2.048-.336-2.736-1.008-.672-.672-1.008-1.56-1.008-2.664V9.336c0-1.088.336-1.968 1.008-2.64.688-.688 1.6-1.032 2.736-1.032 1.152 0 2.064.344 2.736 1.032.688.672 1.032 1.552 1.032 2.64v3zm-3.768-5.184c-.608 0-1.104.216-1.488.648-.368.416-.552.968-.552 1.656v1.608c0 .064.032.096.096.096h3.936c.064 0 .096-.032.096-.096V9.456c0-.688-.192-1.24-.576-1.656-.384-.432-.888-.648-1.512-.648zm8.695 10.968c-1.104 0-1.992-.28-2.664-.84-.656-.576-.984-1.336-.984-2.28v-.168c0-.16.08-.24.24-.24h1.152c.16 0 .24.08.24.24v.144c0 .512.184.944.552 1.296.384.352.88.528 1.488.528.576 0 1.04-.176 1.392-.528.352-.352.528-.8.528-1.344 0-.416-.112-.76-.336-1.032a2.435 2.435 0 00-.792-.672 16.05 16.05 0 00-1.32-.624 13.179 13.179 0 01-1.56-.744 3.685 3.685 0 01-1.056-1.056c-.288-.464-.432-1.048-.432-1.752 0-1.024.312-1.832.936-2.424.64-.592 1.496-.888 2.568-.888 1.088 0 1.952.304 2.592.912.64.608.96 1.416.96 2.424v.072c0 .16-.08.24-.24.24h-1.104c-.16 0-.24-.08-.24-.24V9c0-.544-.184-.992-.552-1.344-.352-.352-.816-.528-1.392-.528s-1.04.184-1.392.552c-.336.352-.504.792-.504 1.32 0 .384.104.712.312.984.208.256.464.472.768.648.304.16.728.36 1.272.6.656.288 1.192.56 1.608.816a3.61 3.61 0 011.128 1.08c.32.464.48 1.04.48 1.728 0 .992-.328 1.784-.984 2.376-.656.592-1.544.888-2.664.888zm5.904-.168c-.4 0-.728-.128-.984-.384-.24-.256-.36-.576-.36-.96 0-.4.12-.72.36-.96.256-.256.584-.384.984-.384.384 0 .704.128.96.384.256.24.384.56.384.96 0 .384-.128.704-.384.96a1.302 1.302 0 01-.96.384zM25.708 31.448c0 .16-.08.24-.24.24h-5.567c-.064 0-.096.032-.096.096v5.952c0 .064.032.096.096.096h3.503c.16 0 .24.08.24.24v1.032c0 .16-.08.24-.24.24h-3.503c-.064 0-.096.032-.096.096v5.976c0 .064.032.096.096.096h5.567c.16 0 .24.08.24.24v1.008c0 .16-.08.24-.24.24H18.34c-.16 0-.24-.08-.24-.24V30.44c0-.16.08-.24.24-.24h7.128c.16 0 .24.08.24.24v1.008zM29.782 47c-.144 0-.232-.072-.264-.216L26.542 35.12l-.024-.096c0-.112.072-.168.216-.168h1.392c.144 0 .232.072.264.216l2.064 9.096c.016.048.032.072.048.072s.032-.024.048-.072l2.04-9.096c.032-.144.12-.216.264-.216l1.392.024c.08 0 .136.024.168.072.048.048.056.112.024.192l-2.952 11.64c-.016.144-.104.216-.264.216h-1.44zm13.081-5.664c0 .16-.08.24-.24.24h-5.472c-.064 0-.096.032-.096.096v1.752c0 .672.184 1.224.552 1.656.384.416.88.624 1.488.624.512 0 .944-.152 1.296-.456.368-.32.608-.728.72-1.224.048-.144.136-.216.264-.216l1.2.048a.23.23 0 01.168.072c.048.048.064.112.048.192-.128.944-.52 1.696-1.176 2.256-.64.544-1.48.816-2.52.816-1.136 0-2.048-.336-2.736-1.008-.672-.672-1.008-1.56-1.008-2.664v-5.184c0-1.088.336-1.968 1.008-2.64.688-.688 1.6-1.032 2.736-1.032 1.152 0 2.064.344 2.736 1.032.688.672 1.032 1.552 1.032 2.64v3zm-3.768-5.184c-.608 0-1.104.216-1.488.648-.368.416-.552.968-.552 1.656v1.608c0 .064.032.096.096.096h3.936c.064 0 .096-.032.096-.096v-1.608c0-.688-.192-1.24-.576-1.656-.384-.432-.888-.648-1.512-.648zm9.678-1.416c.4 0 .744.088 1.032.264.112.064.152.168.12.312l-.288 1.248c-.016.144-.112.192-.288.144-.192-.096-.432-.144-.72-.144a1.28 1.28 0 00-.288.024c-.576.032-1.048.336-1.416.912-.368.56-.552 1.248-.552 2.064v7.2c0 .16-.08.24-.24.24h-1.224c-.16 0-.24-.08-.24-.24V35.096c0-.16.08-.24.24-.24h1.224c.16 0 .24.08.24.24v1.44c0 .048.008.072.024.072.032 0 .064-.016.096-.048.464-1.216 1.224-1.824 2.28-1.824zm2.08 17.064c-.032 0-.064-.024-.096-.072a.296.296 0 01-.048-.168v-.96c0-.16.08-.24.24-.24.496-.016.88-.112 1.152-.288.288-.176.52-.488.696-.936.176-.448.352-1.136.528-2.064.016-.032.016-.056 0-.072v-.072L50.277 35.12l-.024-.072c0-.128.08-.192.24-.192h1.296c.16 0 .248.072.264.216l2.112 9.432c.016.048.032.072.048.072s.032-.024.048-.072l2.088-9.432c.032-.144.12-.216.264-.216l1.344.024c.08 0 .136.024.168.072.048.048.056.112.024.192l-3.336 12.912c-.288 1.072-.576 1.864-.864 2.376-.272.512-.632.864-1.08 1.056-.448.208-1.08.312-1.896.312h-.12zm18.129-21.36c0-.16.08-.24.24-.24h1.224c.16 0 .24.08.24.24v16.32c0 .16-.08.24-.24.24h-1.224c-.16 0-.24-.08-.24-.24v-.528c0-.032-.016-.056-.048-.072-.016-.016-.04-.008-.072.024-.608.672-1.376 1.008-2.304 1.008-1.024 0-1.84-.336-2.448-1.008-.608-.688-.912-1.576-.912-2.664v-5.184c0-1.12.304-2.008.912-2.664.608-.672 1.424-1.008 2.448-1.008.944 0 1.712.344 2.304 1.032.032.032.056.04.072.024.032-.016.048-.04.048-.072V30.44zm-2.016 15.264c.592 0 1.072-.208 1.44-.624.384-.432.576-.984.576-1.656v-4.968c0-.688-.192-1.24-.576-1.656-.368-.432-.848-.648-1.44-.648-.608 0-1.112.216-1.512.648-.384.416-.576.968-.576 1.656v4.968c0 .672.192 1.224.576 1.656.4.416.904.624 1.512.624zm9.428 1.488c-1.152 0-2.072-.336-2.76-1.008-.672-.672-1.008-1.56-1.008-2.664v-5.16c0-1.088.344-1.976 1.032-2.664.688-.688 1.6-1.032 2.736-1.032 1.152 0 2.072.344 2.76 1.032.688.688 1.032 1.576 1.032 2.664v5.16c0 1.104-.344 1.992-1.032 2.664-.688.672-1.608 1.008-2.76 1.008zm0-1.512c.608 0 1.104-.208 1.488-.624.4-.416.6-.968.6-1.656v-4.944c0-.688-.2-1.24-.6-1.656-.384-.432-.88-.648-1.488-.648s-1.104.216-1.488.648c-.384.416-.576.968-.576 1.656V43.4c0 .688.192 1.24.576 1.656.384.416.88.624 1.488.624zm10.057-10.992c.976 0 1.728.336 2.256 1.008.544.672.816 1.608.816 2.808v8.256c0 .16-.08.24-.24.24H88.06c-.16 0-.24-.08-.24-.24v-8.112c0-.784-.176-1.392-.528-1.824-.336-.432-.808-.648-1.416-.648-.64 0-1.144.232-1.512.696-.352.464-.528 1.096-.528 1.896v7.992c0 .16-.08.24-.24.24h-1.224c-.16 0-.24-.08-.24-.24V35.096c0-.16.08-.24.24-.24h1.224c.16 0 .24.08.24.24v.768c0 .032.016.056.048.072.032.016.056 0 .072-.048.288-.4.648-.696 1.08-.888.448-.208.92-.312 1.416-.312zm8.684-.024c1.12 0 2.016.368 2.688 1.104.672.72 1.008 1.688 1.008 2.904v8.088c0 .16-.08.24-.24.24h-1.224c-.16 0-.24-.08-.24-.24v-.72c0-.032-.016-.048-.048-.048-.016-.016-.04-.008-.072.024-.592.784-1.48 1.176-2.664 1.176-.88 0-1.648-.248-2.304-.744-.64-.512-.96-1.408-.96-2.688 0-1.36.392-2.352 1.176-2.976.784-.64 1.816-.96 3.096-.96h1.68c.064 0 .096-.032.096-.096v-.936c0-.8-.184-1.44-.552-1.92-.368-.48-.864-.72-1.488-.72-.48 0-.896.16-1.248.48-.336.32-.536.728-.6 1.224 0 .16-.08.24-.24.24l-1.344-.024a.26.26 0 01-.192-.072.202.202 0 01-.024-.168c.08-.944.464-1.704 1.152-2.28.688-.592 1.536-.888 2.544-.888zm-.432 11.04c.656 0 1.224-.208 1.704-.624.48-.432.72-1.024.72-1.776v-2.016c0-.064-.032-.096-.096-.096h-1.704c-.768 0-1.376.208-1.824.624-.448.4-.672 1-.672 1.8 0 .704.168 1.232.504 1.584.352.336.808.504 1.368.504zm10.346-9.816c0 .16-.08.24-.24.24h-1.824c-.064 0-.096.032-.096.096v7.344c0 .736.128 1.248.384 1.536.256.272.648.4 1.176.384h.24c.16 0 .24.08.24.24v1.032c0 .16-.08.24-.24.24h-.6c-.944 0-1.664-.2-2.16-.6-.48-.416-.72-1.192-.72-2.328v-7.848c0-.064-.032-.096-.096-.096h-.936c-.16 0-.24-.08-.24-.24v-.792c0-.16.08-.24.24-.24h.936c.064 0 .096-.032.096-.096v-2.688c0-.16.08-.24.24-.24h1.2c.16 0 .24.08.24.24v2.688c0 .064.032.096.096.096h1.824c.16 0 .24.08.24.24v.792zm2.439-3.24c-.4 0-.728-.128-.984-.384-.24-.256-.36-.576-.36-.96 0-.4.12-.72.36-.96.256-.256.584-.384.984-.384.384 0 .696.128.936.384.256.24.384.56.384.96 0 .384-.128.704-.384.96-.24.256-.552.384-.936.384zm-.6 14.352c-.16 0-.24-.08-.24-.24V35.096c0-.16.08-.24.24-.24h1.224c.16 0 .24.08.24.24V46.76c0 .16-.08.24-.24.24h-1.224zm7.344.192c-1.152 0-2.072-.336-2.76-1.008-.672-.672-1.008-1.56-1.008-2.664v-5.16c0-1.088.344-1.976 1.032-2.664.688-.688 1.6-1.032 2.736-1.032 1.152 0 2.072.344 2.76 1.032.688.688 1.032 1.576 1.032 2.664v5.16c0 1.104-.344 1.992-1.032 2.664-.688.672-1.608 1.008-2.76 1.008zm0-1.512c.608 0 1.104-.208 1.488-.624.4-.416.6-.968.6-1.656v-4.944c0-.688-.2-1.24-.6-1.656-.384-.432-.88-.648-1.488-.648s-1.104.216-1.488.648c-.384.416-.576.968-.576 1.656V43.4c0 .688.192 1.24.576 1.656.384.416.88.624 1.488.624zm10.057-10.992c.976 0 1.728.336 2.256 1.008.544.672.816 1.608.816 2.808v8.256c0 .16-.08.24-.24.24h-1.224c-.16 0-.24-.08-.24-.24v-8.112c0-.784-.176-1.392-.528-1.824-.336-.432-.808-.648-1.416-.648-.64 0-1.144.232-1.512.696-.352.464-.528 1.096-.528 1.896v7.992c0 .16-.08.24-.24.24h-1.224c-.16 0-.24-.08-.24-.24V35.096c0-.16.08-.24.24-.24h1.224c.16 0 .24.08.24.24v.768c0 .032.016.056.048.072.032.016.056 0 .072-.048.288-.4.648-.696 1.08-.888.448-.208.92-.312 1.416-.312zm12.696 12.504c-1.136 0-2.048-.336-2.736-1.008-.672-.672-1.008-1.56-1.008-2.664v-5.184c0-1.088.344-1.968 1.032-2.64.688-.688 1.592-1.032 2.712-1.032.752 0 1.416.152 1.992.456.576.304 1.016.712 1.32 1.224.32.496.48 1.048.48 1.656v.24c0 .16-.08.24-.24.24l-1.224.048c-.16 0-.24-.08-.24-.24v-.168c0-.528-.2-.984-.6-1.368-.384-.4-.88-.6-1.488-.6s-1.104.216-1.488.648c-.368.416-.552.968-.552 1.656V43.4c0 .688.184 1.248.552 1.68.384.416.88.624 1.488.624s1.104-.192 1.488-.576c.4-.4.6-.864.6-1.392v-.168c0-.16.08-.24.24-.24l1.224.024c.16 0 .24.08.24.24v.264c0 .96-.352 1.76-1.056 2.4-.688.624-1.6.936-2.736.936zm8.96 0c-1.152 0-2.072-.336-2.76-1.008-.672-.672-1.008-1.56-1.008-2.664v-5.16c0-1.088.344-1.976 1.032-2.664.688-.688 1.6-1.032 2.736-1.032 1.152 0 2.072.344 2.76 1.032.688.688 1.032 1.576 1.032 2.664v5.16c0 1.104-.344 1.992-1.032 2.664-.688.672-1.608 1.008-2.76 1.008zm0-1.512c.608 0 1.104-.208 1.488-.624.4-.416.6-.968.6-1.656v-4.944c0-.688-.2-1.24-.6-1.656-.384-.432-.88-.648-1.488-.648s-1.104.216-1.488.648c-.384.416-.576.968-.576 1.656V43.4c0 .688.192 1.24.576 1.656.384.416.88.624 1.488.624zm11.281-10.584c0-.16.08-.24.24-.24h1.224c.16 0 .24.08.24.24V46.76c0 .16-.08.24-.24.24h-1.224c-.16 0-.24-.08-.24-.24v-.816c0-.048-.016-.072-.048-.072-.016 0-.04.016-.072.048-.496.832-1.296 1.248-2.4 1.248-.96 0-1.728-.288-2.304-.864-.56-.592-.84-1.48-.84-2.664v-8.544c0-.16.08-.24.24-.24h1.224c.16 0 .24.08.24.24v8.16c0 .8.16 1.408.48 1.824.336.4.816.6 1.44.6.64 0 1.136-.232 1.488-.696.368-.464.552-1.096.552-1.896v-7.992zm8.228-.408c.976 0 1.728.336 2.256 1.008.544.672.816 1.608.816 2.808v8.256c0 .16-.08.24-.24.24h-1.224c-.16 0-.24-.08-.24-.24v-8.112c0-.784-.176-1.392-.528-1.824-.336-.432-.808-.648-1.416-.648-.64 0-1.144.232-1.512.696-.352.464-.528 1.096-.528 1.896v7.992c0 .16-.08.24-.24.24h-1.224c-.16 0-.24-.08-.24-.24V35.096c0-.16.08-.24.24-.24h1.224c.16 0 .24.08.24.24v.768c0 .032.016.056.048.072.032.016.056 0 .072-.048.288-.4.648-.696 1.08-.888.448-.208.92-.312 1.416-.312zm9.404 1.2c0 .16-.08.24-.24.24h-1.824c-.064 0-.096.032-.096.096v7.344c0 .736.128 1.248.384 1.536.256.272.648.4 1.176.384h.24c.16 0 .24.08.24.24v1.032c0 .16-.08.24-.24.24h-.6c-.944 0-1.664-.2-2.16-.6-.48-.416-.72-1.192-.72-2.328v-7.848c0-.064-.032-.096-.096-.096h-.936c-.16 0-.24-.08-.24-.24v-.792c0-.16.08-.24.24-.24h.936c.064 0 .096-.032.096-.096v-2.688c0-.16.08-.24.24-.24h1.2c.16 0 .24.08.24.24v2.688c0 .064.032.096.096.096h1.824c.16 0 .24.08.24.24v.792zm4.575 11.232c-1.104 0-1.992-.28-2.664-.84-.656-.576-.984-1.336-.984-2.28v-.168c0-.16.08-.24.24-.24h1.152c.16 0 .24.08.24.24v.144c0 .512.184.944.552 1.296.384.352.88.528 1.488.528.576 0 1.04-.176 1.392-.528.352-.352.528-.8.528-1.344 0-.416-.112-.76-.336-1.032a2.435 2.435 0 00-.792-.672 16.05 16.05 0 00-1.32-.624 13.179 13.179 0 01-1.56-.744 3.685 3.685 0 01-1.056-1.056c-.288-.464-.432-1.048-.432-1.752 0-1.024.312-1.832.936-2.424.64-.592 1.496-.888 2.568-.888 1.088 0 1.952.304 2.592.912.64.608.96 1.416.96 2.424v.072c0 .16-.08.24-.24.24h-1.104c-.16 0-.24-.08-.24-.24V38c0-.544-.184-.992-.552-1.344-.352-.352-.816-.528-1.392-.528s-1.04.184-1.392.552c-.336.352-.504.792-.504 1.32 0 .384.104.712.312.984.208.256.464.472.768.648.304.16.728.36 1.272.6.656.288 1.192.56 1.608.816a3.61 3.61 0 011.128 1.08c.32.464.48 1.04.48 1.728 0 .992-.328 1.784-.984 2.376-.656.592-1.544.888-2.664.888zm5.904-.168c-.4 0-.728-.128-.984-.384-.24-.256-.36-.576-.36-.96 0-.4.12-.72.36-.96.256-.256.584-.384.984-.384.384 0 .704.128.96.384.256.24.384.56.384.96 0 .384-.128.704-.384.96a1.302 1.302 0 01-.96.384z" fill="#fff"/></svg>