<svg width="130" height="24" viewBox="0 0 130 24" fill="none" xmlns="http://www.w3.org/2000/svg"><path fill="#EE3224" d="M.5 0h129v24H.5z"/><path d="M10.041 19.152c-1.09 0-1.963-.348-2.622-1.045-.646-.71-.969-1.64-.969-2.793V5.928c0-.063.019-.114.057-.152a.236.236 0 01.171-.076h1.748a.18.18 0 01.152.076.18.18 0 01.076.152v9.614c0 .507.127.918.38 1.235.253.317.589.475 1.007.475.418 0 .754-.158 1.007-.475.253-.317.38-.728.38-1.235V5.928c0-.063.019-.114.057-.152a.236.236 0 01.171-.076h1.748a.18.18 0 01.152.076.18.18 0 01.076.152v9.386c0 1.153-.33 2.084-.988 2.793-.659.697-1.526 1.045-2.603 1.045zM21.717 19c-.126 0-.209-.063-.247-.19l-1.615-5.453c-.025-.05-.057-.076-.095-.076h-1.007c-.063 0-.095.032-.095.095v5.396c0 .063-.025.12-.076.171a.205.205 0 01-.152.057h-1.748a.278.278 0 01-.17-.057.278.278 0 01-.058-.171V5.928c0-.063.02-.114.057-.152a.236.236 0 01.171-.076h3.572c.672 0 1.26.165 1.767.494.52.317.919.773 1.197 1.368.292.583.437 1.254.437 2.014 0 .785-.152 1.463-.456 2.033-.304.57-.728 1-1.273 1.292-.05.013-.07.05-.057.114l1.862 5.719a.21.21 0 01.02.095c0 .114-.07.171-.21.171h-1.824zM18.753 7.6c-.063 0-.095.032-.095.095v3.781c0 .063.032.095.095.095h1.16c.455 0 .823-.177 1.101-.532.292-.355.437-.836.437-1.444s-.145-1.09-.437-1.444a1.317 1.317 0 00-1.102-.551h-1.159zm10.658 11.552c-1.077 0-1.944-.31-2.603-.931-.646-.633-.969-1.47-.969-2.508V8.987c0-1.039.323-1.868.97-2.489.658-.633 1.525-.95 2.602-.95s1.944.317 2.603.95c.671.62 1.007 1.457 1.007 2.508v.741c0 .063-.025.12-.076.171a.205.205 0 01-.152.057h-1.748a.278.278 0 01-.17-.057.278.278 0 01-.058-.171v-.779c0-.456-.133-.823-.399-1.102-.253-.279-.589-.418-1.007-.418-.418 0-.754.14-1.007.418-.253.279-.38.646-.38 1.102v6.764c0 .456.127.823.38 1.102.253.279.59.418 1.007.418.418 0 .754-.14 1.007-.418.266-.279.4-.646.4-1.102v-1.824c0-.063-.033-.095-.096-.095h-1.159a.278.278 0 01-.17-.057.278.278 0 01-.058-.171v-1.387c0-.063.02-.114.057-.152a.236.236 0 01.171-.076h3.23a.18.18 0 01.152.076.18.18 0 01.076.152v3.515c0 1.039-.336 1.875-1.007 2.508-.659.62-1.526.931-2.603.931zM42.33 7.372c0 .063-.025.12-.076.171a.205.205 0 01-.152.057h-4.104c-.063 0-.095.032-.095.095v3.591c0 .063.032.095.095.095h2.432a.18.18 0 01.152.076.18.18 0 01.076.152v1.463c0 .063-.025.12-.076.171a.205.205 0 01-.152.057h-2.432c-.063 0-.095.032-.095.095v3.61c0 .063.032.095.095.095h4.104a.18.18 0 01.152.076.18.18 0 01.076.152v1.444c0 .063-.025.12-.076.171a.205.205 0 01-.152.057h-6.175a.278.278 0 01-.17-.057.278.278 0 01-.058-.171V5.928c0-.063.02-.114.057-.152a.236.236 0 01.171-.076h6.175a.18.18 0 01.152.076.18.18 0 01.076.152v1.444zm7.877-1.444c0-.063.02-.114.057-.152a.236.236 0 01.171-.076h1.73a.18.18 0 01.151.076.18.18 0 01.076.152v12.844c0 .063-.025.12-.076.171a.205.205 0 01-.152.057h-1.995c-.126 0-.209-.063-.247-.19l-2.83-8.056c-.013-.038-.039-.05-.077-.038-.025 0-.038.019-.038.057l.02 7.999c0 .063-.026.12-.077.171a.205.205 0 01-.152.057h-1.729a.278.278 0 01-.17-.057.278.278 0 01-.058-.171V5.928c0-.063.02-.114.057-.152a.236.236 0 01.171-.076h1.957c.127 0 .21.063.247.19l2.85 7.999c.013.038.032.057.057.057.038-.013.057-.038.057-.076V5.928zm11.91-.228a.18.18 0 01.152.076.18.18 0 01.076.152v1.444c0 .063-.025.12-.076.171a.205.205 0 01-.152.057h-2.413c-.063 0-.095.032-.095.095v11.077c0 .063-.025.12-.076.171a.205.205 0 01-.152.057h-1.748a.278.278 0 01-.17-.057.278.278 0 01-.058-.171V7.695c0-.063-.032-.095-.095-.095h-2.28a.278.278 0 01-.17-.057.278.278 0 01-.058-.171V5.928c0-.063.02-.114.057-.152a.236.236 0 01.171-.076h7.087zM74.796 19c-.152 0-.235-.07-.247-.209l-.361-1.995c0-.063-.038-.095-.114-.095H71.3c-.076 0-.114.032-.114.095l-.361 1.995c-.013.14-.095.209-.247.209h-1.73c-.177 0-.246-.082-.208-.247l2.812-12.844c.025-.14.107-.209.247-.209h2.014c.139 0 .221.07.247.209l2.812 12.844v.076c0 .114-.07.171-.21.171h-1.766zm-3.268-4.123c-.013.063.019.095.095.095h2.109c.076 0 .107-.032.095-.095l-1.102-6.004c-.013-.038-.032-.057-.057-.057-.026 0-.045.019-.057.057l-1.083 6.004zM82.7 5.681c.671 0 1.26.165 1.767.494.519.33.918.792 1.197 1.387.291.595.437 1.273.437 2.033 0 1.14-.304 2.058-.912 2.755-.596.697-1.387 1.045-2.375 1.045H81.2c-.064 0-.095.032-.095.095v5.282c0 .063-.026.12-.076.171a.205.205 0 01-.152.057h-1.748a.278.278 0 01-.171-.057.278.278 0 01-.057-.171V5.909c0-.063.019-.114.057-.152a.236.236 0 01.17-.076h3.573zm-.361 5.985c.468 0 .842-.177 1.12-.532.292-.367.438-.861.438-1.482 0-.633-.146-1.134-.437-1.501a1.32 1.32 0 00-1.121-.57H81.2c-.064 0-.095.032-.095.095v3.895c0 .063.031.095.095.095h1.14zm9.9-5.985c.67 0 1.26.165 1.766.494.52.33.919.792 1.197 1.387.292.595.437 1.273.437 2.033 0 1.14-.304 2.058-.912 2.755-.595.697-1.387 1.045-2.375 1.045h-1.615c-.063 0-.095.032-.095.095v5.282c0 .063-.025.12-.076.171a.205.205 0 01-.152.057h-1.748a.278.278 0 01-.17-.057.278.278 0 01-.058-.171V5.909c0-.063.02-.114.057-.152a.236.236 0 01.171-.076h3.572zm-.362 5.985c.469 0 .843-.177 1.121-.532.292-.367.437-.861.437-1.482 0-.633-.145-1.134-.437-1.501a1.32 1.32 0 00-1.12-.57h-1.14c-.064 0-.096.032-.096.095v3.895c0 .063.032.095.095.095h1.14zm12.75-4.294c0 .063-.025.12-.076.171a.206.206 0 01-.152.057h-4.104c-.063 0-.095.032-.095.095v3.591c0 .063.032.095.095.095h2.432a.18.18 0 01.152.076.18.18 0 01.076.152v1.463c0 .063-.025.12-.076.171a.206.206 0 01-.152.057h-2.432c-.063 0-.095.032-.095.095v3.61c0 .063.032.095.095.095h4.104a.18.18 0 01.152.076.18.18 0 01.076.152v1.444c0 .063-.025.12-.076.171a.206.206 0 01-.152.057h-6.175a.278.278 0 01-.171-.057.278.278 0 01-.057-.171V5.928c0-.063.019-.114.057-.152a.236.236 0 01.17-.076h6.176c.063 0 .114.025.152.076a.18.18 0 01.076.152v1.444zM112.857 19c-.152 0-.234-.07-.247-.209l-.361-1.995c0-.063-.038-.095-.114-.095h-2.774c-.076 0-.114.032-.114.095l-.361 1.995c-.012.14-.095.209-.247.209h-1.729c-.177 0-.247-.082-.209-.247l2.812-12.844c.026-.14.108-.209.247-.209h2.014c.14 0 .222.07.247.209l2.812 12.844v.076c0 .114-.069.171-.209.171h-1.767zm-3.268-4.123c-.012.063.019.095.095.095h2.109c.076 0 .108-.032.095-.095l-1.102-6.004c-.012-.038-.031-.057-.057-.057-.025 0-.044.019-.057.057l-1.083 6.004zm7.62 4.123a.28.28 0 01-.171-.057.278.278 0 01-.057-.171V5.928c0-.063.019-.114.057-.152a.237.237 0 01.171-.076h1.748a.18.18 0 01.152.076.18.18 0 01.076.152v11.077c0 .063.032.095.095.095h4.104a.18.18 0 01.152.076.18.18 0 01.076.152v1.444c0 .063-.025.12-.076.171a.204.204 0 01-.152.057h-6.175z" fill="#fff"/></svg>